NotoSerifTamilSlanted-ExtraLight.ufo
<glyph name="exclam" format="2">
  <advance width="270.75757575757575"/>
  <unicode hex="0021"/>
  <outline>
    <contour>
      <point x="96.0" y="174.21212121212122" type="line"/>
      <point x="126.36363636363637" y="174.21212121212122" type="line"/>
      <point x="251.39393939393938" y="714.0" type="line"/>
      <point x="203.15151515151516" y="714.0" type="line"/>
    </contour>
    <contour>
      <point x="75.81818181818181" y="-8.787878787878787" type="curve" smooth="yes"/>
      <point x="97.84848484848484" y="-8.787878787878787"/>
      <point x="117.0909090909091" y="10.696969696969697"/>
      <point x="117.0909090909091" y="49.21212121212122" type="curve" smooth="yes"/>
      <point x="117.0909090909091" y="71.3939393939394"/>
      <point x="103.54545454545455" y="81.72727272727272"/>
      <point x="86.30303030303031" y="81.72727272727272" type="curve" smooth="yes"/>
      <point x="63.54545454545455" y="81.72727272727272"/>
      <point x="43.45454545454545" y="60.66666666666667"/>
      <point x="43.45454545454545" y="25.727272727272727" type="curve" smooth="yes"/>
      <point x="43.45454545454545" y="2.5454545454545467"/>
      <point x="56.21212121212122" y="-8.787878787878787"/>
    </contour>
  </outline>
</glyph>
<glyph name="quotedbl" format="2">
  <advance width="307.1515151515151"/>
  <unicode hex="0022"/>
  <outline>
    <contour>
      <point x="105.78787878787878" y="494.75757575757575" type="line"/>
      <point x="131.3030303030303" y="494.75757575757575" type="line"/>
      <point x="188.45454545454544" y="714.0" type="line"/>
      <point x="142.33333333333334" y="714.0" type="line"/>
    </contour>
    <contour>
      <point x="248.0909090909091" y="494.75757575757575" type="line"/>
      <point x="273.6060606060606" y="494.75757575757575" type="line"/>
      <point x="330.75757575757575" y="714.0" type="line"/>
      <point x="284.6363636363636" y="714.0" type="line"/>
    </contour>
  </outline>
</glyph>
<glyph name="numbersign" format="2">
  <advance width="559.0"/>
  <unicode hex="0023"/>
  <outline>
    <contour>
      <point x="69.39393939393939" y="0.0" type="line"/>
      <point x="104.18181818181819" y="0.0" type="line"/>
      <point x="167.12121212121212" y="215.6060606060606" type="line"/>
      <point x="347.8787878787879" y="215.6060606060606" type="line"/>
      <point x="284.93939393939394" y="0.0" type="line"/>
      <point x="319.72727272727275" y="0.0" type="line"/>
      <point x="382.6666666666667" y="215.6060606060606" type="line"/>
      <point x="499.72727272727275" y="215.6060606060606" type="line"/>
      <point x="505.1515151515151" y="247.8181818181818" type="line"/>
      <point x="392.2121212121212" y="247.8181818181818" type="line"/>
      <point x="459.45454545454544" y="477.6969696969697" type="line"/>
      <point x="572.6969696969697" y="477.6969696969697" type="line"/>
      <point x="577.9090909090909" y="509.90909090909093" type="line"/>
      <point x="469.3636363636364" y="509.90909090909093" type="line"/>
      <point x="528.939393939394" y="714.0" type="line"/>
      <point x="494.1515151515151" y="714.0" type="line"/>
      <point x="434.57575757575756" y="509.90909090909093" type="line"/>
      <point x="253.8181818181818" y="509.90909090909093" type="line"/>
      <point x="313.3939393939394" y="714.0" type="line"/>
      <point x="278.3939393939394" y="714.0" type="line"/>
      <point x="219.03030303030303" y="509.90909090909093" type="line"/>
      <point x="99.81818181818181" y="509.90909090909093" type="line"/>
      <point x="94.60606060606061" y="477.6969696969697" type="line"/>
      <point x="209.12121212121212" y="477.6969696969697" type="line"/>
      <point x="141.66666666666666" y="247.8181818181818" type="line"/>
      <point x="26.848484848484848" y="247.8181818181818" type="line"/>
      <point x="21.424242424242426" y="215.6060606060606" type="line"/>
      <point x="132.33333333333334" y="215.6060606060606" type="line"/>
    </contour>
    <contour>
      <point x="176.66666666666666" y="247.8181818181818" type="line"/>
      <point x="243.9090909090909" y="477.6969696969697" type="line"/>
      <point x="424.6666666666667" y="477.6969696969697" type="line"/>
      <point x="357.42424242424244" y="247.8181818181818" type="line"/>
    </contour>
  </outline>
</glyph>
<glyph name="percent" format="2">
  <advance width="851.8787878787879"/>
  <unicode hex="0025"/>
  <outline>
    <contour>
      <point x="169.36363636363637" y="0.0" type="line"/>
      <point x="207.12121212121212" y="0.0" type="line"/>
      <point x="697.2424242424242" y="714.0" type="line"/>
      <point x="660.3333333333334" y="714.0" type="line"/>
    </contour>
    <contour>
      <point x="184.75757575757575" y="282.57575757575756" type="curve" smooth="yes"/>
      <point x="312.4848484848485" y="282.57575757575756"/>
      <point x="368.030303030303" y="454.4848484848485"/>
      <point x="368.030303030303" y="560.8484848484849" type="curve" smooth="yes"/>
      <point x="368.030303030303" y="656.6363636363636"/>
      <point x="331.969696969697" y="721.4242424242424"/>
      <point x="254.72727272727272" y="721.4242424242424" type="curve" smooth="yes"/>
      <point x="125.27272727272728" y="721.4242424242424"/>
      <point x="67.57575757575758" y="551.0"/>
      <point x="67.57575757575758" y="445.5151515151515" type="curve"/>
      <point x="67.57575757575758" y="337.5151515151515"/>
      <point x="112.06060606060606" y="282.57575757575756"/>
    </contour>
    <contour>
      <point x="185.6060606060606" y="310.1818181818182" type="curve" smooth="yes"/>
      <point x="133.0" y="310.1818181818182"/>
      <point x="105.60606060606061" y="354.4848484848485"/>
      <point x="105.60606060606061" y="442.3333333333333" type="curve" smooth="yes"/>
      <point x="105.60606060606061" y="527.969696969697"/>
      <point x="152.54545454545456" y="694.030303030303"/>
      <point x="253.87878787878788" y="694.030303030303" type="curve" smooth="yes"/>
      <point x="300.1818181818182" y="694.030303030303"/>
      <point x="329.1515151515151" y="650.5151515151515"/>
      <point x="329.1515151515151" y="564.2424242424242" type="curve" smooth="yes"/>
      <point x="329.1515151515151" y="476.24242424242425"/>
      <point x="284.57575757575756" y="310.1818181818182"/>
    </contour>
    <contour>
      <point x="619.6666666666666" y="-6.424242424242424" type="curve" smooth="yes"/>
      <point x="745.8181818181819" y="-6.424242424242424"/>
      <point x="801.3636363636364" y="165.4848484848485"/>
      <point x="801.3636363636364" y="271.8484848484849" type="curve" smooth="yes"/>
      <point x="801.3636363636364" y="367.6363636363636"/>
      <point x="765.3030303030303" y="432.42424242424244"/>
      <point x="688.060606060606" y="432.42424242424244" type="curve" smooth="yes"/>
      <point x="558.6060606060606" y="432.42424242424244"/>
      <point x="500.90909090909093" y="262.0"/>
      <point x="500.90909090909093" y="156.5151515151515" type="curve"/>
      <point x="500.90909090909093" y="50.878787878787875"/>
      <point x="543.8181818181819" y="-6.424242424242424"/>
    </contour>
    <contour>
      <point x="620.5151515151515" y="21.18181818181818" type="curve" smooth="yes"/>
      <point x="566.3333333333334" y="21.18181818181818"/>
      <point x="538.939393939394" y="65.48484848484848"/>
      <point x="538.939393939394" y="153.33333333333334" type="curve" smooth="yes"/>
      <point x="538.939393939394" y="238.96969696969697"/>
      <point x="581.939393939394" y="405.030303030303"/>
      <point x="687.2121212121212" y="405.030303030303" type="curve" smooth="yes"/>
      <point x="733.5151515151515" y="405.030303030303"/>
      <point x="762.4848484848485" y="361.5151515151515"/>
      <point x="762.4848484848485" y="275.24242424242425" type="curve" smooth="yes"/>
      <point x="762.4848484848485" y="187.24242424242425"/>
      <point x="717.9090909090909" y="21.18181818181818"/>
    </contour>
  </outline>
</glyph>
<glyph name="quotesingle" format="2">
  <advance width="149.87878787878788"/>
  <unicode hex="0027"/>
  <outline>
    <contour>
      <point x="100.21212121212122" y="519.1818181818181" type="line"/>
      <point x="125.72727272727272" y="519.1818181818181" type="line"/>
      <point x="177.36363636363637" y="714.0" type="line"/>
      <point x="131.24242424242425" y="714.0" type="line"/>
    </contour>
  </outline>
</glyph>
<glyph name="parenleft" format="2">
  <advance width="291.6363636363636"/>
  <unicode hex="0028"/>
  <outline>
    <contour>
      <point x="167.78787878787878" y="-116.96969696969697" type="curve"/>
      <point x="174.63636363636363" y="-87.51515151515152" type="line"/>
      <point x="110.93939393939394" y="-36.15151515151515"/>
      <point x="84.0" y="75.27272727272728"/>
      <point x="84.0" y="187.06060606060606" type="curve" smooth="yes"/>
      <point x="84.0" y="368.3939393939394"/>
      <point x="162.57575757575756" y="625.4242424242424"/>
      <point x="348.3636363636364" y="718.1515151515151" type="curve"/>
      <point x="355.2121212121212" y="747.3939393939394" type="line"/>
      <point x="134.21212121212122" y="664.2727272727273"/>
      <point x="42.0" y="408.5151515151515"/>
      <point x="42.0" y="196.24242424242425" type="curve" smooth="yes"/>
      <point x="42.0" y="51.72727272727273"/>
      <point x="79.81818181818181" y="-61.39393939393939"/>
    </contour>
  </outline>
</glyph>
<glyph name="parenright" format="2">
  <advance width="291.6363636363636"/>
  <unicode hex="0029"/>
  <outline>
    <contour>
      <point x="-56.09090909090909" y="-118.66666666666667" type="line"/>
      <point x="164.9090909090909" y="-35.54545454545455"/>
      <point x="257.1212121212121" y="220.21212121212122"/>
      <point x="257.1212121212121" y="432.4848484848485" type="curve" smooth="yes"/>
      <point x="257.1212121212121" y="577.0"/>
      <point x="219.3030303030303" y="690.1212121212121"/>
      <point x="131.33333333333334" y="745.6969696969697" type="curve"/>
      <point x="124.48484848484848" y="716.2424242424242" type="line"/>
      <point x="188.1818181818182" y="664.8787878787879"/>
      <point x="215.12121212121212" y="553.4545454545455"/>
      <point x="215.12121212121212" y="441.6666666666667" type="curve" smooth="yes"/>
      <point x="215.12121212121212" y="260.33333333333337"/>
      <point x="136.54545454545456" y="3.3030303030303045"/>
      <point x="-49.24242424242424" y="-89.42424242424242" type="curve"/>
    </contour>
  </outline>
</glyph>
<glyph name="asterisk" format="2">
  <advance width="410.1818181818182"/>
  <unicode hex="002A"/>
  <outline>
    <contour>
      <point x="259.3030303030303" y="376.1515151515151" type="line"/>
      <point x="278.6969696969697" y="547.969696969697" type="line"/>
      <point x="396.5151515151515" y="434.42424242424244" type="line"/>
      <point x="426.030303030303" y="474.8484848484849" type="line"/>
      <point x="284.42424242424244" y="566.5151515151515" type="line"/>
      <point x="451.75757575757575" y="592.1212121212121" type="line"/>
      <point x="440.8484848484849" y="643.8181818181819" type="line"/>
      <point x="286.3939393939394" y="585.3939393939394" type="line"/>
      <point x="336.93939393939394" y="750.1515151515151" type="line"/>
      <point x="285.8181818181818" y="761.060606060606" type="line"/>
      <point x="266.7878787878788" y="589.8181818181819" type="line"/>
      <point x="150.1818181818182" y="707.3636363636364" type="line"/>
      <point x="118.0909090909091" y="664.1515151515151" type="line"/>
      <point x="258.6969696969697" y="571.4848484848485" type="line"/>
      <point x="92.36363636363636" y="544.8787878787879" type="line"/>
      <point x="104.84848484848484" y="494.75757575757575" type="line"/>
      <point x="257.5151515151515" y="552.6060606060606" type="line"/>
      <point x="206.60606060606062" y="387.8484848484849" type="line"/>
    </contour>
  </outline>
</glyph>
<glyph name="comma" format="2">
  <advance width="195.63636363636363"/>
  <unicode hex="002C"/>
  <outline>
    <contour>
      <point x="-42.96969696969697" y="-141.27272727272728" type="line"/>
      <point x="56.60606060606061" y="-117.06060606060606"/>
      <point x="84.45454545454545" y="-51.303030303030305"/>
      <point x="84.45454545454545" y="21.575757575757578" type="curve" smooth="yes"/>
      <point x="84.45454545454545" y="60.96969696969697"/>
      <point x="65.78787878787878" y="84.66666666666667"/>
      <point x="41.121212121212125" y="84.66666666666667" type="curve" smooth="yes"/>
      <point x="18.151515151515152" y="84.66666666666667"/>
      <point x="4.333333333333334" y="69.3939393939394"/>
      <point x="4.333333333333334" y="47.72727272727273" type="curve" smooth="yes"/>
      <point x="4.333333333333334" y="12.06060606060606"/>
      <point x="45.696969696969695" y="12.848484848484848"/>
      <point x="45.696969696969695" y="-21.575757575757574" type="curve" smooth="yes"/>
      <point x="45.696969696969695" y="-61.57575757575758"/>
      <point x="18.575757575757578" y="-99.24242424242425"/>
      <point x="-44.484848484848484" y="-116.60606060606061" type="curve"/>
    </contour>
  </outline>
</glyph>
<glyph name="hyphen" format="2">
  <advance width="310.0"/>
  <unicode hex="002D"/>
  <outline>
    <contour>
      <point x="21.09090909090909" y="259.42424242424244" type="line"/>
      <point x="281.09090909090907" y="259.42424242424244" type="line"/>
      <point x="288.42424242424244" y="295.8181818181818" type="line"/>
      <point x="28.424242424242426" y="295.8181818181818" type="line"/>
    </contour>
  </outline>
</glyph>
<glyph name="period" format="2">
  <advance width="195.63636363636363"/>
  <unicode hex="002E"/>
  <outline>
    <contour>
      <point x="41.03030303030303" y="-5.636363636363637" type="curve" smooth="yes"/>
      <point x="61.484848484848484" y="-5.636363636363637"/>
      <point x="82.30303030303031" y="10.696969696969697"/>
      <point x="82.30303030303031" y="53.21212121212122" type="curve" smooth="yes"/>
      <point x="82.30303030303031" y="74.54545454545455"/>
      <point x="68.75757575757575" y="84.87878787878788"/>
      <point x="51.515151515151516" y="84.87878787878788" type="curve" smooth="yes"/>
      <point x="29.545454545454547" y="84.87878787878788"/>
      <point x="8.666666666666668" y="65.3939393939394"/>
      <point x="8.666666666666668" y="28.03030303030303" type="curve" smooth="yes"/>
      <point x="8.666666666666668" y="5.696969696969697"/>
      <point x="21.424242424242426" y="-5.636363636363637"/>
    </contour>
  </outline>
</glyph>
<glyph name="zero" format="2">
  <advance width="521.1818181818182"/>
  <unicode hex="0030"/>
  <outline>
    <contour>
      <point x="207.78787878787878" y="-11.0" type="curve" smooth="yes"/>
      <point x="427.3939393939394" y="-11.0"/>
      <point x="500.06060606060606" y="285.3333333333333"/>
      <point x="500.06060606060606" y="491.27272727272725" type="curve" smooth="yes"/>
      <point x="500.06060606060606" y="660.5151515151515"/>
      <point x="426.3030303030303" y="723.4242424242424"/>
      <point x="332.1212121212121" y="723.4242424242424" type="curve" smooth="yes"/>
      <point x="123.75757575757575" y="723.4242424242424"/>
      <point x="40.78787878787879" y="422.24242424242425"/>
      <point x="40.78787878787879" y="221.54545454545456" type="curve" smooth="yes"/>
      <point x="40.78787878787879" y="67.48484848484848"/>
      <point x="104.60606060606061" y="-11.0"/>
    </contour>
    <contour>
      <point x="213.42424242424244" y="20.363636363636363" type="curve" smooth="yes"/>
      <point x="132.0909090909091" y="20.363636363636363"/>
      <point x="83.42424242424244" y="83.12121212121212"/>
      <point x="83.42424242424244" y="216.96969696969697" type="curve" smooth="yes"/>
      <point x="83.42424242424244" y="394.3333333333333"/>
      <point x="150.03030303030303" y="692.2727272727273"/>
      <point x="329.2121212121212" y="692.2727272727273" type="curve" smooth="yes"/>
      <point x="403.8787878787879" y="692.2727272727273"/>
      <point x="457.42424242424244" y="639.7575757575758"/>
      <point x="457.42424242424244" y="491.3636363636364" type="curve" smooth="yes"/>
      <point x="457.42424242424244" y="309.8484848484849"/>
      <point x="394.3939393939394" y="20.363636363636363"/>
    </contour>
  </outline>
</glyph>
<glyph name="one" format="2">
  <advance width="521.1818181818182"/>
  <unicode hex="0031"/>
  <outline>
    <contour>
      <point x="39.57575757575758" y="0.0" type="line"/>
      <point x="363.5151515151515" y="0.0" type="line"/>
      <point x="369.3636363636364" y="24.666666666666668" type="line"/>
      <point x="287.0" y="24.666666666666668" type="line" smooth="yes"/>
      <point x="248.15151515151516" y="24.666666666666668"/>
      <point x="236.27272727272728" y="29.090909090909093"/>
      <point x="236.27272727272728" y="49.696969696969695" type="curve" smooth="yes"/>
      <point x="236.27272727272728" y="60.42424242424242"/>
      <point x="238.27272727272728" y="72.84848484848484"/>
      <point x="241.06060606060606" y="86.36363636363636" type="curve" smooth="yes"/>
      <point x="374.7878787878788" y="718.0" type="line"/>
      <point x="354.90909090909093" y="718.0" type="line"/>
      <point x="287.3030303030303" y="673.8787878787879" type="line" smooth="yes"/>
      <point x="211.3030303030303" y="624.0909090909091"/>
      <point x="175.6060606060606" y="608.0909090909091"/>
      <point x="129.6060606060606" y="597.6666666666666" type="curve"/>
      <point x="129.6060606060606" y="582.4242424242424"/>
      <point x="134.5151515151515" y="571.2424242424242"/>
      <point x="157.78787878787878" y="571.2424242424242" type="curve" smooth="yes"/>
      <point x="192.12121212121212" y="571.2424242424242"/>
      <point x="241.78787878787878" y="605.5151515151515"/>
      <point x="322.969696969697" y="670.5151515151515" type="curve"/>
      <point x="324.6060606060606" y="670.5151515151515" type="line"/>
      <point x="316.3333333333333" y="637.4242424242424"/>
      <point x="304.1212121212121" y="586.7878787878788"/>
      <point x="282.09090909090907" y="482.0" type="curve" smooth="yes"/>
      <point x="197.78787878787878" y="87.21212121212122" type="line" smooth="yes"/>
      <point x="185.57575757575756" y="28.93939393939394"/>
      <point x="171.57575757575756" y="24.666666666666668"/>
      <point x="115.54545454545455" y="24.666666666666668" type="curve" smooth="yes"/>
      <point x="45.21212121212121" y="24.666666666666668" type="line"/>
    </contour>
  </outline>
</glyph>
<glyph name="two" format="2">
  <advance width="521.1818181818182"/>
  <unicode hex="0032"/>
  <outline>
    <contour>
      <point x="-4.3939393939393945" y="0.0" type="line"/>
      <point x="388.42424242424244" y="0.0" type="line"/>
      <point x="418.969696969697" y="138.6969696969697" type="line"/>
      <point x="394.3030303030303" y="138.6969696969697" type="line"/>
      <point x="382.57575757575756" y="97.48484848484848" type="line" smooth="yes"/>
      <point x="367.93939393939394" y="49.24242424242425"/>
      <point x="358.75757575757575" y="36.66666666666667"/>
      <point x="301.6969696969697" y="36.66666666666667" type="curve" smooth="yes"/>
      <point x="42.121212121212125" y="36.66666666666667" type="line"/>
      <point x="278.1515151515151" y="256.7878787878788" type="line" smooth="yes"/>
      <point x="414.72727272727275" y="384.3030303030303"/>
      <point x="471.969696969697" y="466.0909090909091"/>
      <point x="471.969696969697" y="571.6969696969697" type="curve" smooth="yes"/>
      <point x="471.969696969697" y="664.8484848484849"/>
      <point x="407.969696969697" y="724.0"/>
      <point x="301.0909090909091" y="724.0" type="curve" smooth="yes"/>
      <point x="178.63636363636363" y="724.0"/>
      <point x="113.81818181818181" y="645.7575757575758"/>
      <point x="113.81818181818181" y="586.2121212121212" type="curve" smooth="yes"/>
      <point x="113.81818181818181" y="564.060606060606"/>
      <point x="126.48484848484848" y="553.7272727272727"/>
      <point x="148.57575757575756" y="553.7272727272727" type="curve"/>
      <point x="151.33333333333334" y="628.2121212121212"/>
      <point x="201.42424242424244" y="693.6969696969697"/>
      <point x="300.030303030303" y="693.6969696969697" type="curve" smooth="yes"/>
      <point x="378.72727272727275" y="693.6969696969697"/>
      <point x="428.27272727272725" y="646.3939393939394"/>
      <point x="428.27272727272725" y="570.6363636363636" type="curve" smooth="yes"/>
      <point x="428.27272727272725" y="467.3030303030303"/>
      <point x="374.7878787878788" y="389.57575757575756"/>
      <point x="250.8181818181818" y="273.3030303030303" type="curve" smooth="yes"/>
      <point x="7.151515151515151" y="44.75757575757576" type="line"/>
    </contour>
  </outline>
</glyph>
<glyph name="three" format="2">
  <advance width="521.1818181818182"/>
  <unicode hex="0033"/>
  <outline>
    <contour>
      <point x="187.84848484848484" y="-10.0" type="curve" smooth="yes"/>
      <point x="325.24242424242425" y="-10.0"/>
      <point x="422.6666666666667" y="65.33333333333333"/>
      <point x="422.6666666666667" y="225.0" type="curve" smooth="yes"/>
      <point x="422.6666666666667" y="312.57575757575756"/>
      <point x="359.1515151515151" y="368.3636363636364"/>
      <point x="287.6363636363636" y="375.2121212121212" type="curve"/>
      <point x="412.1818181818182" y="390.54545454545456"/>
      <point x="473.6666666666667" y="473.030303030303"/>
      <point x="473.6666666666667" y="573.1212121212121" type="curve" smooth="yes"/>
      <point x="473.6666666666667" y="664.1212121212121"/>
      <point x="404.3939393939394" y="724.0"/>
      <point x="307.0" y="724.0" type="curve" smooth="yes"/>
      <point x="192.0909090909091" y="724.0"/>
      <point x="117.72727272727272" y="652.0909090909091"/>
      <point x="117.72727272727272" y="576.3939393939394" type="curve" smooth="yes"/>
      <point x="117.72727272727272" y="547.8787878787879"/>
      <point x="134.75757575757575" y="536.030303030303"/>
      <point x="153.9090909090909" y="536.030303030303" type="curve"/>
      <point x="157.5151515151515" y="617.3939393939394"/>
      <point x="194.66666666666669" y="693.6969696969697"/>
      <point x="305.3636363636364" y="693.6969696969697" type="curve" smooth="yes"/>
      <point x="384.8484848484849" y="693.6969696969697"/>
      <point x="429.75757575757575" y="641.5151515151515"/>
      <point x="429.75757575757575" y="572.7575757575758" type="curve" smooth="yes"/>
      <point x="429.75757575757575" y="455.8181818181818"/>
      <point x="339.6666666666667" y="390.27272727272725"/>
      <point x="226.87878787878788" y="390.27272727272725" type="curve" smooth="yes"/>
      <point x="194.87878787878788" y="390.27272727272725" type="line"/>
      <point x="186.45454545454544" y="359.75757575757575" type="line"/>
      <point x="227.87878787878788" y="359.75757575757575" type="line" smooth="yes"/>
      <point x="322.3939393939394" y="359.75757575757575"/>
      <point x="378.3333333333333" y="301.5151515151515"/>
      <point x="378.3333333333333" y="221.87878787878788" type="curve" smooth="yes"/>
      <point x="378.3333333333333" y="86.24242424242425"/>
      <point x="301.969696969697" y="21.363636363636363"/>
      <point x="190.9090909090909" y="21.363636363636363" type="curve" smooth="yes"/>
      <point x="87.51515151515152" y="21.363636363636363"/>
      <point x="42.27272727272727" y="70.18181818181819"/>
      <point x="42.27272727272727" y="142.21212121212122" type="curve"/>
      <point x="19.96969696969697" y="142.21212121212122"/>
      <point x="6.454545454545453" y="126.24242424242425"/>
      <point x="6.454545454545453" y="105.24242424242425" type="curve" smooth="yes"/>
      <point x="6.454545454545453" y="46.303030303030305"/>
      <point x="59.03030303030303" y="-10.0"/>
    </contour>
  </outline>
</glyph>
<glyph name="four" format="2">
  <advance width="521.1818181818182"/>
  <unicode hex="0034"/>
  <outline>
    <contour>
      <point x="126.42424242424242" y="0.0" type="line"/>
      <point x="425.8484848484849" y="0.0" type="line"/>
      <point x="431.6969696969697" y="24.666666666666668" type="line"/>
      <point x="378.75757575757575" y="24.666666666666668" type="line" smooth="yes"/>
      <point x="335.1818181818182" y="24.666666666666668"/>
      <point x="324.0909090909091" y="28.303030303030305"/>
      <point x="324.0909090909091" y="56.78787878787879" type="curve" smooth="yes"/>
      <point x="324.0909090909091" y="62.78787878787879"/>
      <point x="326.0909090909091" y="76.78787878787878"/>
      <point x="328.8787878787879" y="89.51515151515152" type="curve" smooth="yes"/>
      <point x="460.8181818181818" y="714.0" type="line"/>
      <point x="410.5151515151515" y="714.0" type="line"/>
      <point x="13.909090909090907" y="232.27272727272728" type="line"/>
      <point x="8.848484848484848" y="210.1818181818182" type="line"/>
      <point x="481.6969696969697" y="210.1818181818182" type="line"/>
      <point x="488.1818181818182" y="241.75757575757575" type="line"/>
      <point x="55.27272727272727" y="241.75757575757575" type="line"/>
      <point x="58.45454545454545" y="237.4848484848485" type="line"/>
      <point x="325.6969696969697" y="566.060606060606" type="line" smooth="yes"/>
      <point x="356.93939393939394" y="605.030303030303"/>
      <point x="399.57575757575756" y="656.5151515151515"/>
      <point x="415.27272727272725" y="679.4848484848485" type="curve"/>
      <point x="397.8484848484849" y="617.4848484848485"/>
      <point x="385.3636363636364" y="558.4545454545455"/>
      <point x="371.0" y="491.7878787878788" type="curve" smooth="yes"/>
      <point x="286.6666666666667" y="90.36363636363636" type="line" smooth="yes"/>
      <point x="274.45454545454544" y="31.303030303030305"/>
      <point x="262.030303030303" y="24.666666666666668"/>
      <point x="210.72727272727272" y="24.666666666666668" type="curve" smooth="yes"/>
      <point x="132.06060606060606" y="24.666666666666668" type="line"/>
    </contour>
  </outline>
</glyph>
<glyph name="five" format="2">
  <advance width="521.1818181818182"/>
  <unicode hex="0035"/>
  <outline>
    <contour>
      <point x="194.8181818181818" y="-10.0" type="curve" smooth="yes"/>
      <point x="348.1818181818182" y="-10.0"/>
      <point x="436.27272727272725" y="97.42424242424242"/>
      <point x="436.27272727272725" y="238.27272727272728" type="curve" smooth="yes"/>
      <point x="436.27272727272725" y="355.6969696969697"/>
      <point x="359.0" y="420.6969696969697"/>
      <point x="249.12121212121212" y="420.6969696969697" type="curve" smooth="yes"/>
      <point x="208.84848484848484" y="420.6969696969697"/>
      <point x="177.4848484848485" y="411.6969696969697"/>
      <point x="157.06060606060606" y="404.6969696969697" type="curve"/>
      <point x="240.3939393939394" y="677.3333333333334" type="line"/>
      <point x="416.27272727272725" y="677.3333333333334" type="line" smooth="yes"/>
      <point x="454.6363636363636" y="677.3333333333334"/>
      <point x="459.1212121212121" y="672.8484848484849"/>
      <point x="459.1212121212121" y="654.9090909090909" type="curve" smooth="yes"/>
      <point x="459.1212121212121" y="646.9090909090909"/>
      <point x="457.1212121212121" y="626.4848484848485"/>
      <point x="453.75757575757575" y="595.3030303030303" type="curve"/>
      <point x="478.42424242424244" y="595.3030303030303" type="line"/>
      <point x="503.8484848484849" y="714.0" type="line"/>
      <point x="219.4848484848485" y="714.0" type="line"/>
      <point x="116.42424242424242" y="377.4848484848485" type="line"/>
      <point x="131.5151515151515" y="367.3333333333333" type="line"/>
      <point x="162.66666666666666" y="378.3333333333333"/>
      <point x="188.72727272727272" y="389.3333333333333"/>
      <point x="242.87878787878788" y="389.3333333333333" type="curve" smooth="yes"/>
      <point x="336.3636363636364" y="389.3333333333333"/>
      <point x="392.1515151515151" y="327.7878787878788"/>
      <point x="392.1515151515151" y="236.78787878787878" type="curve" smooth="yes"/>
      <point x="392.1515151515151" y="97.96969696969697"/>
      <point x="307.3939393939394" y="21.363636363636363"/>
      <point x="195.93939393939394" y="21.363636363636363" type="curve" smooth="yes"/>
      <point x="103.63636363636364" y="21.363636363636363"/>
      <point x="61.151515151515156" y="80.51515151515152"/>
      <point x="60.151515151515156" y="148.84848484848484" type="curve"/>
      <point x="35.72727272727273" y="148.84848484848484"/>
      <point x="24.545454545454543" y="135.66666666666666"/>
      <point x="24.545454545454543" y="114.42424242424242" type="curve" smooth="yes"/>
      <point x="24.545454545454543" y="61.78787878787878"/>
      <point x="74.48484848484848" y="-10.0"/>
    </contour>
  </outline>
</glyph>
<glyph name="six" format="2">
  <advance width="521.1818181818182"/>
  <unicode hex="0036"/>
  <outline>
    <contour>
      <point x="240.9090909090909" y="-10.0" type="curve" smooth="yes"/>
      <point x="385.42424242424244" y="-10.0"/>
      <point x="456.54545454545456" y="118.42424242424242"/>
      <point x="456.54545454545456" y="257.42424242424244" type="curve" smooth="yes"/>
      <point x="456.54545454545456" y="350.8484848484849"/>
      <point x="400.3939393939394" y="429.27272727272725"/>
      <point x="290.6969696969697" y="429.27272727272725" type="curve" smooth="yes"/>
      <point x="223.54545454545456" y="429.27272727272725"/>
      <point x="165.03030303030303" y="403.0"/>
      <point x="124.78787878787878" y="367.8181818181818" type="curve"/>
      <point x="158.60606060606062" y="559.2424242424242"/>
      <point x="266.90909090909093" y="694.1212121212121"/>
      <point x="383.45454545454544" y="694.1212121212121" type="curve" smooth="yes"/>
      <point x="456.27272727272725" y="694.1212121212121"/>
      <point x="477.45454545454544" y="645.5757575757576"/>
      <point x="477.45454545454544" y="585.0" type="curve"/>
      <point x="504.8787878787879" y="585.0"/>
      <point x="517.1818181818182" y="603.5454545454545"/>
      <point x="517.1818181818182" y="622.969696969697" type="curve" smooth="yes"/>
      <point x="517.1818181818182" y="672.5454545454545"/>
      <point x="472.27272727272725" y="724.0"/>
      <point x="388.6060606060606" y="724.0" type="curve" smooth="yes"/>
      <point x="209.6969696969697" y="724.0"/>
      <point x="67.87878787878788" y="512.5151515151515"/>
      <point x="67.87878787878788" y="225.6969696969697" type="curve" smooth="yes"/>
      <point x="67.87878787878788" y="68.42424242424242"/>
      <point x="137.6969696969697" y="-10.0"/>
    </contour>
    <contour>
      <point x="242.96969696969697" y="21.363636363636363" type="curve" smooth="yes"/>
      <point x="160.27272727272728" y="21.363636363636363"/>
      <point x="109.24242424242425" y="87.84848484848484"/>
      <point x="109.24242424242425" y="217.84848484848484" type="curve" smooth="yes"/>
      <point x="109.24242424242425" y="249.54545454545453"/>
      <point x="111.0909090909091" y="285.8181818181818"/>
      <point x="119.30303030303031" y="330.5151515151515" type="curve"/>
      <point x="169.63636363636363" y="375.06060606060606"/>
      <point x="228.15151515151516" y="398.75757575757575"/>
      <point x="286.45454545454544" y="398.75757575757575" type="curve" smooth="yes"/>
      <point x="362.0" y="398.75757575757575"/>
      <point x="413.4848484848485" y="343.3030303030303"/>
      <point x="413.4848484848485" y="254.57575757575756" type="curve" smooth="yes"/>
      <point x="413.4848484848485" y="133.42424242424244"/>
      <point x="350.3939393939394" y="21.363636363636363"/>
    </contour>
  </outline>
</glyph>
<glyph name="seven" format="2">
  <advance width="521.1818181818182"/>
  <unicode hex="0037"/>
  <outline>
    <contour>
      <point x="136.36363636363637" y="0.0" type="line"/>
      <point x="175.12121212121212" y="0.0" type="line"/>
      <point x="536.1818181818182" y="690.5151515151515" type="line"/>
      <point x="541.3939393939394" y="714.0" type="line"/>
      <point x="139.3030303030303" y="714.0" type="line"/>
      <point x="99.45454545454545" y="561.3636363636364" type="line"/>
      <point x="124.12121212121212" y="561.3636363636364" type="line"/>
      <point x="142.84848484848484" y="624.7575757575758" type="line" smooth="yes"/>
      <point x="156.57575757575756" y="671.1515151515151"/>
      <point x="164.8181818181818" y="677.3333333333334"/>
      <point x="207.12121212121212" y="677.3333333333334" type="curve" smooth="yes"/>
      <point x="494.54545454545456" y="677.3333333333334" type="line"/>
    </contour>
  </outline>
</glyph>
<glyph name="eight" format="2">
  <advance width="521.1818181818182"/>
  <unicode hex="0038"/>
  <outline>
    <contour>
      <point x="230.42424242424244" y="-10.0" type="curve" smooth="yes"/>
      <point x="349.93939393939394" y="-10.0"/>
      <point x="456.8484848484849" y="50.484848484848484"/>
      <point x="456.8484848484849" y="187.03030303030303" type="curve" smooth="yes"/>
      <point x="456.8484848484849" y="275.1212121212121"/>
      <point x="408.7878787878788" y="330.6969696969697"/>
      <point x="309.3636363636364" y="378.6363636363636" type="curve"/>
      <point x="431.90909090909093" y="418.6969696969697"/>
      <point x="507.0" y="477.0"/>
      <point x="507.0" y="578.0" type="curve" smooth="yes"/>
      <point x="507.0" y="659.6363636363636"/>
      <point x="444.1515151515151" y="724.0"/>
      <point x="328.5151515151515" y="724.0" type="curve" smooth="yes"/>
      <point x="186.87878787878788" y="724.0"/>
      <point x="116.3030303030303" y="638.2121212121212"/>
      <point x="116.3030303030303" y="545.969696969697" type="curve" smooth="yes"/>
      <point x="116.3030303030303" y="475.8787878787879"/>
      <point x="153.3030303030303" y="426.1212121212121"/>
      <point x="233.21212121212122" y="379.1818181818182" type="curve"/>
      <point x="112.48484848484848" y="336.1818181818182"/>
      <point x="20.242424242424242" y="266.1212121212121"/>
      <point x="20.242424242424242" y="154.12121212121212" type="curve" smooth="yes"/>
      <point x="20.242424242424242" y="59.63636363636364"/>
      <point x="93.36363636363636" y="-10.0"/>
    </contour>
    <contour>
      <point x="231.06060606060606" y="20.090909090909093" type="curve" smooth="yes"/>
      <point x="120.12121212121212" y="20.090909090909093"/>
      <point x="62.66666666666667" y="74.18181818181819"/>
      <point x="62.66666666666667" y="154.4848484848485" type="curve" smooth="yes"/>
      <point x="62.66666666666667" y="254.93939393939394"/>
      <point x="149.6060606060606" y="326.27272727272725"/>
      <point x="263.45454545454544" y="361.8484848484849" type="curve"/>
      <point x="370.2121212121212" y="312.6969696969697"/>
      <point x="414.6363636363636" y="267.3333333333333"/>
      <point x="414.6363636363636" y="180.36363636363637" type="curve" smooth="yes"/>
      <point x="414.6363636363636" y="73.96969696969697"/>
      <point x="338.1212121212121" y="20.090909090909093"/>
    </contour>
    <contour>
      <point x="278.6969696969697" y="395.54545454545456" type="curve"/>
      <point x="191.93939393939394" y="440.6363636363636"/>
      <point x="158.72727272727272" y="483.42424242424244"/>
      <point x="158.72727272727272" y="548.3030303030303" type="curve" smooth="yes"/>
      <point x="158.72727272727272" y="630.8787878787879"/>
      <point x="226.12121212121212" y="693.6969696969697"/>
      <point x="326.030303030303" y="693.6969696969697" type="curve" smooth="yes"/>
      <point x="424.3939393939394" y="693.6969696969697"/>
      <point x="466.06060606060606" y="640.2424242424242"/>
      <point x="466.06060606060606" y="576.5151515151515" type="curve" smooth="yes"/>
      <point x="466.06060606060606" y="490.75757575757575"/>
      <point x="411.0" y="439.3333333333333"/>
    </contour>
  </outline>
</glyph>
<glyph name="nine" format="2">
  <advance width="521.1818181818182"/>
  <unicode hex="0039"/>
  <outline>
    <contour>
      <point x="192.33333333333334" y="-10.0" type="curve" smooth="yes"/>
      <point x="382.1515151515151" y="-10.0"/>
      <point x="488.4848484848485" y="281.3333333333333"/>
      <point x="488.4848484848485" y="515.1818181818181" type="curve" smooth="yes"/>
      <point x="488.4848484848485" y="646.6969696969697"/>
      <point x="416.6969696969697" y="724.0"/>
      <point x="312.57575757575756" y="724.0" type="curve" smooth="yes"/>
      <point x="179.8181818181818" y="724.0"/>
      <point x="79.3030303030303" y="623.7575757575758"/>
      <point x="79.3030303030303" y="456.75757575757575" type="curve" smooth="yes"/>
      <point x="79.3030303030303" y="359.75757575757575"/>
      <point x="141.87878787878788" y="286.8181818181818"/>
      <point x="251.45454545454544" y="286.8181818181818" type="curve" smooth="yes"/>
      <point x="321.45454545454544" y="286.8181818181818"/>
      <point x="390.93939393939394" y="326.9090909090909"/>
      <point x="428.8787878787879" y="368.2121212121212" type="curve"/>
      <point x="393.2121212121212" y="157.45454545454544"/>
      <point x="298.1818181818182" y="20.090909090909093"/>
      <point x="194.03030303030303" y="20.090909090909093" type="curve" smooth="yes"/>
      <point x="112.12121212121212" y="20.090909090909093"/>
      <point x="87.9090909090909" y="60.484848484848484"/>
      <point x="87.6969696969697" y="124.60606060606061" type="curve"/>
      <point x="64.87878787878788" y="124.60606060606061"/>
      <point x="53.90909090909091" y="109.84848484848484"/>
      <point x="53.90909090909091" y="87.87878787878788" type="curve" smooth="yes"/>
      <point x="53.90909090909091" y="43.09090909090909"/>
      <point x="82.75757575757575" y="-10.0"/>
    </contour>
    <contour>
      <point x="256.75757575757575" y="318.1818181818182" type="curve" smooth="yes"/>
      <point x="171.3939393939394" y="318.1818181818182"/>
      <point x="122.57575757575758" y="378.8181818181818"/>
      <point x="122.57575757575758" y="456.1212121212121" type="curve" smooth="yes"/>
      <point x="122.57575757575758" y="598.2727272727273"/>
      <point x="201.3939393939394" y="692.6363636363636"/>
      <point x="311.93939393939394" y="692.6363636363636" type="curve" smooth="yes"/>
      <point x="386.42424242424244" y="692.6363636363636"/>
      <point x="446.6969696969697" y="634.7272727272727"/>
      <point x="446.6969696969697" y="516.4545454545455" type="curve" smooth="yes"/>
      <point x="446.6969696969697" y="494.54545454545456"/>
      <point x="444.42424242424244" y="453.1515151515151"/>
      <point x="437.7878787878788" y="415.0" type="curve"/>
      <point x="401.4848484848485" y="370.8484848484849"/>
      <point x="335.1515151515151" y="318.1818181818182"/>
    </contour>
  </outline>
</glyph>
<glyph name="colon" format="2">
  <advance width="214.3030303030303"/>
  <unicode hex="003A"/>
  <outline>
    <contour>
      <point x="148.84848484848484" y="450.27272727272725" type="curve" smooth="yes"/>
      <point x="169.3030303030303" y="450.27272727272725"/>
      <point x="190.12121212121212" y="466.6060606060606"/>
      <point x="190.12121212121212" y="508.27272727272725" type="curve" smooth="yes"/>
      <point x="190.12121212121212" y="530.4545454545455"/>
      <point x="176.57575757575756" y="540.7878787878788"/>
      <point x="159.33333333333334" y="540.7878787878788" type="curve" smooth="yes"/>
      <point x="137.36363636363637" y="540.7878787878788"/>
      <point x="116.48484848484848" y="521.3030303030303"/>
      <point x="116.48484848484848" y="484.7878787878788" type="curve" smooth="yes"/>
      <point x="116.48484848484848" y="461.6060606060606"/>
      <point x="129.24242424242425" y="450.27272727272725"/>
    </contour>
    <contour>
      <point x="54.121212121212125" y="-5.636363636363637" type="curve" smooth="yes"/>
      <point x="74.57575757575758" y="-5.636363636363637"/>
      <point x="95.39393939393939" y="10.696969696969697"/>
      <point x="95.39393939393939" y="52.36363636363636" type="curve" smooth="yes"/>
      <point x="95.39393939393939" y="74.54545454545455"/>
      <point x="81.84848484848484" y="84.87878787878788"/>
      <point x="64.60606060606061" y="84.87878787878788" type="curve" smooth="yes"/>
      <point x="42.63636363636364" y="84.87878787878788"/>
      <point x="21.757575757575758" y="65.3939393939394"/>
      <point x="21.757575757575758" y="28.87878787878788" type="curve" smooth="yes"/>
      <point x="21.757575757575758" y="5.696969696969697"/>
      <point x="34.515151515151516" y="-5.636363636363637"/>
    </contour>
  </outline>
</glyph>
<glyph name="semicolon" format="2">
  <advance width="214.3030303030303"/>
  <unicode hex="003B"/>
  <outline>
    <contour>
      <point x="-38.72727272727273" y="-141.27272727272728" type="line"/>
      <point x="60.84848484848485" y="-117.06060606060606"/>
      <point x="88.6969696969697" y="-51.303030303030305"/>
      <point x="88.6969696969697" y="21.575757575757578" type="curve" smooth="yes"/>
      <point x="88.6969696969697" y="60.96969696969697"/>
      <point x="70.03030303030303" y="84.66666666666667"/>
      <point x="45.36363636363637" y="84.66666666666667" type="curve" smooth="yes"/>
      <point x="22.393939393939398" y="84.66666666666667"/>
      <point x="8.575757575757578" y="69.3939393939394"/>
      <point x="8.575757575757578" y="47.72727272727273" type="curve" smooth="yes"/>
      <point x="8.575757575757578" y="12.06060606060606"/>
      <point x="49.939393939393945" y="12.848484848484848"/>
      <point x="49.939393939393945" y="-21.575757575757574" type="curve" smooth="yes"/>
      <point x="49.939393939393945" y="-61.57575757575758"/>
      <point x="22.81818181818182" y="-99.24242424242425"/>
      <point x="-40.24242424242424" y="-116.60606060606061" type="curve"/>
    </contour>
    <contour>
      <point x="148.84848484848484" y="450.27272727272725" type="curve" smooth="yes"/>
      <point x="169.3030303030303" y="450.27272727272725"/>
      <point x="190.12121212121212" y="466.6060606060606"/>
      <point x="190.12121212121212" y="508.27272727272725" type="curve" smooth="yes"/>
      <point x="190.12121212121212" y="530.4545454545455"/>
      <point x="176.57575757575756" y="540.7878787878788"/>
      <point x="159.33333333333334" y="540.7878787878788" type="curve" smooth="yes"/>
      <point x="137.36363636363637" y="540.7878787878788"/>
      <point x="116.48484848484848" y="521.3030303030303"/>
      <point x="116.48484848484848" y="484.7878787878788" type="curve" smooth="yes"/>
      <point x="116.48484848484848" y="461.6060606060606"/>
      <point x="129.24242424242425" y="450.27272727272725"/>
    </contour>
  </outline>
</glyph>
<glyph name="equal" format="2">
  <advance width="559.0"/>
  <unicode hex="003D"/>
  <outline>
    <contour>
      <point x="66.57575757575758" y="445.6969696969697" type="line"/>
      <point x="490.8484848484849" y="445.6969696969697" type="line"/>
      <point x="490.8484848484849" y="480.27272727272725" type="line"/>
      <point x="66.57575757575758" y="480.27272727272725" type="line"/>
    </contour>
    <contour>
      <point x="66.57575757575758" y="233.72727272727272" type="line"/>
      <point x="490.8484848484849" y="233.72727272727272" type="line"/>
      <point x="490.8484848484849" y="268.3030303030303" type="line"/>
      <point x="66.57575757575758" y="268.3030303030303" type="line"/>
    </contour>
  </outline>
</glyph>
<glyph name="question" format="2">
  <advance width="450.3636363636364"/>
  <unicode hex="003F"/>
  <outline>
    <contour>
      <point x="157.54545454545456" y="173.42424242424244" type="line"/>
      <point x="188.12121212121212" y="173.42424242424244" type="line"/>
      <point x="219.27272727272728" y="320.93939393939394" type="line"/>
      <point x="364.7878787878788" y="378.24242424242425"/>
      <point x="458.1818181818182" y="449.8787878787879"/>
      <point x="458.1818181818182" y="572.1818181818181" type="curve" smooth="yes"/>
      <point x="458.1818181818182" y="666.6969696969697"/>
      <point x="393.06060606060606" y="724.0"/>
      <point x="296.75757575757575" y="724.0" type="curve" smooth="yes"/>
      <point x="175.27272727272728" y="724.0"/>
      <point x="116.81818181818181" y="653.3333333333334"/>
      <point x="116.81818181818181" y="581.7575757575758" type="curve" smooth="yes"/>
      <point x="116.81818181818181" y="561.0909090909091"/>
      <point x="126.84848484848484" y="548.5454545454545"/>
      <point x="147.06060606060606" y="548.5454545454545" type="curve"/>
      <point x="155.9090909090909" y="627.6969696969697"/>
      <point x="190.21212121212122" y="693.6969696969697"/>
      <point x="295.4848484848485" y="693.6969696969697" type="curve" smooth="yes"/>
      <point x="364.0909090909091" y="693.6969696969697"/>
      <point x="415.3333333333333" y="647.6060606060606"/>
      <point x="415.3333333333333" y="573.8787878787879" type="curve" smooth="yes"/>
      <point x="415.3333333333333" y="467.09090909090907"/>
      <point x="335.90909090909093" y="397.1515151515151"/>
      <point x="187.9090909090909" y="341.1212121212121" type="curve"/>
    </contour>
    <contour>
      <point x="147.87878787878788" y="-5.636363636363637" type="curve" smooth="yes"/>
      <point x="168.33333333333334" y="-5.636363636363637"/>
      <point x="189.15151515151516" y="10.696969696969697"/>
      <point x="189.15151515151516" y="52.36363636363636" type="curve" smooth="yes"/>
      <point x="189.15151515151516" y="74.54545454545455"/>
      <point x="175.60606060606062" y="84.87878787878788"/>
      <point x="158.36363636363637" y="84.87878787878788" type="curve" smooth="yes"/>
      <point x="136.3939393939394" y="84.87878787878788"/>
      <point x="115.51515151515152" y="65.3939393939394"/>
      <point x="115.51515151515152" y="28.87878787878788" type="curve" smooth="yes"/>
      <point x="115.51515151515152" y="5.696969696969697"/>
      <point x="128.27272727272728" y="-5.636363636363637"/>
    </contour>
  </outline>
</glyph>
<glyph name="bracketleft" format="2">
  <advance width="304.8484848484849"/>
  <unicode hex="005B"/>
  <outline>
    <contour>
      <point x="-11.545454545454543" y="-128.0" type="line"/>
      <point x="157.87878787878788" y="-128.0" type="line"/>
      <point x="163.72727272727275" y="-103.33333333333333" type="line"/>
      <point x="97.0909090909091" y="-103.33333333333333" type="line" smooth="yes"/>
      <point x="51.93939393939394" y="-103.33333333333333"/>
      <point x="42.42424242424242" y="-98.9090909090909"/>
      <point x="42.42424242424242" y="-79.87878787878788" type="curve" smooth="yes"/>
      <point x="42.42424242424242" y="-70.72727272727272"/>
      <point x="45.21212121212122" y="-55.15151515151515"/>
      <point x="48.787878787878796" y="-38.484848484848484" type="curve"/>
      <point x="199.45454545454544" y="668.060606060606" type="line"/>
      <point x="212.45454545454544" y="731.060606060606"/>
      <point x="223.87878787878788" y="735.3333333333334"/>
      <point x="278.33333333333337" y="735.3333333333334" type="curve" smooth="yes"/>
      <point x="340.24242424242425" y="735.3333333333334" type="line"/>
      <point x="346.0909090909091" y="760.0" type="line"/>
      <point x="176.66666666666666" y="760.0" type="line"/>
    </contour>
  </outline>
</glyph>
<glyph name="backslash" format="2">
  <advance width="288.0"/>
  <unicode hex="005C"/>
  <outline>
    <contour>
      <point x="167.6060606060606" y="-121.0" type="line"/>
      <point x="201.3939393939394" y="-121.0" type="line"/>
      <point x="157.6060606060606" y="760.0" type="line"/>
      <point x="124.03030303030303" y="760.0" type="line"/>
    </contour>
  </outline>
</glyph>
<glyph name="bracketright" format="2">
  <advance width="304.8484848484849"/>
  <unicode hex="005D"/>
  <outline>
    <contour>
      <point x="-35.96969696969697" y="-128.0" type="line"/>
      <point x="133.24242424242425" y="-128.0" type="line"/>
      <point x="321.45454545454544" y="760.0" type="line"/>
      <point x="152.03030303030303" y="760.0" type="line"/>
      <point x="146.1818181818182" y="735.3333333333334" type="line"/>
      <point x="212.8181818181818" y="735.3333333333334" type="line" smooth="yes"/>
      <point x="257.969696969697" y="735.3333333333334"/>
      <point x="267.4848484848485" y="730.9090909090909"/>
      <point x="267.4848484848485" y="711.8787878787879" type="curve" smooth="yes"/>
      <point x="267.4848484848485" y="702.7272727272727"/>
      <point x="264.6969696969697" y="687.1515151515151"/>
      <point x="261.1212121212121" y="670.4848484848485" type="curve" smooth="yes"/>
      <point x="110.45454545454545" y="-36.06060606060606" type="line"/>
      <point x="97.45454545454545" y="-99.06060606060606"/>
      <point x="86.03030303030303" y="-103.33333333333333"/>
      <point x="31.787878787878785" y="-103.33333333333333" type="curve" smooth="yes"/>
      <point x="-30.12121212121212" y="-103.33333333333333" type="line"/>
    </contour>
  </outline>
</glyph>
<glyph name="underscore" format="2">
  <advance width="459.0"/>
  <unicode hex="005F"/>
  <outline>
    <contour>
      <point x="-86.27272727272728" y="-115.21212121212122" type="line"/>
      <point x="382.5151515151515" y="-115.21212121212122" type="line"/>
      <point x="389.2121212121212" y="-83.0" type="line"/>
      <point x="-79.57575757575758" y="-83.0" type="line"/>
    </contour>
  </outline>
</glyph>
<glyph name="braceleft" format="2">
  <advance width="413.8181818181818"/>
  <unicode hex="007B"/>
  <outline>
    <contour>
      <point x="225.6969696969697" y="-131.15151515151516" type="curve" smooth="yes"/>
      <point x="274.3636363636364" y="-131.15151515151516" type="line"/>
      <point x="280.2121212121212" y="-102.33333333333333" type="line"/>
      <point x="238.3939393939394" y="-102.33333333333333" type="line" smooth="yes"/>
      <point x="197.33333333333334" y="-102.33333333333333"/>
      <point x="175.75757575757575" y="-85.06060606060606"/>
      <point x="175.75757575757575" y="-36.96969696969697" type="curve" smooth="yes"/>
      <point x="175.75757575757575" y="-20.242424242424242"/>
      <point x="178.54545454545456" y="-0.7272727272727266"/>
      <point x="182.33333333333334" y="17.636363636363637" type="curve" smooth="yes"/>
      <point x="215.3939393939394" y="170.72727272727272" type="line" smooth="yes"/>
      <point x="219.75757575757575" y="191.1818181818182"/>
      <point x="222.54545454545456" y="209.06060606060606"/>
      <point x="222.54545454545456" y="228.5151515151515" type="curve" smooth="yes"/>
      <point x="222.54545454545456" y="271.7878787878788"/>
      <point x="199.63636363636363" y="307.1515151515151"/>
      <point x="144.57575757575756" y="312.42424242424244" type="curve"/>
      <point x="144.57575757575756" y="315.6363636363636" type="line"/>
      <point x="222.0" y="323.90909090909093"/>
      <point x="256.54545454545456" y="369.27272727272725"/>
      <point x="272.1212121212121" y="441.57575757575756" type="curve" smooth="yes"/>
      <point x="309.1212121212121" y="615.1515151515151" type="line" smooth="yes"/>
      <point x="329.6363636363636" y="709.939393939394"/>
      <point x="348.8181818181818" y="731.1818181818181"/>
      <point x="419.6363636363636" y="731.1818181818181" type="curve" smooth="yes"/>
      <point x="445.6969696969697" y="731.1818181818181" type="line"/>
      <point x="451.54545454545456" y="760.0" type="line"/>
      <point x="416.27272727272725" y="760.0" type="line" smooth="yes"/>
      <point x="317.6363636363636" y="760.0"/>
      <point x="291.0" y="726.8484848484849"/>
      <point x="268.06060606060606" y="619.1515151515151" type="curve" smooth="yes"/>
      <point x="231.06060606060606" y="444.57575757575756" type="line" smooth="yes"/>
      <point x="212.27272727272728" y="356.27272727272725"/>
      <point x="163.36363636363637" y="333.90909090909093"/>
      <point x="85.54545454545455" y="329.3333333333333" type="curve"/>
      <point x="79.69696969696969" y="300.72727272727275" type="line"/>
      <point x="153.8181818181818" y="297.1515151515151"/>
      <point x="181.06060606060606" y="277.7878787878788"/>
      <point x="181.06060606060606" y="227.5151515151515" type="curve" smooth="yes"/>
      <point x="181.06060606060606" y="209.63636363636363"/>
      <point x="176.9090909090909" y="190.1818181818182"/>
      <point x="172.33333333333334" y="170.3030303030303" type="curve" smooth="yes"/>
      <point x="139.27272727272728" y="16.575757575757574" type="line" smooth="yes"/>
      <point x="135.4848484848485" y="-2.3636363636363633"/>
      <point x="132.6969696969697" y="-21.09090909090909"/>
      <point x="132.6969696969697" y="-38.03030303030303" type="curve" smooth="yes"/>
      <point x="132.6969696969697" y="-99.87878787878788"/>
      <point x="165.03030303030303" y="-131.15151515151516"/>
    </contour>
  </outline>
</glyph>
<glyph name="bar" format="2">
  <advance width="559.0"/>
  <unicode hex="007C"/>
  <outline>
    <contour>
      <point x="260.8181818181818" y="-240.0" type="line"/>
      <point x="295.6060606060606" y="-240.0" type="line"/>
      <point x="295.6060606060606" y="760.0" type="line"/>
      <point x="260.8181818181818" y="760.0" type="line"/>
    </contour>
  </outline>
</glyph>
<glyph name="braceright" format="2">
  <advance width="413.8181818181818"/>
  <unicode hex="007D"/>
  <outline>
    <contour>
      <point x="-23.212121212121215" y="-131.15151515151516" type="line"/>
      <point x="12.06060606060606" y="-131.15151515151516" type="line" smooth="yes"/>
      <point x="110.69696969696969" y="-131.15151515151516"/>
      <point x="137.33333333333334" y="-98.0"/>
      <point x="160.27272727272728" y="9.696969696969697" type="curve" smooth="yes"/>
      <point x="197.27272727272728" y="184.4848484848485" type="line" smooth="yes"/>
      <point x="215.84848484848484" y="272.7878787878788"/>
      <point x="264.969696969697" y="295.3636363636364"/>
      <point x="342.7878787878788" y="299.93939393939394" type="curve"/>
      <point x="348.6363636363636" y="328.54545454545456" type="line"/>
      <point x="274.5151515151515" y="332.1212121212121"/>
      <point x="247.27272727272728" y="351.27272727272725"/>
      <point x="247.27272727272728" y="401.54545454545456" type="curve" smooth="yes"/>
      <point x="247.27272727272728" y="419.42424242424244"/>
      <point x="251.42424242424244" y="438.8787878787879"/>
      <point x="256.0" y="458.75757575757575" type="curve" smooth="yes"/>
      <point x="289.06060606060606" y="612.2727272727273" type="line" smooth="yes"/>
      <point x="292.8484848484849" y="631.2121212121212"/>
      <point x="295.6363636363636" y="649.939393939394"/>
      <point x="295.6363636363636" y="666.8787878787879" type="curve" smooth="yes"/>
      <point x="295.6363636363636" y="728.7272727272727"/>
      <point x="263.3030303030303" y="760.0"/>
      <point x="202.63636363636363" y="760.0" type="curve" smooth="yes"/>
      <point x="153.96969696969697" y="760.0" type="line"/>
      <point x="148.12121212121212" y="731.1818181818181" type="line"/>
      <point x="189.93939393939394" y="731.1818181818181" type="line" smooth="yes"/>
      <point x="231.0" y="731.1818181818181"/>
      <point x="252.57575757575756" y="713.9090909090909"/>
      <point x="252.57575757575756" y="665.8181818181819" type="curve" smooth="yes"/>
      <point x="252.57575757575756" y="649.0909090909091"/>
      <point x="249.78787878787878" y="629.5757575757576"/>
      <point x="246.0" y="611.2121212121212" type="curve" smooth="yes"/>
      <point x="212.93939393939394" y="458.3333333333333" type="line" smooth="yes"/>
      <point x="208.57575757575756" y="437.8787878787879"/>
      <point x="205.78787878787878" y="420.0"/>
      <point x="205.78787878787878" y="400.54545454545456" type="curve" smooth="yes"/>
      <point x="205.78787878787878" y="357.27272727272725"/>
      <point x="228.6969696969697" y="322.1212121212121"/>
      <point x="283.75757575757575" y="316.8484848484849" type="curve"/>
      <point x="283.75757575757575" y="313.6363636363636" type="line"/>
      <point x="206.33333333333334" y="305.3636363636364"/>
      <point x="171.78787878787878" y="259.7878787878788"/>
      <point x="156.21212121212122" y="187.4848484848485" type="curve" smooth="yes"/>
      <point x="119.21212121212122" y="13.696969696969697" type="line" smooth="yes"/>
      <point x="98.69696969696969" y="-81.0909090909091"/>
      <point x="79.51515151515152" y="-102.33333333333333"/>
      <point x="8.696969696969695" y="-102.33333333333333" type="curve" smooth="yes"/>
      <point x="-17.363636363636363" y="-102.33333333333333" type="line"/>
    </contour>
  </outline>
</glyph>
<glyph name="twosuperior" format="2">
  <advance width="384.24242424242425"/>
  <unicode hex="00B2"/>
  <outline>
    <contour>
      <point x="65.66666666666667" y="386.7878787878788" type="line"/>
      <point x="353.6969696969697" y="386.7878787878788" type="line"/>
      <point x="375.3939393939394" y="485.3030303030303" type="line"/>
      <point x="350.8484848484849" y="485.3030303030303" type="line"/>
      <point x="346.7878787878788" y="472.1818181818182" type="line" smooth="yes"/>
      <point x="334.06060606060606" y="426.54545454545456"/>
      <point x="326.3636363636364" y="418.57575757575756"/>
      <point x="275.6666666666667" y="418.57575757575756" type="curve" smooth="yes"/>
      <point x="126.63636363636364" y="418.57575757575756" type="line"/>
      <point x="235.60606060606062" y="507.27272727272725" type="line" smooth="yes"/>
      <point x="358.57575757575756" y="607.4545454545455"/>
      <point x="395.6666666666667" y="651.0909090909091"/>
      <point x="395.6666666666667" y="725.060606060606" type="curve" smooth="yes"/>
      <point x="395.6666666666667" y="784.4242424242424"/>
      <point x="354.90909090909093" y="824.7878787878788"/>
      <point x="278.06060606060606" y="824.7878787878788" type="curve" smooth="yes"/>
      <point x="184.63636363636363" y="824.7878787878788"/>
      <point x="139.45454545454544" y="757.8484848484849"/>
      <point x="139.45454545454544" y="715.7272727272727" type="curve" smooth="yes"/>
      <point x="139.45454545454544" y="694.030303030303"/>
      <point x="150.84848484848484" y="683.4848484848485"/>
      <point x="173.5151515151515" y="683.4848484848485" type="curve"/>
      <point x="175.0" y="740.5757575757576"/>
      <point x="205.57575757575756" y="796.6060606060606"/>
      <point x="276.57575757575756" y="796.6060606060606" type="curve" smooth="yes"/>
      <point x="327.75757575757575" y="796.6060606060606"/>
      <point x="354.93939393939394" y="769.1818181818181"/>
      <point x="354.93939393939394" y="724.4242424242424" type="curve" smooth="yes"/>
      <point x="354.93939393939394" y="661.0"/>
      <point x="332.3030303030303" y="624.8181818181819"/>
      <point x="210.6969696969697" y="523.5151515151515" type="curve" smooth="yes"/>
      <point x="69.87878787878788" y="406.54545454545456" type="line"/>
    </contour>
  </outline>
</glyph>
<glyph name="threesuperior" format="2">
  <advance width="384.24242424242425"/>
  <unicode hex="00B3"/>
  <outline>
    <contour>
      <point x="209.21212121212122" y="380.0" type="curve" smooth="yes"/>
      <point x="316.90909090909093" y="380.0"/>
      <point x="389.030303030303" y="443.75757575757575"/>
      <point x="389.030303030303" y="521.1515151515151" type="curve" smooth="yes"/>
      <point x="389.030303030303" y="570.6363636363636"/>
      <point x="357.6969696969697" y="600.6363636363636"/>
      <point x="309.3030303030303" y="612.3636363636364" type="curve"/>
      <point x="309.5151515151515" y="615.7878787878788" type="line"/>
      <point x="369.1212121212121" y="627.6363636363636"/>
      <point x="414.6666666666667" y="675.6060606060606"/>
      <point x="414.6666666666667" y="731.4242424242424" type="curve" smooth="yes"/>
      <point x="414.6666666666667" y="783.0"/>
      <point x="370.8787878787879" y="824.0"/>
      <point x="291.4848484848485" y="824.0" type="curve" smooth="yes"/>
      <point x="198.63636363636363" y="824.0"/>
      <point x="145.57575757575756" y="769.4545454545455"/>
      <point x="145.57575757575756" y="725.6060606060606" type="curve" smooth="yes"/>
      <point x="145.57575757575756" y="703.060606060606"/>
      <point x="160.54545454545456" y="698.5757575757576"/>
      <point x="175.33333333333334" y="698.5757575757576" type="curve"/>
      <point x="185.9090909090909" y="758.7575757575758"/>
      <point x="226.45454545454547" y="795.8181818181819"/>
      <point x="290.06060606060606" y="795.8181818181819" type="curve" smooth="yes"/>
      <point x="338.6060606060606" y="795.8181818181819"/>
      <point x="372.3030303030303" y="773.4545454545455"/>
      <point x="372.3030303030303" y="729.9090909090909" type="curve" smooth="yes"/>
      <point x="372.3030303030303" y="672.939393939394"/>
      <point x="322.24242424242425" y="626.8484848484849"/>
      <point x="240.03030303030303" y="626.8484848484849" type="curve" smooth="yes"/>
      <point x="202.3030303030303" y="626.8484848484849" type="line"/>
      <point x="196.66666666666666" y="598.4545454545455" type="line"/>
      <point x="229.66666666666666" y="598.4545454545455" type="line" smooth="yes"/>
      <point x="313.1515151515151" y="598.4545454545455"/>
      <point x="347.45454545454544" y="566.6060606060606"/>
      <point x="347.45454545454544" y="519.5151515151515" type="curve" smooth="yes"/>
      <point x="347.45454545454544" y="459.45454545454544"/>
      <point x="296.2121212121212" y="409.24242424242425"/>
      <point x="213.84848484848484" y="409.24242424242425" type="curve" smooth="yes"/>
      <point x="147.1818181818182" y="409.24242424242425"/>
      <point x="112.36363636363636" y="445.2121212121212"/>
      <point x="124.18181818181819" y="508.6363636363636" type="curve"/>
      <point x="100.06060606060606" y="508.6363636363636"/>
      <point x="86.87878787878788" y="485.1212121212121"/>
      <point x="86.87878787878788" y="459.3636363636364" type="curve" smooth="yes"/>
      <point x="86.87878787878788" y="411.57575757575756"/>
      <point x="134.66666666666666" y="380.0"/>
    </contour>
  </outline>
</glyph>
<glyph name="udatta-deva" format="2">
  <unicode hex="0951"/>
  <anchor x="56.63636363636364" y="544.5454545454545" name="_vedic"/>
  <outline>
    <contour>
      <point x="118.45454545454545" y="908.060606060606" type="line"/>
      <point x="150.1818181818182" y="908.060606060606" type="line"/>
      <point x="189.6060606060606" y="1094.3939393939395" type="line"/>
      <point x="157.87878787878788" y="1094.3939393939395" type="line"/>
    </contour>
  </outline>
</glyph>
<glyph name="anudatta-deva" format="2">
  <unicode hex="0952"/>
  <anchor x="-59.0" y="0.0" name="_bottom"/>
  <outline>
    <contour>
      <point x="-344.6060606060606" y="-491.8484848484849" type="line"/>
      <point x="17.454545454545457" y="-491.8484848484849" type="line"/>
      <point x="24.363636363636363" y="-458.72727272727275" type="line"/>
      <point x="-337.6969696969697" y="-458.72727272727275" type="line"/>
    </contour>
  </outline>
</glyph>
<glyph name="danda-deva" format="2">
  <advance width="284.8181818181818"/>
  <unicode hex="0964"/>
  <outline>
    <contour>
      <point x="63.696969696969695" y="0.0" type="line"/>
      <point x="105.48484848484848" y="0.0" type="line"/>
      <point x="221.12121212121212" y="544.5454545454545" type="line"/>
      <point x="179.33333333333334" y="544.5454545454545" type="line"/>
    </contour>
  </outline>
</glyph>
<glyph name="dbldanda-deva" format="2">
  <advance width="507.42424242424244"/>
  <unicode hex="0965"/>
  <outline>
    <contour>
      <point x="285.5151515151515" y="0.0" type="line"/>
      <point x="328.0909090909091" y="0.0" type="line"/>
      <point x="443.72727272727275" y="544.5454545454545" type="line"/>
      <point x="401.1515151515151" y="544.5454545454545" type="line"/>
    </contour>
    <contour>
      <point x="63.696969696969695" y="0.0" type="line"/>
      <point x="105.48484848484848" y="0.0" type="line"/>
      <point x="221.12121212121212" y="544.5454545454545" type="line"/>
      <point x="179.33333333333334" y="544.5454545454545" type="line"/>
    </contour>
  </outline>
</glyph>
<glyph name="anusvara-tamil" format="2">
  <unicode hex="0B82"/>
  <note>
uni0B82
</note>
  <anchor x="56.63636363636364" y="544.5454545454545" name="_top"/>
  <outline>
    <contour>
      <point x="101.0" y="646.3939393939394" type="curve" smooth="yes"/>
      <point x="159.96969696969697" y="646.3939393939394"/>
      <point x="201.5151515151515" y="689.6666666666666"/>
      <point x="201.5151515151515" y="747.060606060606" type="curve" smooth="yes"/>
      <point x="201.5151515151515" y="803.8787878787879"/>
      <point x="159.96969696969697" y="847.1515151515151"/>
      <point x="101.0" y="847.1515151515151" type="curve" smooth="yes"/>
      <point x="42.03030303030303" y="847.1515151515151"/>
      <point x="0.4848484848484844" y="803.8787878787879"/>
      <point x="0.4848484848484844" y="747.060606060606" type="curve" smooth="yes"/>
      <point x="0.4848484848484844" y="689.6666666666666"/>
      <point x="42.03030303030303" y="646.3939393939394"/>
    </contour>
    <contour>
      <point x="101.0" y="676.7575757575758" type="curve" smooth="yes"/>
      <point x="60.84848484848485" y="676.7575757575758"/>
      <point x="34.06060606060606" y="706.6969696969697"/>
      <point x="34.06060606060606" y="747.060606060606" type="curve" smooth="yes"/>
      <point x="34.06060606060606" y="786.8484848484849"/>
      <point x="60.84848484848485" y="816.7878787878788"/>
      <point x="101.0" y="816.7878787878788" type="curve" smooth="yes"/>
      <point x="141.15151515151516" y="816.7878787878788"/>
      <point x="167.93939393939394" y="786.8484848484849"/>
      <point x="167.93939393939394" y="747.060606060606" type="curve" smooth="yes"/>
      <point x="167.93939393939394" y="706.6969696969697"/>
      <point x="141.15151515151516" y="676.7575757575758"/>
    </contour>
  </outline>
</glyph>
<glyph name="visarga-tamil" format="2">
  <advance width="854.060606060606"/>
  <unicode hex="0B83"/>
  <note>
uni0B83
</note>
  <outline>
    <contour>
      <point x="166.1818181818182" y="0.0" type="curve" smooth="yes"/>
      <point x="273.1212121212121" y="0.0"/>
      <point x="352.57575757575756" y="94.18181818181819"/>
      <point x="352.57575757575756" y="220.3030303030303" type="curve" smooth="yes"/>
      <point x="352.57575757575756" y="309.1818181818182"/>
      <point x="300.90909090909093" y="363.4848484848485"/>
      <point x="218.27272727272728" y="363.4848484848485" type="curve" smooth="yes"/>
      <point x="109.57575757575758" y="363.4848484848485"/>
      <point x="38.515151515151516" y="255.9090909090909"/>
      <point x="38.515151515151516" y="145.03030303030303" type="curve" smooth="yes"/>
      <point x="38.515151515151516" y="59.75757575757576"/>
      <point x="83.78787878787878" y="0.0"/>
    </contour>
    <contour>
      <point x="165.27272727272728" y="30.87878787878788" type="curve" smooth="yes"/>
      <point x="104.6969696969697" y="30.87878787878788"/>
      <point x="69.96969696969697" y="75.30303030303031"/>
      <point x="69.96969696969697" y="147.03030303030303" type="curve" smooth="yes"/>
      <point x="69.96969696969697" y="238.0"/>
      <point x="125.63636363636364" y="333.6060606060606"/>
      <point x="214.36363636363637" y="333.6060606060606" type="curve" smooth="yes"/>
      <point x="277.8181818181818" y="333.6060606060606"/>
      <point x="315.6060606060606" y="288.42424242424244"/>
      <point x="315.6060606060606" y="221.0" type="curve" smooth="yes"/>
      <point x="315.6060606060606" y="116.84848484848484"/>
      <point x="255.3030303030303" y="30.87878787878788"/>
    </contour>
    <contour>
      <point x="588.1515151515151" y="0.0" type="curve" smooth="yes"/>
      <point x="695.0909090909091" y="0.0"/>
      <point x="774.5454545454545" y="94.18181818181819"/>
      <point x="774.5454545454545" y="220.3030303030303" type="curve" smooth="yes"/>
      <point x="774.5454545454545" y="309.1818181818182"/>
      <point x="722.8787878787879" y="363.4848484848485"/>
      <point x="640.2424242424242" y="363.4848484848485" type="curve" smooth="yes"/>
      <point x="531.5454545454545" y="363.4848484848485"/>
      <point x="460.4848484848485" y="255.9090909090909"/>
      <point x="460.4848484848485" y="145.03030303030303" type="curve" smooth="yes"/>
      <point x="460.4848484848485" y="59.75757575757576"/>
      <point x="505.75757575757575" y="0.0"/>
    </contour>
    <contour>
      <point x="587.2424242424242" y="30.87878787878788" type="curve" smooth="yes"/>
      <point x="526.6666666666666" y="30.87878787878788"/>
      <point x="491.93939393939394" y="75.30303030303031"/>
      <point x="491.93939393939394" y="147.03030303030303" type="curve" smooth="yes"/>
      <point x="491.93939393939394" y="238.0"/>
      <point x="547.6060606060606" y="333.6060606060606"/>
      <point x="636.3333333333334" y="333.6060606060606" type="curve" smooth="yes"/>
      <point x="699.7878787878788" y="333.6060606060606"/>
      <point x="737.5757575757576" y="288.42424242424244"/>
      <point x="737.5757575757576" y="221.0" type="curve" smooth="yes"/>
      <point x="737.5757575757576" y="116.84848484848484"/>
      <point x="677.2727272727273" y="30.87878787878788"/>
    </contour>
    <contour>
      <point x="453.0" y="405.6969696969697" type="curve" smooth="yes"/>
      <point x="559.939393939394" y="405.6969696969697"/>
      <point x="639.3939393939394" y="499.8787878787879"/>
      <point x="639.3939393939394" y="626.0" type="curve" smooth="yes"/>
      <point x="639.3939393939394" y="714.8787878787879"/>
      <point x="587.7272727272727" y="769.1818181818181"/>
      <point x="505.0909090909091" y="769.1818181818181" type="curve" smooth="yes"/>
      <point x="396.3939393939394" y="769.1818181818181"/>
      <point x="325.3333333333333" y="661.6060606060606"/>
      <point x="325.3333333333333" y="550.7272727272727" type="curve" smooth="yes"/>
      <point x="325.3333333333333" y="465.45454545454544"/>
      <point x="370.6060606060606" y="405.6969696969697"/>
    </contour>
    <contour>
      <point x="452.0909090909091" y="436.57575757575756" type="curve" smooth="yes"/>
      <point x="391.5151515151515" y="436.57575757575756"/>
      <point x="356.7878787878788" y="481.0"/>
      <point x="356.7878787878788" y="552.7272727272727" type="curve" smooth="yes"/>
      <point x="356.7878787878788" y="643.6969696969697"/>
      <point x="412.45454545454544" y="739.3030303030303"/>
      <point x="501.1818181818182" y="739.3030303030303" type="curve" smooth="yes"/>
      <point x="564.6363636363636" y="739.3030303030303"/>
      <point x="602.4242424242424" y="694.1212121212121"/>
      <point x="602.4242424242424" y="626.6969696969697" type="curve" smooth="yes"/>
      <point x="602.4242424242424" y="522.5454545454545"/>
      <point x="542.1212121212121" y="436.57575757575756"/>
    </contour>
  </outline>
</glyph>
<glyph name="a-tamil" format="2">
  <advance width="1273.1515151515152"/>
  <unicode hex="0B85"/>
  <note>
uni0B85
</note>
  <anchor x="558.2727272727273" y="0.0" name="bottom"/>
  <anchor x="361.7878787878788" y="-100.72727272727272" name="nukta"/>
  <anchor x="679.1818181818181" y="544.5454545454545" name="top"/>
  <anchor x="679.1818181818181" y="544.5454545454545" name="vedic"/>
  <outline>
    <contour>
      <point x="1015.030303030303" y="-170.63636363636363" type="line"/>
      <point x="1057.6060606060605" y="-170.63636363636363" type="line"/>
      <point x="1209.7272727272727" y="546.1212121212121" type="line"/>
      <point x="1167.1515151515152" y="546.1212121212121" type="line"/>
      <point x="1086.1515151515152" y="163.12121212121212" type="line"/>
      <point x="86.18181818181819" y="163.12121212121212" type="line" smooth="yes"/>
      <point x="35.57575757575758" y="163.12121212121212"/>
      <point x="6.666666666666666" y="137.0"/>
      <point x="6.666666666666666" y="92.60606060606061" type="curve" smooth="yes"/>
      <point x="6.666666666666666" y="10.060606060606059"/>
      <point x="158.72727272727272" y="-99.15151515151516"/>
      <point x="384.42424242424244" y="-99.15151515151516" type="curve" smooth="yes"/>
      <point x="674.0909090909091" y="-99.15151515151516"/>
      <point x="914.2727272727273" y="25.424242424242422"/>
      <point x="914.2727272727273" y="297.93939393939394" type="curve" smooth="yes"/>
      <point x="914.2727272727273" y="469.06060606060606"/>
      <point x="798.8181818181819" y="554.2727272727273"/>
      <point x="641.5454545454545" y="554.2727272727273" type="curve" smooth="yes"/>
      <point x="512.8484848484849" y="554.2727272727273"/>
      <point x="411.5151515151515" y="483.0"/>
      <point x="411.5151515151515" y="374.1515151515151" type="curve" smooth="yes"/>
      <point x="411.5151515151515" y="309.72727272727275"/>
      <point x="459.5151515151515" y="263.54545454545456"/>
      <point x="532.2424242424242" y="263.54545454545456" type="curve" smooth="yes"/>
      <point x="618.7272727272727" y="263.54545454545456"/>
      <point x="676.6363636363636" y="314.3333333333333"/>
      <point x="676.6363636363636" y="407.1818181818182" type="curve" smooth="yes"/>
      <point x="676.6363636363636" y="459.93939393939394"/>
      <point x="645.6060606060606" y="510.3030303030303"/>
      <point x="596.969696969697" y="533.1818181818181" type="curve"/>
      <point x="560.8787878787879" y="528.6060606060606" type="line"/>
      <point x="615.5454545454545" y="498.93939393939394"/>
      <point x="636.1212121212121" y="451.57575757575756"/>
      <point x="636.1212121212121" y="408.1515151515151" type="curve" smooth="yes"/>
      <point x="636.1212121212121" y="337.6363636363636"/>
      <point x="596.2424242424242" y="294.6969696969697"/>
      <point x="530.2121212121212" y="294.6969696969697" type="curve" smooth="yes"/>
      <point x="481.1212121212121" y="294.6969696969697"/>
      <point x="445.6666666666667" y="326.06060606060606"/>
      <point x="445.6666666666667" y="377.6666666666667" type="curve" smooth="yes"/>
      <point x="445.6666666666667" y="466.3939393939394"/>
      <point x="531.3939393939394" y="523.9090909090909"/>
      <point x="637.060606060606" y="523.9090909090909" type="curve" smooth="yes"/>
      <point x="769.6060606060606" y="523.9090909090909"/>
      <point x="869.6969696969697" y="444.1212121212121"/>
      <point x="869.6969696969697" y="292.93939393939394" type="curve" smooth="yes"/>
      <point x="869.6969696969697" y="43.666666666666664"/>
      <point x="638.6363636363636" y="-67.21212121212122"/>
      <point x="386.06060606060606" y="-67.21212121212122" type="curve" smooth="yes"/>
      <point x="191.84848484848484" y="-67.21212121212122"/>
      <point x="40.24242424242424" y="23.727272727272727"/>
      <point x="40.24242424242424" y="94.39393939393939" type="curve" smooth="yes"/>
      <point x="40.24242424242424" y="120.33333333333333"/>
      <point x="57.696969696969695" y="133.54545454545453"/>
      <point x="84.75757575757575" y="133.54545454545453" type="curve" smooth="yes"/>
      <point x="1079.878787878788" y="133.54545454545453" type="line"/>
    </contour>
  </outline>
</glyph>
<glyph name="aa-tamil" format="2">
  <advance width="1380.7878787878788"/>
  <unicode hex="0B86"/>
  <note>
uni0B86
</note>
  <anchor x="616.1818181818182" y="0.0" name="bottom"/>
  <anchor x="362.57575757575756" y="-100.72727272727272" name="nukta"/>
  <anchor x="736.5151515151515" y="544.5454545454545" name="top"/>
  <anchor x="737.0909090909091" y="544.5454545454545" name="vedic"/>
  <outline>
    <contour>
      <point x="841.8787878787879" y="-423.3030303030303" type="curve" smooth="yes"/>
      <point x="1046.878787878788" y="-423.3030303030303"/>
      <point x="1268.8484848484848" y="-284.8181818181818"/>
      <point x="1268.8484848484848" y="-93.75757575757575" type="curve" smooth="yes"/>
      <point x="1268.8484848484848" y="-22.515151515151516"/>
      <point x="1227.090909090909" y="10.333333333333336"/>
      <point x="1175.969696969697" y="10.333333333333336" type="curve" smooth="yes"/>
      <point x="1120.4242424242425" y="10.333333333333336"/>
      <point x="1072.8181818181818" y="-34.484848484848484"/>
      <point x="1049.8181818181818" y="-112.87878787878788" type="curve"/>
      <point x="1066.3030303030303" y="-123.3030303030303" type="line"/>
      <point x="1081.4545454545455" y="-61.0"/>
      <point x="1121.6060606060605" y="-28.12121212121212"/>
      <point x="1164.2727272727273" y="-28.12121212121212" type="curve" smooth="yes"/>
      <point x="1198.6969696969697" y="-28.12121212121212"/>
      <point x="1224.8484848484848" y="-48.90909090909091"/>
      <point x="1224.8484848484848" y="-99.06060606060606" type="curve" smooth="yes"/>
      <point x="1224.8484848484848" y="-263.57575757575756"/>
      <point x="1018.3939393939394" y="-390.57575757575756"/>
      <point x="841.6060606060606" y="-390.57575757575756" type="curve" smooth="yes"/>
      <point x="748.6666666666666" y="-390.57575757575756"/>
      <point x="692.8181818181819" y="-357.6666666666667"/>
      <point x="692.8181818181819" y="-293.5151515151515" type="curve" smooth="yes"/>
      <point x="692.8181818181819" y="-239.93939393939394"/>
      <point x="733.939393939394" y="-205.0"/>
      <point x="801.8484848484849" y="-187.4848484848485" type="curve"/>
      <point x="795.8484848484849" y="-155.75757575757575" type="line"/>
      <point x="709.7575757575758" y="-178.4848484848485"/>
      <point x="659.0909090909091" y="-223.1818181818182"/>
      <point x="659.0909090909091" y="-295.57575757575756" type="curve" smooth="yes"/>
      <point x="659.0909090909091" y="-372.90909090909093"/>
      <point x="724.3333333333334" y="-423.3030303030303"/>
    </contour>
    <component base="a-tamil"/>
  </outline>
</glyph>
<glyph name="i-tamil" format="2">
  <advance width="965.1818181818182"/>
  <unicode hex="0B87"/>
  <note>
uni0B87
</note>
  <anchor x="409.27272727272725" y="0.0" name="bottom"/>
  <anchor x="368.93939393939394" y="-250.12121212121212" name="nukta"/>
  <anchor x="538.0" y="799.8484848484849" name="top"/>
  <anchor x="515.4242424242424" y="544.5454545454545" name="vedic"/>
  <outline>
    <contour>
      <point x="124.48484848484848" y="-282.030303030303" type="curve" smooth="yes"/>
      <point x="415.3030303030303" y="-282.030303030303"/>
      <point x="725.5454545454545" y="39.93939393939394"/>
      <point x="725.5454545454545" y="339.969696969697" type="curve" smooth="yes"/>
      <point x="725.5454545454545" y="476.6363636363636"/>
      <point x="639.7878787878788" y="552.6969696969697"/>
      <point x="503.1818181818182" y="552.6969696969697" type="curve" smooth="yes"/>
      <point x="381.90909090909093" y="552.6969696969697"/>
      <point x="287.3030303030303" y="478.57575757575756"/>
      <point x="287.3030303030303" y="374.24242424242425" type="curve" smooth="yes"/>
      <point x="287.3030303030303" y="309.1212121212121"/>
      <point x="334.8484848484849" y="262.1818181818182"/>
      <point x="403.90909090909093" y="262.1818181818182" type="curve" smooth="yes"/>
      <point x="487.6666666666667" y="262.1818181818182"/>
      <point x="547.7878787878788" y="313.3939393939394"/>
      <point x="547.7878787878788" y="404.030303030303" type="curve" smooth="yes"/>
      <point x="547.7878787878788" y="455.8181818181818"/>
      <point x="519.7878787878788" y="509.8787878787879"/>
      <point x="473.8484848484849" y="531.1818181818181" type="curve"/>
      <point x="438.1818181818182" y="526.6060606060606" type="line"/>
      <point x="486.54545454545456" y="498.3030303030303"/>
      <point x="508.27272727272725" y="453.06060606060606"/>
      <point x="508.27272727272725" y="407.2121212121212" type="curve" smooth="yes"/>
      <point x="508.27272727272725" y="338.8181818181818"/>
      <point x="464.3030303030303" y="293.3333333333333"/>
      <point x="401.3636363636364" y="293.3333333333333" type="curve" smooth="yes"/>
      <point x="355.1212121212121" y="293.3333333333333"/>
      <point x="322.45454545454544" y="327.7878787878788"/>
      <point x="322.45454545454544" y="375.8787878787879" type="curve" smooth="yes"/>
      <point x="322.45454545454544" y="462.3939393939394"/>
      <point x="397.24242424242425" y="522.3333333333334"/>
      <point x="499.27272727272725" y="522.3333333333334" type="curve" smooth="yes"/>
      <point x="612.6666666666666" y="522.3333333333334"/>
      <point x="684.1818181818181" y="454.969696969697"/>
      <point x="684.1818181818181" y="338.5151515151515" type="curve" smooth="yes"/>
      <point x="684.1818181818181" y="64.15151515151516"/>
      <point x="399.4848484848485" y="-250.0909090909091"/>
      <point x="132.6060606060606" y="-250.0909090909091" type="curve" smooth="yes"/>
      <point x="56.878787878787875" y="-250.0909090909091"/>
      <point x="11.030303030303031" y="-212.57575757575756"/>
      <point x="11.030303030303031" y="-153.36363636363637" type="curve" smooth="yes"/>
      <point x="11.030303030303031" y="-15.575757575757576"/>
      <point x="216.21212121212122" y="75.12121212121212"/>
      <point x="413.72727272727275" y="75.12121212121212" type="curve" smooth="yes"/>
      <point x="584.060606060606" y="75.12121212121212"/>
      <point x="757.030303030303" y="-0.5151515151515147"/>
      <point x="757.030303030303" y="-125.3030303030303" type="curve" smooth="yes"/>
      <point x="757.030303030303" y="-209.0"/>
      <point x="701.4242424242424" y="-250.0909090909091"/>
      <point x="608.3636363636364" y="-250.0909090909091" type="curve" smooth="yes"/>
      <point x="404.6969696969697" y="-250.0909090909091"/>
      <point x="128.6060606060606" y="42.27272727272727"/>
      <point x="128.6060606060606" y="323.24242424242425" type="curve" smooth="yes"/>
      <point x="128.6060606060606" y="566.6969696969697"/>
      <point x="272.90909090909093" y="756.3333333333334"/>
      <point x="533.4545454545455" y="756.3333333333334" type="curve" smooth="yes"/>
      <point x="785.2424242424242" y="756.3333333333334"/>
      <point x="916.8787878787879" y="570.3636363636364"/>
      <point x="862.030303030303" y="313.09090909090907" type="curve" smooth="yes"/>
      <point x="816.969696969697" y="103.33333333333333" type="line"/>
      <point x="847.969696969697" y="103.33333333333333" type="line"/>
      <point x="893.030303030303" y="313.09090909090907" type="line" smooth="yes"/>
      <point x="955.3636363636364" y="601.7878787878788"/>
      <point x="814.1515151515151" y="799.8484848484849"/>
      <point x="538.0" y="799.8484848484849" type="curve" smooth="yes"/>
      <point x="259.57575757575756" y="799.8484848484849"/>
      <point x="92.96969696969697" y="593.3333333333334"/>
      <point x="92.96969696969697" y="328.3636363636364" type="curve" smooth="yes"/>
      <point x="92.96969696969697" y="30.606060606060602"/>
      <point x="380.8787878787879" y="-282.030303030303"/>
      <point x="611.969696969697" y="-282.030303030303" type="curve" smooth="yes"/>
      <point x="720.5151515151515" y="-282.030303030303"/>
      <point x="793.8787878787879" y="-230.1818181818182"/>
      <point x="793.8787878787879" y="-122.57575757575758" type="curve" smooth="yes"/>
      <point x="793.8787878787879" y="21.303030303030305"/>
      <point x="610.3636363636364" y="106.06060606060606"/>
      <point x="415.7878787878788" y="106.06060606060606" type="curve" smooth="yes"/>
      <point x="211.75757575757575" y="106.06060606060606"/>
      <point x="-27.03030303030303" y="11.121212121212121"/>
      <point x="-27.03030303030303" y="-160.27272727272728" type="curve" smooth="yes"/>
      <point x="-27.03030303030303" y="-234.03030303030303"/>
      <point x="33.878787878787875" y="-282.030303030303"/>
    </contour>
  </outline>
</glyph>
<glyph name="ii-tamil" format="2">
  <advance width="740.4848484848485"/>
  <unicode hex="0B88"/>
  <note>
uni0B88
</note>
  <anchor x="335.8787878787879" y="0.0" name="bottom"/>
  <anchor x="336.6666666666667" y="0.0" name="nukta"/>
  <anchor x="454.3030303030303" y="544.5454545454545" name="top"/>
  <anchor x="454.3030303030303" y="544.5454545454545" name="vedic"/>
  <outline>
    <contour>
      <point x="64.21212121212122" y="0.0" type="line"/>
      <point x="96.63636363636364" y="0.0" type="line"/>
      <point x="205.78787878787878" y="514.969696969697" type="line"/>
      <point x="502.5151515151515" y="514.969696969697" type="line"/>
      <point x="392.3636363636364" y="0.0" type="line"/>
      <point x="434.93939393939394" y="0.0" type="line"/>
      <point x="544.0909090909091" y="514.969696969697" type="line"/>
      <point x="741.7878787878788" y="514.969696969697" type="line"/>
      <point x="748.2727272727273" y="544.5454545454545" type="line"/>
      <point x="179.84848484848484" y="544.5454545454545" type="line"/>
    </contour>
    <contour>
      <point x="296.8181818181818" y="223.6060606060606" type="curve" smooth="yes"/>
      <point x="318.1515151515151" y="223.6060606060606"/>
      <point x="336.42424242424244" y="241.5151515151515"/>
      <point x="336.42424242424244" y="261.6363636363636" type="curve" smooth="yes"/>
      <point x="336.42424242424244" y="281.75757575757575"/>
      <point x="318.1515151515151" y="299.45454545454544"/>
      <point x="296.8181818181818" y="299.45454545454544" type="curve" smooth="yes"/>
      <point x="275.4848484848485" y="299.45454545454544"/>
      <point x="258.0" y="281.75757575757575"/>
      <point x="258.0" y="261.6363636363636" type="curve" smooth="yes"/>
      <point x="258.0" y="241.5151515151515"/>
      <point x="275.4848484848485" y="223.6060606060606"/>
    </contour>
    <contour>
      <point x="638.8484848484849" y="223.6060606060606" type="curve" smooth="yes"/>
      <point x="660.1818181818181" y="223.6060606060606"/>
      <point x="678.4545454545455" y="241.5151515151515"/>
      <point x="678.4545454545455" y="261.6363636363636" type="curve" smooth="yes"/>
      <point x="678.4545454545455" y="281.75757575757575"/>
      <point x="660.1818181818181" y="299.45454545454544"/>
      <point x="638.8484848484849" y="299.45454545454544" type="curve" smooth="yes"/>
      <point x="617.5151515151515" y="299.45454545454544"/>
      <point x="600.030303030303" y="281.75757575757575"/>
      <point x="600.030303030303" y="261.6363636363636" type="curve" smooth="yes"/>
      <point x="600.030303030303" y="241.5151515151515"/>
      <point x="617.5151515151515" y="223.6060606060606"/>
    </contour>
  </outline>
</glyph>
<glyph name="u-tamil" format="2">
  <advance width="1030.6363636363637"/>
  <unicode hex="0B89"/>
  <note>
uni0B89
</note>
  <anchor x="479.93939393939394" y="0.0" name="bottom"/>
  <anchor x="479.93939393939394" y="0.0" name="nukta"/>
  <anchor x="597.5757575757576" y="544.5454545454545" name="top"/>
  <anchor x="598.5757575757576" y="544.5454545454545" name="vedic"/>
  <outline>
    <contour>
      <point x="101.15151515151516" y="0.0" type="curve" smooth="yes"/>
      <point x="947.1212121212121" y="0.0" type="line"/>
      <point x="952.8181818181819" y="29.575757575757578" type="line"/>
      <point x="103.36363636363636" y="29.575757575757578" type="line" smooth="yes"/>
      <point x="66.81818181818181" y="29.575757575757578"/>
      <point x="46.878787878787875" y="53.18181818181818"/>
      <point x="46.878787878787875" y="82.33333333333333" type="curve" smooth="yes"/>
      <point x="46.878787878787875" y="121.36363636363636"/>
      <point x="77.18181818181819" y="143.66666666666666"/>
      <point x="124.0909090909091" y="143.66666666666666" type="curve" smooth="yes"/>
      <point x="366.1515151515151" y="143.66666666666666" type="line" smooth="yes"/>
      <point x="529.2121212121212" y="143.66666666666666"/>
      <point x="649.969696969697" y="211.15151515151516"/>
      <point x="649.969696969697" y="363.1515151515151" type="curve" smooth="yes"/>
      <point x="649.969696969697" y="494.2121212121212"/>
      <point x="545.2727272727273" y="552.6969696969697"/>
      <point x="415.93939393939394" y="552.6969696969697" type="curve" smooth="yes"/>
      <point x="289.030303030303" y="552.6969696969697"/>
      <point x="170.96969696969697" y="478.4848484848485"/>
      <point x="170.96969696969697" y="375.7878787878788" type="curve" smooth="yes"/>
      <point x="170.96969696969697" y="314.1515151515151"/>
      <point x="213.75757575757575" y="261.969696969697"/>
      <point x="292.4848484848485" y="261.969696969697" type="curve" smooth="yes"/>
      <point x="374.6666666666667" y="261.969696969697"/>
      <point x="440.3030303030303" y="308.45454545454544"/>
      <point x="440.3030303030303" y="395.24242424242425" type="curve" smooth="yes"/>
      <point x="440.3030303030303" y="455.09090909090907"/>
      <point x="411.27272727272725" y="496.42424242424244"/>
      <point x="368.7878787878788" y="531.6060606060606" type="curve"/>
      <point x="333.9090909090909" y="527.030303030303" type="line"/>
      <point x="381.1515151515151" y="483.42424242424244"/>
      <point x="400.57575757575756" y="447.7878787878788"/>
      <point x="400.57575757575756" y="396.4848484848485" type="curve" smooth="yes"/>
      <point x="400.57575757575756" y="329.54545454545456"/>
      <point x="347.5151515151515" y="293.1212121212121"/>
      <point x="290.09090909090907" y="293.1212121212121" type="curve" smooth="yes"/>
      <point x="233.78787878787878" y="293.1212121212121"/>
      <point x="205.12121212121212" y="332.4848484848485"/>
      <point x="205.12121212121212" y="378.57575757575756" type="curve" smooth="yes"/>
      <point x="205.12121212121212" y="461.45454545454544"/>
      <point x="306.7878787878788" y="522.3333333333334"/>
      <point x="410.6060606060606" y="522.3333333333334" type="curve" smooth="yes"/>
      <point x="517.2727272727273" y="522.3333333333334"/>
      <point x="607.3939393939394" y="476.3333333333333"/>
      <point x="607.3939393939394" y="361.1515151515151" type="curve" smooth="yes"/>
      <point x="607.3939393939394" y="234.3939393939394"/>
      <point x="505.27272727272725" y="173.8181818181818"/>
      <point x="364.1515151515151" y="173.8181818181818" type="curve" smooth="yes"/>
      <point x="129.72727272727272" y="173.8181818181818" type="line" smooth="yes"/>
      <point x="60.878787878787875" y="173.8181818181818"/>
      <point x="13.303030303030303" y="142.63636363636363"/>
      <point x="13.303030303030303" y="78.27272727272728" type="curve" smooth="yes"/>
      <point x="13.303030303030303" y="37.15151515151515"/>
      <point x="45.21212121212121" y="0.0"/>
    </contour>
  </outline>
</glyph>
<glyph name="uu-tamil" format="2">
  <advance width="1632.7272727272727"/>
  <unicode hex="0B8A"/>
  <note>
uni0B8A
</note>
  <anchor x="791.969696969697" y="0.0" name="bottom"/>
  <anchor x="792.969696969697" y="0.0" name="nukta"/>
  <anchor x="910.8181818181819" y="544.5454545454545" name="top"/>
  <anchor x="910.6060606060606" y="544.5454545454545" name="vedic"/>
  <outline>
    <contour>
      <point x="101.15151515151516" y="0.0" type="curve" smooth="yes"/>
      <point x="1558.3939393939395" y="0.0" type="line"/>
      <point x="1564.090909090909" y="29.575757575757578" type="line"/>
      <point x="103.36363636363636" y="29.575757575757578" type="line" smooth="yes"/>
      <point x="66.81818181818181" y="29.575757575757578"/>
      <point x="46.878787878787875" y="53.18181818181818"/>
      <point x="46.878787878787875" y="82.33333333333333" type="curve" smooth="yes"/>
      <point x="46.878787878787875" y="121.36363636363636"/>
      <point x="77.18181818181819" y="143.66666666666666"/>
      <point x="124.0909090909091" y="143.66666666666666" type="curve" smooth="yes"/>
      <point x="366.1515151515151" y="143.66666666666666" type="line" smooth="yes"/>
      <point x="529.2121212121212" y="143.66666666666666"/>
      <point x="649.969696969697" y="211.15151515151516"/>
      <point x="649.969696969697" y="363.1515151515151" type="curve" smooth="yes"/>
      <point x="649.969696969697" y="494.2121212121212"/>
      <point x="545.2727272727273" y="552.6969696969697"/>
      <point x="415.93939393939394" y="552.6969696969697" type="curve" smooth="yes"/>
      <point x="289.030303030303" y="552.6969696969697"/>
      <point x="170.96969696969697" y="478.4848484848485"/>
      <point x="170.96969696969697" y="375.7878787878788" type="curve" smooth="yes"/>
      <point x="170.96969696969697" y="314.1515151515151"/>
      <point x="213.75757575757575" y="261.969696969697"/>
      <point x="292.4848484848485" y="261.969696969697" type="curve" smooth="yes"/>
      <point x="374.6666666666667" y="261.969696969697"/>
      <point x="440.3030303030303" y="308.45454545454544"/>
      <point x="440.3030303030303" y="395.24242424242425" type="curve" smooth="yes"/>
      <point x="440.3030303030303" y="455.09090909090907"/>
      <point x="411.27272727272725" y="496.42424242424244"/>
      <point x="368.7878787878788" y="531.6060606060606" type="curve"/>
      <point x="333.9090909090909" y="527.030303030303" type="line"/>
      <point x="381.1515151515151" y="483.42424242424244"/>
      <point x="400.57575757575756" y="447.7878787878788"/>
      <point x="400.57575757575756" y="396.4848484848485" type="curve" smooth="yes"/>
      <point x="400.57575757575756" y="329.54545454545456"/>
      <point x="347.5151515151515" y="293.1212121212121"/>
      <point x="290.09090909090907" y="293.1212121212121" type="curve" smooth="yes"/>
      <point x="233.78787878787878" y="293.1212121212121"/>
      <point x="205.12121212121212" y="332.4848484848485"/>
      <point x="205.12121212121212" y="378.57575757575756" type="curve" smooth="yes"/>
      <point x="205.12121212121212" y="461.45454545454544"/>
      <point x="306.7878787878788" y="522.3333333333334"/>
      <point x="410.6060606060606" y="522.3333333333334" type="curve" smooth="yes"/>
      <point x="517.2727272727273" y="522.3333333333334"/>
      <point x="607.3939393939394" y="476.3333333333333"/>
      <point x="607.3939393939394" y="361.1515151515151" type="curve" smooth="yes"/>
      <point x="607.3939393939394" y="234.3939393939394"/>
      <point x="505.27272727272725" y="173.8181818181818"/>
      <point x="364.1515151515151" y="173.8181818181818" type="curve" smooth="yes"/>
      <point x="129.72727272727272" y="173.8181818181818" type="line" smooth="yes"/>
      <point x="60.878787878787875" y="173.8181818181818"/>
      <point x="13.303030303030303" y="142.63636363636363"/>
      <point x="13.303030303030303" y="78.27272727272728" type="curve" smooth="yes"/>
      <point x="13.303030303030303" y="37.15151515151515"/>
      <point x="45.21212121212121" y="0.0"/>
    </contour>
    <contour>
      <point x="887.7272727272727" y="103.78787878787878" type="curve" smooth="yes"/>
      <point x="971.1818181818182" y="103.78787878787878"/>
      <point x="1042.4545454545455" y="154.06060606060606"/>
      <point x="1042.4545454545455" y="253.75757575757575" type="curve" smooth="yes"/>
      <point x="1042.4545454545455" y="328.030303030303"/>
      <point x="991.030303030303" y="375.8181818181818"/>
      <point x="921.3333333333334" y="375.8181818181818" type="curve" smooth="yes"/>
      <point x="842.2727272727273" y="375.8181818181818"/>
      <point x="784.8484848484849" y="311.3939393939394"/>
      <point x="755.2121212121212" y="235.6969696969697" type="curve"/>
      <point x="765.4848484848485" y="209.57575757575756" type="line"/>
      <point x="797.2121212121212" y="283.6060606060606"/>
      <point x="843.3030303030303" y="342.75757575757575"/>
      <point x="909.1818181818181" y="342.75757575757575" type="curve" smooth="yes"/>
      <point x="964.6363636363636" y="342.75757575757575"/>
      <point x="1001.0909090909091" y="307.8181818181818"/>
      <point x="1001.0909090909091" y="249.63636363636363" type="curve" smooth="yes"/>
      <point x="1001.0909090909091" y="174.15151515151516"/>
      <point x="945.3939393939394" y="134.72727272727272"/>
      <point x="886.3939393939394" y="134.72727272727272" type="curve" smooth="yes"/>
      <point x="815.939393939394" y="134.72727272727272"/>
      <point x="762.5454545454545" y="192.24242424242425"/>
      <point x="763.3333333333334" y="281.93939393939394" type="curve" smooth="yes"/>
      <point x="764.1212121212121" y="393.72727272727275"/>
      <point x="856.0909090909091" y="522.3333333333334"/>
      <point x="1005.3636363636364" y="522.3333333333334" type="curve" smooth="yes"/>
      <point x="1112.969696969697" y="522.3333333333334"/>
      <point x="1216.7575757575758" y="457.030303030303"/>
      <point x="1185.6060606060605" y="312.27272727272725" type="curve"/>
      <point x="1211.6363636363637" y="313.06060606060606" type="line"/>
      <point x="1246.0" y="478.1212121212121"/>
      <point x="1134.030303030303" y="553.4848484848485"/>
      <point x="1004.2424242424242" y="552.6969696969697" type="curve" smooth="yes"/>
      <point x="834.060606060606" y="551.9090909090909"/>
      <point x="729.1818181818181" y="406.3333333333333"/>
      <point x="729.1818181818181" y="280.3636363636364" type="curve" smooth="yes"/>
      <point x="729.1818181818181" y="177.27272727272728"/>
      <point x="798.1818181818181" y="103.78787878787878"/>
    </contour>
    <contour>
      <point x="1141.878787878788" y="107.0" type="line"/>
      <point x="1182.878787878788" y="107.0" type="line"/>
      <point x="1270.030303030303" y="515.3939393939394" type="line"/>
      <point x="1489.969696969697" y="515.3939393939394" type="line"/>
      <point x="1403.6060606060605" y="107.0" type="line"/>
      <point x="1445.3939393939395" y="107.0" type="line"/>
      <point x="1531.7575757575758" y="515.3939393939394" type="line"/>
      <point x="1667.7575757575758" y="515.3939393939394" type="line"/>
      <point x="1674.030303030303" y="544.5454545454545" type="line"/>
      <point x="1235.3636363636363" y="544.5454545454545" type="line"/>
      <point x="1205.4545454545455" y="405.7878787878788" type="line"/>
      <point x="1201.2424242424242" y="388.3939393939394" type="line"/>
    </contour>
  </outline>
</glyph>
<glyph name="e-tamil" format="2">
  <advance width="841.3030303030303"/>
  <unicode hex="0B8E"/>
  <note>
uni0B8E
</note>
  <anchor x="391.0909090909091" y="0.0" name="bottom"/>
  <anchor x="392.0909090909091" y="0.0" name="nukta"/>
  <anchor x="509.3030303030303" y="544.5454545454545" name="top"/>
  <anchor x="509.72727272727275" y="544.5454545454545" name="vedic"/>
  <outline>
    <contour>
      <point x="231.3030303030303" y="-4.212121212121212" type="curve" smooth="yes"/>
      <point x="322.06060606060606" y="-4.212121212121212"/>
      <point x="391.45454545454544" y="56.57575757575758"/>
      <point x="391.45454545454544" y="157.33333333333334" type="curve" smooth="yes"/>
      <point x="391.45454545454544" y="231.12121212121212"/>
      <point x="343.1818181818182" y="287.24242424242425"/>
      <point x="263.7878787878788" y="287.24242424242425" type="curve" smooth="yes"/>
      <point x="169.57575757575756" y="287.24242424242425"/>
      <point x="109.39393939393939" y="212.45454545454547"/>
      <point x="80.66666666666667" y="130.87878787878788" type="curve"/>
      <point x="94.84848484848484" y="105.45454545454545" type="line"/>
      <point x="127.45454545454545" y="187.15151515151516"/>
      <point x="174.15151515151516" y="253.33333333333334"/>
      <point x="251.9090909090909" y="253.33333333333334" type="curve" smooth="yes"/>
      <point x="318.5151515151515" y="253.33333333333334"/>
      <point x="348.6666666666667" y="210.03030303030303"/>
      <point x="348.6666666666667" y="153.21212121212122" type="curve" smooth="yes"/>
      <point x="348.6666666666667" y="76.24242424242425"/>
      <point x="297.4848484848485" y="26.93939393939394"/>
      <point x="230.54545454545456" y="26.93939393939394" type="curve" smooth="yes"/>
      <point x="145.72727272727272" y="26.93939393939394"/>
      <point x="85.93939393939394" y="92.45454545454545"/>
      <point x="85.93939393939394" y="213.27272727272728" type="curve" smooth="yes"/>
      <point x="85.93939393939394" y="381.75757575757575"/>
      <point x="202.33333333333334" y="514.969696969697"/>
      <point x="424.24242424242425" y="514.969696969697" type="curve" smooth="yes"/>
      <point x="663.8787878787879" y="514.969696969697" type="line"/>
      <point x="554.7272727272727" y="0.0" type="line"/>
      <point x="596.5151515151515" y="0.0" type="line"/>
      <point x="705.6666666666666" y="514.969696969697" type="line"/>
      <point x="868.7272727272727" y="514.969696969697" type="line"/>
      <point x="875.0" y="544.5454545454545" type="line"/>
      <point x="426.1818181818182" y="544.5454545454545" type="line" smooth="yes"/>
      <point x="176.93939393939394" y="544.5454545454545"/>
      <point x="52.36363636363636" y="395.72727272727275"/>
      <point x="52.36363636363636" y="210.63636363636363" type="curve" smooth="yes"/>
      <point x="52.36363636363636" y="74.6969696969697"/>
      <point x="128.54545454545456" y="-4.212121212121212"/>
    </contour>
  </outline>
</glyph>
<glyph name="ee-tamil" format="2">
  <advance width="841.0909090909091"/>
  <unicode hex="0B8F"/>
  <note>
uni0B8F
</note>
  <anchor x="390.8787878787879" y="0.0" name="bottom"/>
  <anchor x="350.8787878787879" y="-195.0" name="nukta"/>
  <anchor x="508.72727272727275" y="544.5454545454545" name="top"/>
  <anchor x="509.5151515151515" y="544.5454545454545" name="vedic"/>
  <outline>
    <contour>
      <point x="351.1212121212121" y="-214.78787878787878" type="line"/>
      <point x="596.939393939394" y="0.6060606060606073" type="line"/>
      <point x="706.4545454545455" y="514.969696969697" type="line"/>
      <point x="868.5151515151515" y="514.969696969697" type="line"/>
      <point x="875.0" y="544.5454545454545" type="line"/>
      <point x="426.1818181818182" y="544.5454545454545" type="line" smooth="yes"/>
      <point x="176.93939393939394" y="544.5454545454545"/>
      <point x="52.36363636363636" y="395.72727272727275"/>
      <point x="52.36363636363636" y="210.63636363636363" type="curve" smooth="yes"/>
      <point x="52.36363636363636" y="74.6969696969697"/>
      <point x="127.75757575757575" y="-4.212121212121212"/>
      <point x="230.5151515151515" y="-4.212121212121212" type="curve" smooth="yes"/>
      <point x="321.27272727272725" y="-4.212121212121212"/>
      <point x="391.45454545454544" y="56.57575757575758"/>
      <point x="391.45454545454544" y="157.33333333333334" type="curve" smooth="yes"/>
      <point x="391.45454545454544" y="230.33333333333334"/>
      <point x="343.1818181818182" y="287.24242424242425"/>
      <point x="263.7878787878788" y="287.24242424242425" type="curve" smooth="yes"/>
      <point x="169.57575757575756" y="287.24242424242425"/>
      <point x="109.39393939393939" y="212.45454545454547"/>
      <point x="80.66666666666667" y="130.87878787878788" type="curve"/>
      <point x="94.84848484848484" y="105.45454545454545" type="line"/>
      <point x="127.45454545454545" y="187.15151515151516"/>
      <point x="174.15151515151516" y="253.33333333333334"/>
      <point x="251.9090909090909" y="253.33333333333334" type="curve" smooth="yes"/>
      <point x="318.5151515151515" y="253.33333333333334"/>
      <point x="348.6666666666667" y="210.03030303030303"/>
      <point x="348.6666666666667" y="153.21212121212122" type="curve" smooth="yes"/>
      <point x="348.6666666666667" y="76.24242424242425"/>
      <point x="296.6969696969697" y="26.93939393939394"/>
      <point x="229.75757575757575" y="26.93939393939394" type="curve" smooth="yes"/>
      <point x="144.93939393939394" y="26.93939393939394"/>
      <point x="85.93939393939394" y="92.45454545454545"/>
      <point x="85.93939393939394" y="213.27272727272728" type="curve" smooth="yes"/>
      <point x="85.93939393939394" y="381.75757575757575"/>
      <point x="202.33333333333334" y="514.969696969697"/>
      <point x="424.24242424242425" y="514.969696969697" type="curve" smooth="yes"/>
      <point x="663.8787878787879" y="514.969696969697" type="line"/>
      <point x="556.7272727272727" y="9.575757575757576" type="line"/>
      <point x="329.8787878787879" y="-189.6969696969697" type="line"/>
    </contour>
  </outline>
</glyph>
<glyph name="ai-tamil" format="2">
  <advance width="943.3636363636364"/>
  <unicode hex="0B90"/>
  <note>
uni0B90
</note>
  <anchor x="424.42424242424244" y="0.0" name="bottom"/>
  <anchor x="362.6666666666667" y="-281.8181818181818" name="nukta"/>
  <anchor x="543.1212121212121" y="544.5454545454545" name="top"/>
  <anchor x="543.6969696969697" y="544.5454545454545" name="vedic"/>
  <outline>
    <contour>
      <point x="166.24242424242425" y="-281.8181818181818" type="curve" smooth="yes"/>
      <point x="282.93939393939394" y="-281.8181818181818"/>
      <point x="360.6363636363636" y="-218.75757575757575"/>
      <point x="403.8484848484849" y="-149.9090909090909" type="curve"/>
      <point x="412.90909090909093" y="-218.4848484848485"/>
      <point x="471.3030303030303" y="-281.8181818181818"/>
      <point x="575.3030303030303" y="-281.8181818181818" type="curve" smooth="yes"/>
      <point x="713.5757575757576" y="-281.8181818181818"/>
      <point x="804.4848484848485" y="-198.3030303030303"/>
      <point x="804.4848484848485" y="-60.75757575757576" type="curve" smooth="yes"/>
      <point x="804.4848484848485" y="-13.272727272727273"/>
      <point x="788.4848484848485" y="35.93939393939394"/>
      <point x="765.8484848484849" y="79.15151515151516" type="curve"/>
      <point x="734.3939393939394" y="61.18181818181818" type="line"/>
      <point x="752.2424242424242" y="27.757575757575758"/>
      <point x="768.7575757575758" y="-19.60606060606061"/>
      <point x="768.7575757575758" y="-63.333333333333336" type="curve" smooth="yes"/>
      <point x="768.7575757575758" y="-176.6969696969697"/>
      <point x="689.5454545454545" y="-249.96969696969697"/>
      <point x="577.4545454545455" y="-249.96969696969697" type="curve" smooth="yes"/>
      <point x="463.75757575757575" y="-249.96969696969697"/>
      <point x="419.6060606060606" y="-172.9090909090909"/>
      <point x="440.969696969697" y="-66.24242424242425" type="curve" smooth="yes"/>
      <point x="451.3333333333333" y="-15.0" type="line"/>
      <point x="412.9090909090909" y="-15.0" type="line"/>
      <point x="398.3939393939394" y="-79.21212121212122" type="line" smooth="yes"/>
      <point x="380.1212121212121" y="-159.72727272727272"/>
      <point x="289.93939393939394" y="-251.24242424242425"/>
      <point x="172.0909090909091" y="-251.24242424242425" type="curve" smooth="yes"/>
      <point x="80.54545454545455" y="-251.24242424242425"/>
      <point x="32.54545454545455" y="-201.57575757575756"/>
      <point x="32.54545454545455" y="-116.06060606060606" type="curve" smooth="yes"/>
      <point x="32.54545454545455" y="52.666666666666664"/>
      <point x="205.4848484848485" y="67.24242424242425"/>
      <point x="449.57575757575756" y="88.24242424242425" type="curve" smooth="yes"/>
      <point x="691.3333333333334" y="109.03030303030303"/>
      <point x="892.7878787878788" y="159.57575757575756"/>
      <point x="892.7878787878788" y="385.57575757575756" type="curve" smooth="yes"/>
      <point x="892.7878787878788" y="498.1212121212121"/>
      <point x="814.6060606060606" y="552.6969696969697"/>
      <point x="720.3939393939394" y="552.6969696969697" type="curve" smooth="yes"/>
      <point x="617.2727272727273" y="552.6969696969697"/>
      <point x="553.1515151515151" y="490.7878787878788"/>
      <point x="515.4545454545455" y="418.8787878787879" type="curve"/>
      <point x="497.969696969697" y="494.7878787878788"/>
      <point x="434.5151515151515" y="552.6969696969697"/>
      <point x="321.030303030303" y="552.6969696969697" type="curve" smooth="yes"/>
      <point x="178.27272727272728" y="552.6969696969697"/>
      <point x="71.15151515151516" y="450.90909090909093"/>
      <point x="71.15151515151516" y="313.3636363636364" type="curve" smooth="yes"/>
      <point x="71.15151515151516" y="235.66666666666666"/>
      <point x="120.27272727272728" y="162.3030303030303"/>
      <point x="205.9090909090909" y="162.3030303030303" type="curve" smooth="yes"/>
      <point x="279.45454545454544" y="162.3030303030303"/>
      <point x="345.42424242424244" y="209.5151515151515"/>
      <point x="345.42424242424244" y="296.42424242424244" type="curve" smooth="yes"/>
      <point x="345.42424242424244" y="355.1818181818182"/>
      <point x="305.6666666666667" y="400.969696969697"/>
      <point x="239.66666666666666" y="400.969696969697" type="curve" smooth="yes"/>
      <point x="166.63636363636363" y="400.969696969697"/>
      <point x="117.39393939393939" y="344.90909090909093"/>
      <point x="88.6969696969697" y="267.5151515151515" type="curve"/>
      <point x="102.75757575757575" y="242.9090909090909" type="line"/>
      <point x="133.54545454545456" y="319.6363636363636"/>
      <point x="172.1818181818182" y="369.3333333333333"/>
      <point x="228.0909090909091" y="369.3333333333333" type="curve" smooth="yes"/>
      <point x="277.6969696969697" y="369.3333333333333"/>
      <point x="303.8484848484849" y="337.45454545454544"/>
      <point x="303.8484848484849" y="293.3636363636364" type="curve" smooth="yes"/>
      <point x="303.8484848484849" y="234.54545454545456"/>
      <point x="262.45454545454544" y="194.24242424242425"/>
      <point x="204.78787878787878" y="194.24242424242425" type="curve" smooth="yes"/>
      <point x="138.36363636363637" y="194.24242424242425"/>
      <point x="104.30303030303031" y="249.72727272727272"/>
      <point x="104.30303030303031" y="313.5151515151515" type="curve" smooth="yes"/>
      <point x="104.30303030303031" y="429.8787878787879"/>
      <point x="195.66666666666666" y="521.5454545454545"/>
      <point x="315.8181818181818" y="521.5454545454545" type="curve" smooth="yes"/>
      <point x="434.27272727272725" y="521.5454545454545"/>
      <point x="504.9090909090909" y="444.24242424242425"/>
      <point x="481.1212121212121" y="332.6666666666667" type="curve" smooth="yes"/>
      <point x="455.75757575757575" y="209.4848484848485" type="line"/>
      <point x="494.1818181818182" y="209.4848484848485" type="line"/>
      <point x="524.1818181818182" y="354.54545454545456" type="line" smooth="yes"/>
      <point x="539.969696969697" y="429.75757575757575"/>
      <point x="607.3636363636364" y="522.3333333333334"/>
      <point x="713.6363636363636" y="522.3333333333334" type="curve" smooth="yes"/>
      <point x="795.4242424242424" y="522.3333333333334"/>
      <point x="848.8484848484849" y="470.6969696969697"/>
      <point x="848.8484848484849" y="382.6363636363636" type="curve" smooth="yes"/>
      <point x="848.8484848484849" y="177.06060606060606"/>
      <point x="676.0" y="135.06060606060606"/>
      <point x="432.6060606060606" y="114.48484848484848" type="curve" smooth="yes"/>
      <point x="178.24242424242425" y="93.48484848484848"/>
      <point x="-9.606060606060607" y="68.27272727272728"/>
      <point x="-9.606060606060607" y="-117.63636363636364" type="curve" smooth="yes"/>
      <point x="-9.606060606060607" y="-218.03030303030303"/>
      <point x="59.63636363636364" y="-281.8181818181818"/>
    </contour>
  </outline>
</glyph>
<glyph name="o-tamil" format="2">
  <advance width="958.9090909090909"/>
  <unicode hex="0B92"/>
  <note>
uni0B92
</note>
  <anchor x="419.8484848484849" y="0.0" name="bottom"/>
  <anchor x="346.8484848484849" y="-335.0" name="nukta"/>
  <anchor x="514.7878787878788" y="544.5454545454545" name="top"/>
  <anchor x="515.2727272727273" y="544.5454545454545" name="vedic"/>
  <outline>
    <contour>
      <point x="240.6969696969697" y="-316.72727272727275" type="curve" smooth="yes"/>
      <point x="407.8484848484849" y="-316.72727272727275"/>
      <point x="467.969696969697" y="-134.96969696969697"/>
      <point x="647.8484848484849" y="-134.96969696969697" type="curve" smooth="yes"/>
      <point x="678.2727272727273" y="-134.96969696969697" type="line"/>
      <point x="684.5454545454545" y="-104.81818181818181" type="line"/>
      <point x="645.4545454545455" y="-104.81818181818181" type="line" smooth="yes"/>
      <point x="456.6060606060606" y="-104.81818181818181"/>
      <point x="441.2121212121212" y="110.36363636363636"/>
      <point x="582.8181818181819" y="230.06060606060606" type="curve"/>
      <point x="587.6060606060606" y="226.06060606060606" type="line"/>
      <point x="516.3030303030303" y="125.33333333333333"/>
      <point x="537.1212121212121" y="-5.0"/>
      <point x="663.4242424242424" y="-5.0" type="curve" smooth="yes"/>
      <point x="789.5454545454545" y="-5.0"/>
      <point x="882.6666666666666" y="93.0909090909091"/>
      <point x="882.6666666666666" y="239.72727272727272" type="curve" smooth="yes"/>
      <point x="882.6666666666666" y="444.7878787878788"/>
      <point x="708.7878787878788" y="552.6969696969697"/>
      <point x="487.8787878787879" y="552.6969696969697" type="curve" smooth="yes"/>
      <point x="226.84848484848484" y="552.6969696969697"/>
      <point x="48.78787878787879" y="385.06060606060606"/>
      <point x="48.78787878787879" y="208.27272727272728" type="curve" smooth="yes"/>
      <point x="48.78787878787879" y="72.33333333333333"/>
      <point x="117.87878787878788" y="-4.212121212121212"/>
      <point x="220.63636363636363" y="-4.212121212121212" type="curve" smooth="yes"/>
      <point x="311.3939393939394" y="-4.212121212121212"/>
      <point x="387.8787878787879" y="55.0"/>
      <point x="387.8787878787879" y="157.33333333333334" type="curve" smooth="yes"/>
      <point x="387.8787878787879" y="231.12121212121212"/>
      <point x="339.6060606060606" y="287.24242424242425"/>
      <point x="260.2121212121212" y="287.24242424242425" type="curve" smooth="yes"/>
      <point x="166.0" y="287.24242424242425"/>
      <point x="105.81818181818181" y="212.45454545454547"/>
      <point x="77.0909090909091" y="130.87878787878788" type="curve"/>
      <point x="91.27272727272728" y="105.45454545454545" type="line"/>
      <point x="123.87878787878788" y="187.15151515151516"/>
      <point x="170.57575757575756" y="253.33333333333334"/>
      <point x="248.33333333333334" y="253.33333333333334" type="curve" smooth="yes"/>
      <point x="314.93939393939394" y="253.33333333333334"/>
      <point x="345.09090909090907" y="210.03030303030303"/>
      <point x="345.09090909090907" y="153.21212121212122" type="curve" smooth="yes"/>
      <point x="345.09090909090907" y="76.24242424242425"/>
      <point x="286.8181818181818" y="26.93939393939394"/>
      <point x="219.87878787878788" y="26.93939393939394" type="curve" smooth="yes"/>
      <point x="135.06060606060606" y="26.93939393939394"/>
      <point x="82.36363636363636" y="90.0909090909091"/>
      <point x="82.36363636363636" y="210.9090909090909" type="curve" smooth="yes"/>
      <point x="82.36363636363636" y="370.24242424242425"/>
      <point x="250.4848484848485" y="522.3333333333334"/>
      <point x="485.3939393939394" y="522.3333333333334" type="curve" smooth="yes"/>
      <point x="686.6969696969697" y="522.3333333333334"/>
      <point x="840.5151515151515" y="422.1515151515151"/>
      <point x="840.5151515151515" y="238.6969696969697" type="curve" smooth="yes"/>
      <point x="840.5151515151515" y="119.30303030303031"/>
      <point x="769.969696969697" y="26.93939393939394"/>
      <point x="664.7878787878788" y="26.93939393939394" type="curve" smooth="yes"/>
      <point x="550.2424242424242" y="26.93939393939394"/>
      <point x="556.3636363636364" y="162.96969696969697"/>
      <point x="639.5757575757576" y="256.8484848484849" type="curve"/>
      <point x="608.7575757575758" y="285.8787878787879" type="line"/>
      <point x="423.54545454545456" y="152.96969696969697"/>
      <point x="401.969696969697" y="-59.21212121212121"/>
      <point x="564.0" y="-116.93939393939394" type="curve"/>
      <point x="563.0" y="-121.15151515151516" type="line"/>
      <point x="413.969696969697" y="-149.54545454545453"/>
      <point x="368.24242424242425" y="-280.6666666666667"/>
      <point x="237.57575757575756" y="-280.6666666666667" type="curve" smooth="yes"/>
      <point x="176.6060606060606" y="-280.6666666666667"/>
      <point x="147.03030303030303" y="-240.21212121212122"/>
      <point x="147.03030303030303" y="-194.6969696969697" type="curve" smooth="yes"/>
      <point x="147.03030303030303" y="-146.27272727272728"/>
      <point x="175.3939393939394" y="-117.96969696969697"/>
      <point x="224.54545454545456" y="-81.39393939393939" type="curve"/>
      <point x="206.15151515151516" y="-56.57575757575758" type="line"/>
      <point x="149.0909090909091" y="-99.42424242424242"/>
      <point x="112.45454545454545" y="-131.6969696969697"/>
      <point x="112.45454545454545" y="-197.6060606060606" type="curve" smooth="yes"/>
      <point x="112.45454545454545" y="-261.72727272727275"/>
      <point x="156.21212121212122" y="-316.72727272727275"/>
    </contour>
  </outline>
</glyph>
<glyph name="oo-tamil" format="2">
  <advance width="958.9090909090909"/>
  <unicode hex="0B93"/>
  <note>
uni0B93
</note>
  <anchor x="414.3939393939394" y="0.0" name="bottom"/>
  <anchor x="348.54545454545456" y="-300.030303030303" name="nukta"/>
  <anchor x="514.7878787878788" y="544.5454545454545" name="top"/>
  <anchor x="515.2727272727273" y="544.5454545454545" name="vedic"/>
  <outline>
    <contour>
      <point x="230.84848484848484" y="-322.7878787878788" type="curve" smooth="yes"/>
      <point x="392.030303030303" y="-322.7878787878788"/>
      <point x="467.75757575757575" y="-134.96969696969697"/>
      <point x="647.6363636363636" y="-134.96969696969697" type="curve" smooth="yes"/>
      <point x="666.7878787878788" y="-134.96969696969697" type="line"/>
      <point x="673.060606060606" y="-104.81818181818181" type="line"/>
      <point x="645.2424242424242" y="-104.81818181818181" type="line" smooth="yes"/>
      <point x="456.3939393939394" y="-104.81818181818181"/>
      <point x="440.7878787878788" y="110.36363636363636"/>
      <point x="582.6060606060606" y="229.84848484848484" type="curve"/>
      <point x="587.6060606060606" y="226.06060606060606" type="line"/>
      <point x="516.3030303030303" y="125.33333333333333"/>
      <point x="537.1212121212121" y="-5.0"/>
      <point x="663.4242424242424" y="-5.0" type="curve" smooth="yes"/>
      <point x="789.5454545454545" y="-5.0"/>
      <point x="882.6666666666666" y="93.0909090909091"/>
      <point x="882.6666666666666" y="239.72727272727272" type="curve" smooth="yes"/>
      <point x="882.6666666666666" y="444.7878787878788"/>
      <point x="708.7878787878788" y="552.6969696969697"/>
      <point x="487.8787878787879" y="552.6969696969697" type="curve" smooth="yes"/>
      <point x="226.84848484848484" y="552.6969696969697"/>
      <point x="48.78787878787879" y="385.06060606060606"/>
      <point x="48.78787878787879" y="208.27272727272728" type="curve" smooth="yes"/>
      <point x="48.78787878787879" y="72.33333333333333"/>
      <point x="117.87878787878788" y="-4.212121212121212"/>
      <point x="220.63636363636363" y="-4.212121212121212" type="curve" smooth="yes"/>
      <point x="311.3939393939394" y="-4.212121212121212"/>
      <point x="387.8787878787879" y="55.0"/>
      <point x="387.8787878787879" y="157.33333333333334" type="curve" smooth="yes"/>
      <point x="387.8787878787879" y="231.12121212121212"/>
      <point x="339.6060606060606" y="287.24242424242425"/>
      <point x="260.2121212121212" y="287.24242424242425" type="curve" smooth="yes"/>
      <point x="166.0" y="287.24242424242425"/>
      <point x="105.81818181818181" y="212.45454545454547"/>
      <point x="77.0909090909091" y="130.87878787878788" type="curve"/>
      <point x="91.27272727272728" y="105.45454545454545" type="line"/>
      <point x="123.87878787878788" y="187.15151515151516"/>
      <point x="170.57575757575756" y="253.33333333333334"/>
      <point x="248.33333333333334" y="253.33333333333334" type="curve" smooth="yes"/>
      <point x="314.93939393939394" y="253.33333333333334"/>
      <point x="345.09090909090907" y="210.03030303030303"/>
      <point x="345.09090909090907" y="153.21212121212122" type="curve" smooth="yes"/>
      <point x="345.09090909090907" y="76.24242424242425"/>
      <point x="286.8181818181818" y="26.93939393939394"/>
      <point x="219.87878787878788" y="26.93939393939394" type="curve" smooth="yes"/>
      <point x="135.06060606060606" y="26.93939393939394"/>
      <point x="82.36363636363636" y="90.0909090909091"/>
      <point x="82.36363636363636" y="210.9090909090909" type="curve" smooth="yes"/>
      <point x="82.36363636363636" y="370.24242424242425"/>
      <point x="250.4848484848485" y="522.3333333333334"/>
      <point x="485.3939393939394" y="522.3333333333334" type="curve" smooth="yes"/>
      <point x="686.6969696969697" y="522.3333333333334"/>
      <point x="840.5151515151515" y="422.1515151515151"/>
      <point x="840.5151515151515" y="238.6969696969697" type="curve" smooth="yes"/>
      <point x="840.5151515151515" y="119.30303030303031"/>
      <point x="769.969696969697" y="26.93939393939394"/>
      <point x="664.7878787878788" y="26.93939393939394" type="curve" smooth="yes"/>
      <point x="550.2424242424242" y="26.93939393939394"/>
      <point x="556.3636363636364" y="162.96969696969697"/>
      <point x="639.5757575757576" y="256.8484848484849" type="curve"/>
      <point x="608.7575757575758" y="285.8787878787879" type="line"/>
      <point x="422.90909090909093" y="152.96969696969697"/>
      <point x="401.75757575757575" y="-59.21212121212121"/>
      <point x="563.7878787878788" y="-116.93939393939394" type="curve"/>
      <point x="562.7878787878788" y="-121.15151515151516" type="line"/>
      <point x="413.75757575757575" y="-149.54545454545453"/>
      <point x="350.09090909090907" y="-286.72727272727275"/>
      <point x="227.3030303030303" y="-286.72727272727275" type="curve" smooth="yes"/>
      <point x="169.21212121212122" y="-286.72727272727275"/>
      <point x="133.1818181818182" y="-253.0"/>
      <point x="133.1818181818182" y="-201.3939393939394" type="curve" smooth="yes"/>
      <point x="133.1818181818182" y="-146.0909090909091"/>
      <point x="172.54545454545456" y="-109.84848484848484"/>
      <point x="222.78787878787878" y="-109.84848484848484" type="curve" smooth="yes"/>
      <point x="258.2121212121212" y="-109.84848484848484"/>
      <point x="283.8484848484849" y="-129.42424242424244"/>
      <point x="290.3333333333333" y="-153.75757575757575" type="curve"/>
      <point x="309.45454545454544" y="-144.33333333333334"/>
      <point x="326.3333333333333" y="-130.78787878787878"/>
      <point x="326.3333333333333" y="-106.39393939393939" type="curve" smooth="yes"/>
      <point x="326.3333333333333" y="-79.36363636363636"/>
      <point x="292.7878787878788" y="-61.72727272727273"/>
      <point x="248.3030303030303" y="-61.72727272727273" type="curve" smooth="yes"/>
      <point x="159.9090909090909" y="-61.72727272727273"/>
      <point x="98.60606060606061" y="-129.72727272727272"/>
      <point x="98.60606060606061" y="-205.45454545454547" type="curve" smooth="yes"/>
      <point x="98.60606060606061" y="-275.72727272727275"/>
      <point x="155.15151515151516" y="-322.7878787878788"/>
    </contour>
  </outline>
</glyph>
<glyph name="ka-tamil" format="2">
  <advance width="782.6363636363636"/>
  <unicode hex="0B95"/>
  <note>
uni0B95
</note>
  <anchor x="340.8787878787879" y="0.0" name="bottom"/>
  <anchor x="560.2121212121212" y="544.5454545454545" name="imatra"/>
  <anchor x="344.8181818181818" y="0.0" name="nukta"/>
  <anchor x="458.1818181818182" y="544.5454545454545" name="top"/>
  <anchor x="464.5151515151515" y="544.5454545454545" name="vedic"/>
  <outline>
    <contour>
      <point x="201.36363636363637" y="-4.0" type="curve" smooth="yes"/>
      <point x="313.24242424242425" y="-4.0"/>
      <point x="379.57575757575756" y="56.42424242424242"/>
      <point x="407.57575757575756" y="183.27272727272728" type="curve" smooth="yes"/>
      <point x="427.5151515151515" y="272.45454545454544" type="line"/>
      <point x="520.5454545454545" y="272.45454545454544" type="line" smooth="yes"/>
      <point x="615.969696969697" y="272.45454545454544"/>
      <point x="655.3333333333334" y="226.84848484848484"/>
      <point x="655.3333333333334" y="157.75757575757575" type="curve" smooth="yes"/>
      <point x="655.3333333333334" y="77.87878787878788"/>
      <point x="588.5757575757576" y="27.363636363636363"/>
      <point x="507.8484848484849" y="27.363636363636363" type="curve" smooth="yes"/>
      <point x="462.6060606060606" y="27.363636363636363" type="line"/>
      <point x="457.1212121212121" y="-2.0" type="line"/>
      <point x="510.1212121212121" y="-2.0" type="line" smooth="yes"/>
      <point x="614.5757575757576" y="-2.0"/>
      <point x="697.1212121212121" y="57.06060606060606"/>
      <point x="697.1212121212121" y="162.96969696969697" type="curve" smooth="yes"/>
      <point x="697.1212121212121" y="248.45454545454547"/>
      <point x="641.3636363636364" y="302.8181818181818"/>
      <point x="525.8181818181819" y="302.8181818181818" type="curve" smooth="yes"/>
      <point x="433.7878787878788" y="302.8181818181818" type="line"/>
      <point x="479.0909090909091" y="514.969696969697" type="line"/>
      <point x="660.5454545454545" y="514.969696969697" type="line"/>
      <point x="666.8181818181819" y="544.5454545454545" type="line"/>
      <point x="221.42424242424244" y="544.5454545454545" type="line"/>
      <point x="166.0" y="284.42424242424244" type="line"/>
      <point x="198.42424242424244" y="284.42424242424244" type="line"/>
      <point x="247.36363636363637" y="514.969696969697" type="line"/>
      <point x="437.3030303030303" y="514.969696969697" type="line"/>
      <point x="392.0" y="302.8181818181818" type="line"/>
      <point x="238.75757575757575" y="302.8181818181818" type="line" smooth="yes"/>
      <point x="119.6969696969697" y="302.8181818181818"/>
      <point x="37.15151515151515" y="237.72727272727272"/>
      <point x="37.15151515151515" y="137.75757575757575" type="curve" smooth="yes"/>
      <point x="37.15151515151515" y="52.21212121212121"/>
      <point x="102.39393939393939" y="-4.0"/>
    </contour>
    <contour>
      <point x="201.3030303030303" y="26.93939393939394" type="curve" smooth="yes"/>
      <point x="125.78787878787878" y="26.93939393939394"/>
      <point x="77.72727272727272" y="69.24242424242425"/>
      <point x="77.72727272727272" y="142.3939393939394" type="curve" smooth="yes"/>
      <point x="77.72727272727272" y="217.96969696969697"/>
      <point x="134.57575757575756" y="272.45454545454544"/>
      <point x="236.33333333333334" y="272.45454545454544" type="curve" smooth="yes"/>
      <point x="385.72727272727275" y="272.45454545454544" type="line"/>
      <point x="365.57575757575756" y="179.42424242424244" type="line" smooth="yes"/>
      <point x="344.7878787878788" y="81.63636363636364"/>
      <point x="289.1212121212121" y="26.93939393939394"/>
    </contour>
  </outline>
</glyph>
<glyph name="ja-tamil" format="2">
  <advance width="947.030303030303"/>
  <unicode hex="0B9C"/>
  <note>
uni0B9C
</note>
  <anchor x="424.8484848484849" y="0.0" name="bottom"/>
  <anchor x="363.09090909090907" y="-281.8181818181818" name="nukta"/>
  <anchor x="532.030303030303" y="544.5454545454545" name="top"/>
  <anchor x="530.2424242424242" y="544.5454545454545" name="vedic"/>
  <outline>
    <contour>
      <point x="146.75757575757575" y="-281.8181818181818" type="curve" smooth="yes"/>
      <point x="349.5151515151515" y="-281.8181818181818"/>
      <point x="432.24242424242425" y="-2.030303030303031"/>
      <point x="637.5151515151515" y="-2.030303030303031" type="curve" smooth="yes"/>
      <point x="713.7575757575758" y="-2.030303030303031"/>
      <point x="755.6363636363636" y="-49.333333333333336"/>
      <point x="755.6363636363636" y="-114.36363636363636" type="curve" smooth="yes"/>
      <point x="755.6363636363636" y="-198.66666666666666"/>
      <point x="692.8787878787879" y="-252.5151515151515"/>
      <point x="610.6666666666666" y="-252.5151515151515" type="curve" smooth="yes"/>
      <point x="567.6969696969697" y="-252.5151515151515"/>
      <point x="534.1212121212121" y="-239.0"/>
      <point x="503.4848484848485" y="-217.42424242424244" type="curve"/>
      <point x="485.3636363636364" y="-242.24242424242425" type="line"/>
      <point x="520.4242424242424" y="-267.45454545454544"/>
      <point x="557.5454545454545" y="-281.8181818181818"/>
      <point x="614.4242424242424" y="-281.8181818181818" type="curve" smooth="yes"/>
      <point x="715.7575757575758" y="-281.8181818181818"/>
      <point x="799.0" y="-218.24242424242425"/>
      <point x="799.0" y="-112.78787878787878" type="curve" smooth="yes"/>
      <point x="799.0" y="-26.06060606060606"/>
      <point x="739.8484848484849" y="28.333333333333336"/>
      <point x="642.6969696969697" y="28.333333333333336" type="curve" smooth="yes"/>
      <point x="415.54545454545456" y="28.333333333333336"/>
      <point x="328.90909090909093" y="-251.66666666666666"/>
      <point x="151.5151515151515" y="-251.66666666666666" type="curve" smooth="yes"/>
      <point x="73.78787878787878" y="-251.66666666666666"/>
      <point x="35.696969696969695" y="-200.5151515151515"/>
      <point x="35.696969696969695" y="-126.03030303030303" type="curve" smooth="yes"/>
      <point x="35.696969696969695" y="38.93939393939394"/>
      <point x="201.84848484848484" y="67.45454545454545"/>
      <point x="445.93939393939394" y="88.66666666666667" type="curve" smooth="yes"/>
      <point x="690.4545454545455" y="109.87878787878788"/>
      <point x="893.2121212121212" y="160.0"/>
      <point x="893.2121212121212" y="385.57575757575756" type="curve" smooth="yes"/>
      <point x="893.2121212121212" y="498.1212121212121"/>
      <point x="815.030303030303" y="552.6969696969697"/>
      <point x="720.8181818181819" y="552.6969696969697" type="curve" smooth="yes"/>
      <point x="617.6969696969697" y="552.6969696969697"/>
      <point x="553.5757575757576" y="490.7878787878788"/>
      <point x="515.8787878787879" y="418.8787878787879" type="curve"/>
      <point x="498.3939393939394" y="494.7878787878788"/>
      <point x="434.93939393939394" y="552.6969696969697"/>
      <point x="321.45454545454544" y="552.6969696969697" type="curve" smooth="yes"/>
      <point x="178.6969696969697" y="552.6969696969697"/>
      <point x="71.57575757575758" y="450.90909090909093"/>
      <point x="71.57575757575758" y="313.3636363636364" type="curve" smooth="yes"/>
      <point x="71.57575757575758" y="235.66666666666666"/>
      <point x="120.6969696969697" y="162.3030303030303"/>
      <point x="206.33333333333334" y="162.3030303030303" type="curve" smooth="yes"/>
      <point x="279.8787878787879" y="162.3030303030303"/>
      <point x="345.8484848484849" y="209.5151515151515"/>
      <point x="345.8484848484849" y="296.42424242424244" type="curve" smooth="yes"/>
      <point x="345.8484848484849" y="355.1818181818182"/>
      <point x="306.0909090909091" y="400.969696969697"/>
      <point x="240.0909090909091" y="400.969696969697" type="curve" smooth="yes"/>
      <point x="167.06060606060606" y="400.969696969697"/>
      <point x="117.81818181818181" y="344.90909090909093"/>
      <point x="89.12121212121212" y="267.5151515151515" type="curve"/>
      <point x="103.18181818181819" y="242.9090909090909" type="line"/>
      <point x="133.96969696969697" y="319.6363636363636"/>
      <point x="172.6060606060606" y="369.3333333333333"/>
      <point x="228.5151515151515" y="369.3333333333333" type="curve" smooth="yes"/>
      <point x="278.1212121212121" y="369.3333333333333"/>
      <point x="304.27272727272725" y="337.45454545454544"/>
      <point x="304.27272727272725" y="293.3636363636364" type="curve" smooth="yes"/>
      <point x="304.27272727272725" y="234.54545454545456"/>
      <point x="262.8787878787879" y="194.24242424242425"/>
      <point x="205.21212121212122" y="194.24242424242425" type="curve" smooth="yes"/>
      <point x="138.78787878787878" y="194.24242424242425"/>
      <point x="104.72727272727272" y="249.72727272727272"/>
      <point x="104.72727272727272" y="313.5151515151515" type="curve" smooth="yes"/>
      <point x="104.72727272727272" y="429.8787878787879"/>
      <point x="196.0909090909091" y="521.5454545454545"/>
      <point x="316.24242424242425" y="521.5454545454545" type="curve" smooth="yes"/>
      <point x="434.6969696969697" y="521.5454545454545"/>
      <point x="505.3333333333333" y="444.24242424242425"/>
      <point x="481.54545454545456" y="332.6666666666667" type="curve" smooth="yes"/>
      <point x="456.1818181818182" y="209.4848484848485" type="line"/>
      <point x="494.6060606060606" y="209.4848484848485" type="line"/>
      <point x="524.6060606060606" y="354.54545454545456" type="line" smooth="yes"/>
      <point x="540.3939393939394" y="429.75757575757575"/>
      <point x="607.7878787878788" y="522.3333333333334"/>
      <point x="714.060606060606" y="522.3333333333334" type="curve" smooth="yes"/>
      <point x="795.8484848484849" y="522.3333333333334"/>
      <point x="849.2727272727273" y="470.6969696969697"/>
      <point x="849.2727272727273" y="382.6363636363636" type="curve" smooth="yes"/>
      <point x="849.2727272727273" y="177.4848484848485"/>
      <point x="675.1212121212121" y="135.9090909090909"/>
      <point x="428.969696969697" y="114.9090909090909" type="curve" smooth="yes"/>
      <point x="174.6060606060606" y="93.6969696969697"/>
      <point x="-6.454545454545457" y="56.121212121212125"/>
      <point x="-6.454545454545457" y="-127.60606060606061" type="curve" smooth="yes"/>
      <point x="-6.454545454545457" y="-217.75757575757575"/>
      <point x="51.03030303030303" y="-281.8181818181818"/>
    </contour>
  </outline>
</glyph>
<glyph name="tta-tamil" format="2">
  <advance width="865.1515151515151"/>
  <unicode hex="0B9F"/>
  <note>
uni0B9F
</note>
  <anchor x="429.3636363636364" y="0.0" name="bottom"/>
  <anchor x="429.3636363636364" y="0.0" name="nukta"/>
  <anchor x="522.1515151515151" y="544.5454545454545" name="top"/>
  <anchor x="522.939393939394" y="544.5454545454545" name="vedic"/>
  <outline>
    <contour>
      <point x="64.21212121212122" y="0.0" type="line"/>
      <point x="787.4242424242424" y="0.0" type="line"/>
      <point x="793.9090909090909" y="29.575757575757578" type="line"/>
      <point x="112.27272727272728" y="29.575757575757578" type="line"/>
      <point x="221.42424242424244" y="544.5454545454545" type="line"/>
      <point x="179.84848484848484" y="544.5454545454545" type="line"/>
    </contour>
  </outline>
</glyph>
<glyph name="nnna-tamil" format="2">
  <advance width="1219.4848484848485"/>
  <unicode hex="0BA9"/>
  <note>
uni0BA9
</note>
  <anchor x="572.1515151515151" y="0.0" name="bottom"/>
  <anchor x="1155.2121212121212" y="544.5454545454545" name="imatra"/>
  <anchor x="573.7272727272727" y="0.0" name="nukta"/>
  <anchor x="690.5151515151515" y="544.5454545454545" name="top"/>
  <anchor x="688.6666666666666" y="544.5454545454545" name="vedic"/>
  <outline>
    <contour>
      <point x="229.3030303030303" y="-4.212121212121212" type="curve" smooth="yes"/>
      <point x="320.06060606060606" y="-4.212121212121212"/>
      <point x="389.45454545454544" y="55.0"/>
      <point x="389.45454545454544" y="157.33333333333334" type="curve" smooth="yes"/>
      <point x="389.45454545454544" y="231.12121212121212"/>
      <point x="341.1818181818182" y="287.24242424242425"/>
      <point x="261.7878787878788" y="287.24242424242425" type="curve" smooth="yes"/>
      <point x="167.57575757575756" y="287.24242424242425"/>
      <point x="107.39393939393939" y="212.45454545454547"/>
      <point x="78.66666666666667" y="130.87878787878788" type="curve"/>
      <point x="92.84848484848484" y="105.45454545454545" type="line"/>
      <point x="125.45454545454545" y="187.15151515151516"/>
      <point x="172.15151515151516" y="253.33333333333334"/>
      <point x="249.9090909090909" y="253.33333333333334" type="curve" smooth="yes"/>
      <point x="316.5151515151515" y="253.33333333333334"/>
      <point x="346.6666666666667" y="210.03030303030303"/>
      <point x="346.6666666666667" y="153.21212121212122" type="curve" smooth="yes"/>
      <point x="346.6666666666667" y="76.24242424242425"/>
      <point x="295.4848484848485" y="26.93939393939394"/>
      <point x="228.54545454545456" y="26.93939393939394" type="curve" smooth="yes"/>
      <point x="143.72727272727272" y="26.93939393939394"/>
      <point x="83.93939393939394" y="92.45454545454545"/>
      <point x="83.93939393939394" y="213.27272727272728" type="curve" smooth="yes"/>
      <point x="83.93939393939394" y="372.6060606060606"/>
      <point x="222.03030303030303" y="522.3333333333334"/>
      <point x="427.1515151515151" y="522.3333333333334" type="curve" smooth="yes"/>
      <point x="626.7272727272727" y="522.3333333333334"/>
      <point x="756.4545454545455" y="396.8787878787879"/>
      <point x="756.4545454545455" y="218.6969696969697" type="curve" smooth="yes"/>
      <point x="756.4545454545455" y="87.63636363636364"/>
      <point x="681.030303030303" y="27.575757575757578"/>
      <point x="611.9090909090909" y="27.575757575757578" type="curve" smooth="yes"/>
      <point x="544.939393939394" y="27.575757575757578"/>
      <point x="515.7272727272727" y="78.24242424242425"/>
      <point x="515.7272727272727" y="165.9090909090909" type="curve" smooth="yes"/>
      <point x="515.7272727272727" y="337.7878787878788"/>
      <point x="715.0" y="514.969696969697"/>
      <point x="920.030303030303" y="514.969696969697" type="curve" smooth="yes"/>
      <point x="1246.909090909091" y="514.969696969697" type="line"/>
      <point x="1253.3939393939395" y="544.5454545454545" type="line"/>
      <point x="924.5151515151515" y="544.5454545454545" type="line" smooth="yes"/>
      <point x="688.6363636363636" y="544.5454545454545"/>
      <point x="482.57575757575756" y="354.030303030303"/>
      <point x="482.57575757575756" y="158.96969696969697" type="curve" smooth="yes"/>
      <point x="482.57575757575756" y="61.03030303030303"/>
      <point x="523.060606060606" y="-5.0"/>
      <point x="614.3030303030303" y="-5.0" type="curve" smooth="yes"/>
      <point x="708.6969696969697" y="-5.0"/>
      <point x="799.2424242424242" y="66.27272727272728"/>
      <point x="799.2424242424242" y="219.93939393939394" type="curve" smooth="yes"/>
      <point x="799.2424242424242" y="421.1515151515151"/>
      <point x="646.8181818181819" y="552.6969696969697"/>
      <point x="429.6363636363636" y="552.6969696969697" type="curve" smooth="yes"/>
      <point x="197.60606060606062" y="552.6969696969697"/>
      <point x="50.36363636363636" y="387.42424242424244"/>
      <point x="50.36363636363636" y="210.63636363636363" type="curve" smooth="yes"/>
      <point x="50.36363636363636" y="74.6969696969697"/>
      <point x="126.54545454545455" y="-4.212121212121212"/>
    </contour>
    <contour>
      <point x="936.8484848484849" y="0.0" type="line"/>
      <point x="977.8484848484849" y="0.0" type="line"/>
      <point x="1090.8484848484848" y="528.2121212121212" type="line"/>
      <point x="1049.060606060606" y="528.2121212121212" type="line"/>
    </contour>
  </outline>
</glyph>
<glyph name="pa-tamil" format="2">
  <advance width="873.1818181818181"/>
  <unicode hex="0BAA"/>
  <note>
uni0BAA
</note>
  <anchor x="382.2121212121212" y="0.0" name="bottom"/>
  <anchor x="798.1818181818182" y="544.5454545454545" name="imatra"/>
  <anchor x="382.2121212121212" y="0.0" name="nukta"/>
  <anchor x="486.8181818181818" y="544.5454545454545" name="top"/>
  <anchor x="484.45454545454544" y="544.5454545454545" name="vedic"/>
  <outline>
    <contour>
      <point x="64.21212121212122" y="0.0" type="line"/>
      <point x="693.3333333333334" y="0.0" type="line"/>
      <point x="808.969696969697" y="544.5454545454545" type="line"/>
      <point x="767.1818181818181" y="544.5454545454545" type="line"/>
      <point x="657.2424242424242" y="29.575757575757578" type="line"/>
      <point x="112.27272727272728" y="29.575757575757578" type="line"/>
      <point x="221.42424242424244" y="544.5454545454545" type="line"/>
      <point x="179.84848484848484" y="544.5454545454545" type="line"/>
    </contour>
  </outline>
</glyph>
<glyph name="ma-tamil" format="2">
  <advance width="889.8787878787879"/>
  <unicode hex="0BAE"/>
  <note>
uni0BAE
</note>
  <anchor x="395.0" y="0.0" name="bottom"/>
  <anchor x="859.6363636363636" y="544.5454545454545" name="imatra"/>
  <anchor x="396.0" y="0.0" name="nukta"/>
  <anchor x="532.8484848484849" y="544.5454545454545" name="top"/>
  <anchor x="530.7878787878788" y="544.5454545454545" name="vedic"/>
  <outline>
    <contour>
      <point x="64.21212121212122" y="0.0" type="line"/>
      <point x="601.1818181818181" y="0.0" type="line" smooth="yes"/>
      <point x="743.4242424242424" y="0.0"/>
      <point x="817.1515151515151" y="129.72727272727272"/>
      <point x="817.1515151515151" y="306.54545454545456" type="curve" smooth="yes"/>
      <point x="817.1515151515151" y="459.6363636363636"/>
      <point x="753.0909090909091" y="552.6969696969697"/>
      <point x="640.7575757575758" y="552.6969696969697" type="curve" smooth="yes"/>
      <point x="539.969696969697" y="552.6969696969697"/>
      <point x="494.45454545454544" y="489.1818181818182"/>
      <point x="471.45454545454544" y="380.969696969697" type="curve" smooth="yes"/>
      <point x="397.3030303030303" y="29.575757575757578" type="line"/>
      <point x="112.27272727272728" y="29.575757575757578" type="line"/>
      <point x="221.42424242424244" y="544.5454545454545" type="line"/>
      <point x="179.84848484848484" y="544.5454545454545" type="line"/>
    </contour>
    <contour>
      <point x="439.0909090909091" y="29.575757575757578" type="line"/>
      <point x="514.030303030303" y="381.1818181818182" type="line" smooth="yes"/>
      <point x="533.969696969697" y="474.5151515151515"/>
      <point x="565.2424242424242" y="521.2727272727273"/>
      <point x="643.5151515151515" y="521.2727272727273" type="curve" smooth="yes"/>
      <point x="728.4242424242424" y="521.2727272727273"/>
      <point x="781.3636363636364" y="443.0"/>
      <point x="781.3636363636364" y="303.06060606060606" type="curve" smooth="yes"/>
      <point x="781.3636363636364" y="152.33333333333334"/>
      <point x="719.2424242424242" y="29.575757575757578"/>
      <point x="602.6060606060606" y="29.575757575757578" type="curve" smooth="yes"/>
    </contour>
  </outline>
</glyph>
<glyph name="ya-tamil" format="2">
  <advance width="930.8484848484849"/>
  <unicode hex="0BAF"/>
  <note>
uni0BAF
</note>
  <anchor x="421.030303030303" y="0.0" name="bottom"/>
  <anchor x="856.6363636363636" y="544.5454545454545" name="imatra"/>
  <anchor x="421.030303030303" y="0.0" name="nukta"/>
  <anchor x="527.6060606060606" y="544.5454545454545" name="top"/>
  <anchor x="525.030303030303" y="544.5454545454545" name="vedic"/>
  <outline>
    <contour>
      <point x="197.24242424242425" y="-5.0" type="curve" smooth="yes"/>
      <point x="258.2121212121212" y="-5.0"/>
      <point x="299.06060606060606" y="27.242424242424242"/>
      <point x="327.24242424242425" y="66.57575757575758" type="curve"/>
      <point x="313.24242424242425" y="0.0" type="line"/>
      <point x="751.0" y="0.0" type="line"/>
      <point x="866.4242424242424" y="544.5454545454545" type="line"/>
      <point x="823.8484848484849" y="544.5454545454545" type="line"/>
      <point x="713.9090909090909" y="29.575757575757578" type="line"/>
      <point x="358.24242424242425" y="29.575757575757578" type="line"/>
      <point x="467.3939393939394" y="544.5454545454545" type="line"/>
      <point x="426.030303030303" y="544.5454545454545" type="line"/>
      <point x="341.24242424242425" y="145.03030303030303" type="line" smooth="yes"/>
      <point x="328.24242424242425" y="84.24242424242425"/>
      <point x="275.1212121212121" y="28.424242424242426"/>
      <point x="209.03030303030303" y="28.424242424242426" type="curve" smooth="yes"/>
      <point x="148.57575757575756" y="28.424242424242426"/>
      <point x="116.42424242424242" y="73.93939393939394"/>
      <point x="131.0" y="143.6060606060606" type="curve" smooth="yes"/>
      <point x="215.78787878787878" y="544.5454545454545" type="line"/>
      <point x="174.42424242424244" y="544.5454545454545" type="line"/>
      <point x="90.27272727272728" y="151.15151515151516" type="line" smooth="yes"/>
      <point x="69.63636363636364" y="54.60606060606061"/>
      <point x="120.21212121212122" y="-5.0"/>
    </contour>
  </outline>
</glyph>
<glyph name="ra-tamil" format="2">
  <advance width="666.2121212121212"/>
  <unicode hex="0BB0"/>
  <note>
uni0BB0
</note>
  <anchor x="299.8787878787879" y="0.0" name="bottom"/>
  <anchor x="641.9090909090909" y="544.5454545454545" name="imatra"/>
  <anchor x="260.8181818181818" y="-172.21212121212122" name="nukta"/>
  <anchor x="434.6969696969697" y="544.5454545454545" name="top"/>
  <anchor x="439.3333333333333" y="544.5454545454545" name="vedic"/>
  <outline>
    <contour>
      <point x="148.3030303030303" y="-214.57575757575756" type="line"/>
      <point x="394.1212121212121" y="0.8181818181818183" type="line"/>
      <point x="503.0" y="514.969696969697" type="line"/>
      <point x="693.6363636363636" y="514.969696969697" type="line"/>
      <point x="699.9090909090909" y="544.5454545454545" type="line"/>
      <point x="179.84848484848484" y="544.5454545454545" type="line"/>
      <point x="64.21212121212122" y="0.0" type="line"/>
      <point x="96.63636363636364" y="0.0" type="line"/>
      <point x="205.78787878787878" y="514.969696969697" type="line"/>
      <point x="461.42424242424244" y="514.969696969697" type="line"/>
      <point x="354.06060606060606" y="9.787878787878787" type="line"/>
      <point x="127.06060606060606" y="-189.4848484848485" type="line"/>
    </contour>
  </outline>
</glyph>
<glyph name="rra-tamil" format="2">
  <advance width="840.4848484848485"/>
  <unicode hex="0BB1"/>
  <note>
uni0BB1
</note>
  <anchor x="355.24242424242425" y="0.0" name="bottom"/>
  <anchor x="336.42424242424244" y="-145.42424242424244" name="nukta"/>
  <anchor x="458.3030303030303" y="544.5454545454545" name="top"/>
  <anchor x="468.0909090909091" y="544.5454545454545" name="vedic"/>
  <outline>
    <contour>
      <point x="56.06060606060606" y="-212.75757575757575" type="curve"/>
      <point x="65.54545454545455" y="-169.75757575757575"/>
      <point x="92.75757575757575" y="-133.33333333333334"/>
      <point x="157.1818181818182" y="-133.33333333333334" type="curve" smooth="yes"/>
      <point x="310.030303030303" y="-133.33333333333334" type="line" smooth="yes"/>
      <point x="599.1515151515151" y="-133.33333333333334"/>
      <point x="770.1818181818181" y="21.272727272727273"/>
      <point x="770.1818181818181" y="329.0" type="curve" smooth="yes"/>
      <point x="770.1818181818181" y="470.7878787878788"/>
      <point x="701.8181818181819" y="552.6969696969697"/>
      <point x="588.2121212121212" y="552.6969696969697" type="curve" smooth="yes"/>
      <point x="495.6969696969697" y="552.6969696969697"/>
      <point x="445.72727272727275" y="494.1212121212121"/>
      <point x="423.5151515151515" y="454.969696969697" type="curve"/>
      <point x="415.8787878787879" y="494.6969696969697"/>
      <point x="381.030303030303" y="552.4848484848485"/>
      <point x="300.6060606060606" y="552.4848484848485" type="curve" smooth="yes"/>
      <point x="216.6060606060606" y="552.4848484848485"/>
      <point x="161.33333333333334" y="491.4848484848485"/>
      <point x="143.12121212121212" y="403.8484848484849" type="curve" smooth="yes"/>
      <point x="57.696969696969695" y="0.0" type="line"/>
      <point x="90.12121212121212" y="0.0" type="line"/>
      <point x="176.12121212121212" y="405.42424242424244" type="line" smooth="yes"/>
      <point x="189.9090909090909" y="470.7878787878788"/>
      <point x="232.21212121212122" y="522.1212121212121"/>
      <point x="299.54545454545456" y="522.1212121212121" type="curve" smooth="yes"/>
      <point x="367.1212121212121" y="522.1212121212121"/>
      <point x="405.030303030303" y="465.3333333333333"/>
      <point x="389.6666666666667" y="392.09090909090907" type="curve" smooth="yes"/>
      <point x="306.09090909090907" y="0.0" type="line"/>
      <point x="347.8787878787879" y="0.0" type="line"/>
      <point x="431.45454545454544" y="391.09090909090907" type="line" smooth="yes"/>
      <point x="448.24242424242425" y="468.030303030303"/>
      <point x="506.969696969697" y="522.3333333333334"/>
      <point x="584.7272727272727" y="522.3333333333334" type="curve" smooth="yes"/>
      <point x="663.8181818181819" y="522.3333333333334"/>
      <point x="728.3939393939394" y="463.030303030303"/>
      <point x="728.3939393939394" y="330.969696969697" type="curve" smooth="yes"/>
      <point x="728.3939393939394" y="41.75757575757576"/>
      <point x="572.0" y="-101.39393939393939"/>
      <point x="305.1515151515151" y="-101.39393939393939" type="curve" smooth="yes"/>
      <point x="128.45454545454544" y="-101.39393939393939" type="line" smooth="yes"/>
      <point x="60.0" y="-101.39393939393939"/>
      <point x="12.0" y="-127.81818181818181"/>
      <point x="12.0" y="-171.45454545454547" type="curve" smooth="yes"/>
      <point x="12.0" y="-197.4848484848485"/>
      <point x="26.96969696969697" y="-212.75757575757575"/>
    </contour>
  </outline>
</glyph>
<glyph name="la-tamil" format="2">
  <advance width="999.3939393939394"/>
  <unicode hex="0BB2"/>
  <note>
uni0BB2
</note>
  <anchor x="444.0909090909091" y="0.0" name="bottom"/>
  <anchor x="444.0909090909091" y="0.0" name="nukta"/>
  <anchor x="575.4242424242424" y="544.5454545454545" name="top"/>
  <anchor x="559.6666666666666" y="544.5454545454545" name="vedic"/>
  <outline>
    <contour>
      <point x="230.5151515151515" y="-4.212121212121212" type="curve" smooth="yes"/>
      <point x="321.27272727272725" y="-4.212121212121212"/>
      <point x="390.6666666666667" y="55.0"/>
      <point x="390.6666666666667" y="157.33333333333334" type="curve" smooth="yes"/>
      <point x="390.6666666666667" y="231.12121212121212"/>
      <point x="342.3939393939394" y="287.24242424242425"/>
      <point x="263.0" y="287.24242424242425" type="curve" smooth="yes"/>
      <point x="168.78787878787878" y="287.24242424242425"/>
      <point x="108.60606060606061" y="212.45454545454547"/>
      <point x="79.87878787878788" y="130.87878787878788" type="curve"/>
      <point x="94.06060606060606" y="105.45454545454545" type="line"/>
      <point x="126.66666666666667" y="187.15151515151516"/>
      <point x="173.36363636363637" y="253.33333333333334"/>
      <point x="251.12121212121212" y="253.33333333333334" type="curve" smooth="yes"/>
      <point x="317.72727272727275" y="253.33333333333334"/>
      <point x="347.8787878787879" y="210.03030303030303"/>
      <point x="347.8787878787879" y="153.21212121212122" type="curve" smooth="yes"/>
      <point x="347.8787878787879" y="76.24242424242425"/>
      <point x="296.6969696969697" y="26.93939393939394"/>
      <point x="229.75757575757575" y="26.93939393939394" type="curve" smooth="yes"/>
      <point x="144.93939393939394" y="26.93939393939394"/>
      <point x="85.15151515151516" y="92.45454545454545"/>
      <point x="85.15151515151516" y="213.27272727272728" type="curve" smooth="yes"/>
      <point x="85.15151515151516" y="372.6060606060606"/>
      <point x="206.87878787878788" y="522.3333333333334"/>
      <point x="389.3939393939394" y="522.3333333333334" type="curve" smooth="yes"/>
      <point x="526.060606060606" y="522.3333333333334"/>
      <point x="592.1818181818181" y="431.8787878787879"/>
      <point x="564.3939393939394" y="302.57575757575756" type="curve" smooth="yes"/>
      <point x="537.2424242424242" y="174.66666666666666" type="line" smooth="yes"/>
      <point x="515.6060606060606" y="73.18181818181819"/>
      <point x="561.5151515151515" y="-3.1515151515151514"/>
      <point x="667.1212121212121" y="-3.1515151515151514" type="curve" smooth="yes"/>
      <point x="825.2424242424242" y="-3.1515151515151514"/>
      <point x="945.2424242424242" y="150.12121212121212"/>
      <point x="945.2424242424242" y="344.7878787878788" type="curve" smooth="yes"/>
      <point x="945.2424242424242" y="426.27272727272725"/>
      <point x="924.1212121212121" y="490.3939393939394"/>
      <point x="883.6969696969697" y="549.7575757575758" type="curve"/>
      <point x="853.8787878787879" y="529.3636363636364" type="line"/>
      <point x="888.030303030303" y="480.06060606060606"/>
      <point x="911.3636363636364" y="411.06060606060606"/>
      <point x="911.3636363636364" y="343.7878787878788" type="curve" smooth="yes"/>
      <point x="911.3636363636364" y="174.15151515151516"/>
      <point x="806.7575757575758" y="28.272727272727273"/>
      <point x="671.0909090909091" y="28.272727272727273" type="curve" smooth="yes"/>
      <point x="590.6363636363636" y="28.272727272727273"/>
      <point x="560.6666666666666" y="87.27272727272728"/>
      <point x="579.030303030303" y="172.87878787878788" type="curve" smooth="yes"/>
      <point x="605.969696969697" y="300.57575757575756" type="line" smooth="yes"/>
      <point x="637.8181818181819" y="449.6060606060606"/>
      <point x="560.1818181818182" y="552.6969696969697"/>
      <point x="391.8787878787879" y="552.6969696969697" type="curve" smooth="yes"/>
      <point x="182.45454545454547" y="552.6969696969697"/>
      <point x="51.57575757575758" y="387.42424242424244"/>
      <point x="51.57575757575758" y="210.63636363636363" type="curve" smooth="yes"/>
      <point x="51.57575757575758" y="74.6969696969697"/>
      <point x="127.75757575757575" y="-4.212121212121212"/>
    </contour>
  </outline>
</glyph>
<glyph name="lla-tamil" format="2">
  <advance width="1185.1515151515152"/>
  <unicode hex="0BB3"/>
  <note>
uni0BB3
</note>
  <anchor x="553.7272727272727" y="0.0" name="bottom"/>
  <anchor x="1158.5757575757575" y="544.5454545454545" name="imatra"/>
  <anchor x="552.939393939394" y="0.0" name="nukta"/>
  <anchor x="698.5151515151515" y="544.5454545454545" name="top"/>
  <anchor x="677.1515151515151" y="544.5454545454545" name="vedic"/>
  <outline>
    <contour>
      <point x="230.5151515151515" y="-4.212121212121212" type="curve" smooth="yes"/>
      <point x="321.27272727272725" y="-4.212121212121212"/>
      <point x="390.6666666666667" y="55.0"/>
      <point x="390.6666666666667" y="157.33333333333334" type="curve" smooth="yes"/>
      <point x="390.6666666666667" y="231.12121212121212"/>
      <point x="342.3939393939394" y="287.24242424242425"/>
      <point x="263.0" y="287.24242424242425" type="curve" smooth="yes"/>
      <point x="168.78787878787878" y="287.24242424242425"/>
      <point x="108.60606060606061" y="212.45454545454547"/>
      <point x="79.87878787878788" y="130.87878787878788" type="curve"/>
      <point x="94.06060606060606" y="105.45454545454545" type="line"/>
      <point x="126.66666666666667" y="187.15151515151516"/>
      <point x="173.36363636363637" y="253.33333333333334"/>
      <point x="251.12121212121212" y="253.33333333333334" type="curve" smooth="yes"/>
      <point x="317.72727272727275" y="253.33333333333334"/>
      <point x="347.8787878787879" y="210.03030303030303"/>
      <point x="347.8787878787879" y="153.21212121212122" type="curve" smooth="yes"/>
      <point x="347.8787878787879" y="76.24242424242425"/>
      <point x="296.6969696969697" y="26.93939393939394"/>
      <point x="229.75757575757575" y="26.93939393939394" type="curve" smooth="yes"/>
      <point x="144.93939393939394" y="26.93939393939394"/>
      <point x="85.15151515151516" y="92.45454545454545"/>
      <point x="85.15151515151516" y="213.27272727272728" type="curve" smooth="yes"/>
      <point x="85.15151515151516" y="368.3333333333333"/>
      <point x="208.24242424242425" y="522.3333333333334"/>
      <point x="392.3333333333333" y="522.3333333333334" type="curve" smooth="yes"/>
      <point x="530.9090909090909" y="522.3333333333334"/>
      <point x="656.969696969697" y="439.3030303030303"/>
      <point x="618.6666666666666" y="260.72727272727275" type="curve"/>
      <point x="648.6666666666666" y="262.3636363636364" type="line"/>
      <point x="689.7575757575758" y="461.6969696969697"/>
      <point x="553.2424242424242" y="552.6969696969697"/>
      <point x="393.3333333333333" y="552.6969696969697" type="curve" smooth="yes"/>
      <point x="181.6969696969697" y="552.6969696969697"/>
      <point x="51.57575757575758" y="383.1515151515151"/>
      <point x="51.57575757575758" y="210.63636363636363" type="curve" smooth="yes"/>
      <point x="51.57575757575758" y="74.6969696969697"/>
      <point x="127.75757575757575" y="-4.212121212121212"/>
    </contour>
    <contour>
      <point x="562.8787878787879" y="0.0" type="line"/>
      <point x="604.6666666666666" y="0.0" type="line"/>
      <point x="714.030303030303" y="514.969696969697" type="line"/>
      <point x="980.3636363636364" y="514.969696969697" type="line"/>
      <point x="870.4242424242424" y="0.0" type="line"/>
      <point x="912.7878787878788" y="0.0" type="line"/>
      <point x="1021.939393939394" y="514.969696969697" type="line"/>
      <point x="1212.5757575757575" y="514.969696969697" type="line"/>
      <point x="1218.8484848484848" y="544.5454545454545" type="line"/>
      <point x="679.5757575757576" y="544.5454545454545" type="line"/>
      <point x="643.939393939394" y="378.72727272727275" type="line"/>
      <point x="638.7272727272727" y="357.1818181818182" type="line"/>
    </contour>
  </outline>
</glyph>
<glyph name="va-tamil" format="2">
  <advance width="1126.7575757575758"/>
  <unicode hex="0BB5"/>
  <note>
uni0BB5
</note>
  <anchor x="513.5757575757576" y="0.0" name="bottom"/>
  <anchor x="1028.6060606060605" y="544.5454545454545" name="imatra"/>
  <anchor x="513.5757575757576" y="0.0" name="nukta"/>
  <anchor x="605.030303030303" y="544.5454545454545" name="top"/>
  <anchor x="599.5454545454545" y="544.5454545454545" name="vedic"/>
  <outline>
    <contour>
      <point x="228.5151515151515" y="-4.212121212121212" type="curve" smooth="yes"/>
      <point x="319.27272727272725" y="-4.212121212121212"/>
      <point x="388.6666666666667" y="55.0"/>
      <point x="388.6666666666667" y="157.33333333333334" type="curve" smooth="yes"/>
      <point x="388.6666666666667" y="231.12121212121212"/>
      <point x="340.3939393939394" y="287.24242424242425"/>
      <point x="261.0" y="287.24242424242425" type="curve" smooth="yes"/>
      <point x="166.78787878787878" y="287.24242424242425"/>
      <point x="106.60606060606061" y="212.45454545454547"/>
      <point x="77.87878787878788" y="130.87878787878788" type="curve"/>
      <point x="92.06060606060606" y="105.45454545454545" type="line"/>
      <point x="124.66666666666667" y="187.15151515151516"/>
      <point x="171.36363636363637" y="253.33333333333334"/>
      <point x="249.12121212121212" y="253.33333333333334" type="curve" smooth="yes"/>
      <point x="315.72727272727275" y="253.33333333333334"/>
      <point x="345.8787878787879" y="210.03030303030303"/>
      <point x="345.8787878787879" y="153.21212121212122" type="curve" smooth="yes"/>
      <point x="345.8787878787879" y="76.24242424242425"/>
      <point x="294.6969696969697" y="26.93939393939394"/>
      <point x="227.75757575757575" y="26.93939393939394" type="curve" smooth="yes"/>
      <point x="142.93939393939394" y="26.93939393939394"/>
      <point x="83.15151515151516" y="92.45454545454545"/>
      <point x="83.15151515151516" y="213.27272727272728" type="curve" smooth="yes"/>
      <point x="83.15151515151516" y="370.4848484848485"/>
      <point x="234.3030303030303" y="522.3333333333334"/>
      <point x="418.27272727272725" y="522.3333333333334" type="curve" smooth="yes"/>
      <point x="553.969696969697" y="522.3333333333334"/>
      <point x="668.2424242424242" y="448.3333333333333"/>
      <point x="668.2424242424242" y="300.1515151515151" type="curve" smooth="yes"/>
      <point x="668.2424242424242" y="176.87878787878788"/>
      <point x="597.1818181818181" y="93.63636363636364"/>
      <point x="523.3333333333334" y="24.090909090909093" type="curve"/>
      <point x="529.7575757575758" y="0.0" type="line"/>
      <point x="946.9090909090909" y="0.0" type="line"/>
      <point x="1062.5454545454545" y="544.5454545454545" type="line"/>
      <point x="1020.7575757575758" y="544.5454545454545" type="line"/>
      <point x="910.6060606060606" y="29.575757575757578" type="line"/>
      <point x="571.939393939394" y="29.575757575757578" type="line"/>
      <point x="637.0" y="86.78787878787878"/>
      <point x="710.6666666666666" y="172.87878787878788"/>
      <point x="710.6666666666666" y="305.27272727272725" type="curve" smooth="yes"/>
      <point x="710.6666666666666" y="471.6969696969697"/>
      <point x="581.4242424242424" y="552.6969696969697"/>
      <point x="421.6060606060606" y="552.6969696969697" type="curve" smooth="yes"/>
      <point x="209.03030303030303" y="552.6969696969697"/>
      <point x="49.57575757575758" y="384.24242424242425"/>
      <point x="49.57575757575758" y="210.63636363636363" type="curve" smooth="yes"/>
      <point x="49.57575757575758" y="74.6969696969697"/>
      <point x="125.75757575757575" y="-4.212121212121212"/>
    </contour>
  </outline>
</glyph>
<glyph name="sa-tamil" format="2">
  <advance width="1246.1818181818182"/>
  <unicode hex="0BB8"/>
  <note>
uni0BB8
</note>
  <anchor x="585.4848484848485" y="0.0" name="bottom"/>
  <anchor x="585.4848484848485" y="0.0" name="nukta"/>
  <anchor x="690.7878787878788" y="544.5454545454545" name="top"/>
  <anchor x="683.939393939394" y="544.5454545454545" name="vedic"/>
  <outline>
    <contour>
      <point x="508.42424242424244" y="0.0" type="line"/>
      <point x="549.4242424242424" y="0.0" type="line"/>
      <point x="636.6363636363636" y="407.27272727272725" type="line" smooth="yes"/>
      <point x="651.7878787878788" y="477.8181818181818"/>
      <point x="687.7878787878788" y="522.1212121212121"/>
      <point x="749.8787878787879" y="522.1212121212121" type="curve" smooth="yes"/>
      <point x="814.6969696969697" y="522.1212121212121"/>
      <point x="847.7575757575758" y="472.93939393939394"/>
      <point x="833.5454545454545" y="407.6666666666667" type="curve" smooth="yes"/>
      <point x="784.030303030303" y="174.66666666666666" type="line" smooth="yes"/>
      <point x="762.6060606060606" y="73.18181818181819"/>
      <point x="808.3030303030303" y="-3.1515151515151514"/>
      <point x="913.9090909090909" y="-3.1515151515151514" type="curve" smooth="yes"/>
      <point x="1072.030303030303" y="-3.1515151515151514"/>
      <point x="1192.030303030303" y="150.12121212121212"/>
      <point x="1192.030303030303" y="344.7878787878788" type="curve" smooth="yes"/>
      <point x="1192.030303030303" y="426.27272727272725"/>
      <point x="1171.969696969697" y="489.969696969697"/>
      <point x="1131.969696969697" y="549.5454545454545" type="curve"/>
      <point x="1101.7272727272727" y="529.5757575757576" type="line"/>
      <point x="1135.6666666666667" y="480.06060606060606"/>
      <point x="1158.1515151515152" y="411.06060606060606"/>
      <point x="1158.1515151515152" y="343.7878787878788" type="curve" smooth="yes"/>
      <point x="1158.1515151515152" y="174.15151515151516"/>
      <point x="1053.5454545454545" y="28.272727272727273"/>
      <point x="917.8787878787879" y="28.272727272727273" type="curve" smooth="yes"/>
      <point x="837.4242424242424" y="28.272727272727273"/>
      <point x="807.4545454545455" y="87.06060606060606"/>
      <point x="825.8181818181819" y="172.87878787878788" type="curve" smooth="yes"/>
      <point x="873.9090909090909" y="400.3333333333333" type="line" smooth="yes"/>
      <point x="893.1818181818182" y="490.06060606060606"/>
      <point x="843.5151515151515" y="552.6969696969697"/>
      <point x="755.2727272727273" y="552.6969696969697" type="curve" smooth="yes"/>
      <point x="670.2424242424242" y="552.6969696969697"/>
      <point x="622.5454545454545" y="489.42424242424244"/>
      <point x="606.5454545454545" y="413.27272727272725" type="curve" smooth="yes"/>
      <point x="595.4242424242424" y="359.93939393939394" type="line"/>
      <point x="584.7272727272727" y="359.93939393939394" type="line"/>
    </contour>
    <contour>
      <point x="230.72727272727272" y="-4.212121212121212" type="curve" smooth="yes"/>
      <point x="321.4848484848485" y="-4.212121212121212"/>
      <point x="390.8787878787879" y="55.0"/>
      <point x="390.8787878787879" y="157.33333333333334" type="curve" smooth="yes"/>
      <point x="390.8787878787879" y="231.12121212121212"/>
      <point x="342.6060606060606" y="287.24242424242425"/>
      <point x="263.2121212121212" y="287.24242424242425" type="curve" smooth="yes"/>
      <point x="169.0" y="287.24242424242425"/>
      <point x="108.81818181818181" y="212.45454545454547"/>
      <point x="80.0909090909091" y="130.87878787878788" type="curve"/>
      <point x="94.27272727272728" y="105.45454545454545" type="line"/>
      <point x="126.87878787878788" y="187.15151515151516"/>
      <point x="173.57575757575756" y="253.33333333333334"/>
      <point x="251.33333333333334" y="253.33333333333334" type="curve" smooth="yes"/>
      <point x="317.93939393939394" y="253.33333333333334"/>
      <point x="348.09090909090907" y="210.03030303030303"/>
      <point x="348.09090909090907" y="153.21212121212122" type="curve" smooth="yes"/>
      <point x="348.09090909090907" y="76.24242424242425"/>
      <point x="296.90909090909093" y="26.93939393939394"/>
      <point x="229.96969696969697" y="26.93939393939394" type="curve" smooth="yes"/>
      <point x="145.15151515151516" y="26.93939393939394"/>
      <point x="85.36363636363636" y="92.45454545454545"/>
      <point x="85.36363636363636" y="213.27272727272728" type="curve" smooth="yes"/>
      <point x="85.36363636363636" y="370.24242424242425"/>
      <point x="202.6060606060606" y="522.3333333333334"/>
      <point x="386.6969696969697" y="522.3333333333334" type="curve" smooth="yes"/>
      <point x="509.54545454545456" y="522.3333333333334"/>
      <point x="603.0" y="443.09090909090907"/>
      <point x="571.7878787878788" y="299.8181818181818" type="curve"/>
      <point x="605.0" y="299.3030303030303" type="line"/>
      <point x="640.3636363636364" y="467.6363636363636"/>
      <point x="531.4242424242424" y="552.6969696969697"/>
      <point x="389.1818181818182" y="552.6969696969697" type="curve" smooth="yes"/>
      <point x="178.1818181818182" y="552.6969696969697"/>
      <point x="51.78787878787879" y="385.06060606060606"/>
      <point x="51.78787878787879" y="210.63636363636363" type="curve" smooth="yes"/>
      <point x="51.78787878787879" y="74.6969696969697"/>
      <point x="127.96969696969697" y="-4.212121212121212"/>
    </contour>
  </outline>
</glyph>
<glyph name="ha-tamil" format="2">
  <advance width="1572.7272727272727"/>
  <unicode hex="0BB9"/>
  <note>
uni0BB9
</note>
  <anchor x="743.6060606060606" y="0.0" name="bottom"/>
  <anchor x="712.969696969697" y="-141.75757575757575" name="nukta"/>
  <anchor x="864.0" y="544.5454545454545" name="top"/>
  <anchor x="856.8181818181819" y="544.5454545454545" name="vedic"/>
  <outline>
    <contour>
      <point x="65.3939393939394" y="-220.3939393939394" type="curve"/>
      <point x="74.87878787878788" y="-177.3939393939394"/>
      <point x="102.0909090909091" y="-140.96969696969697"/>
      <point x="166.5151515151515" y="-140.96969696969697" type="curve" smooth="yes"/>
      <point x="997.3636363636364" y="-140.96969696969697" type="line" smooth="yes"/>
      <point x="1292.7878787878788" y="-140.96969696969697"/>
      <point x="1505.4242424242425" y="19.151515151515152"/>
      <point x="1505.4242424242425" y="329.0" type="curve" smooth="yes"/>
      <point x="1505.4242424242425" y="470.7878787878788"/>
      <point x="1437.060606060606" y="552.6969696969697"/>
      <point x="1323.4545454545455" y="552.6969696969697" type="curve" smooth="yes"/>
      <point x="1230.939393939394" y="552.6969696969697"/>
      <point x="1180.969696969697" y="494.1212121212121"/>
      <point x="1158.7575757575758" y="454.969696969697" type="curve"/>
      <point x="1151.121212121212" y="494.6969696969697"/>
      <point x="1116.2727272727273" y="552.4848484848485"/>
      <point x="1035.8484848484848" y="552.4848484848485" type="curve" smooth="yes"/>
      <point x="951.8484848484849" y="552.4848484848485"/>
      <point x="896.7878787878788" y="491.4848484848485"/>
      <point x="878.3636363636364" y="403.8484848484849" type="curve" smooth="yes"/>
      <point x="799.0" y="29.575757575757578" type="line"/>
      <point x="572.7272727272727" y="29.575757575757578" type="line"/>
      <point x="637.7878787878788" y="86.78787878787878"/>
      <point x="711.4545454545455" y="166.5151515151515"/>
      <point x="711.4545454545455" y="298.90909090909093" type="curve" smooth="yes"/>
      <point x="711.4545454545455" y="465.3333333333333"/>
      <point x="575.8181818181819" y="552.6969696969697"/>
      <point x="413.6666666666667" y="552.6969696969697" type="curve" smooth="yes"/>
      <point x="201.0909090909091" y="552.6969696969697"/>
      <point x="50.36363636363636" y="384.8787878787879"/>
      <point x="50.36363636363636" y="210.63636363636363" type="curve" smooth="yes"/>
      <point x="50.36363636363636" y="74.6969696969697"/>
      <point x="126.54545454545455" y="-4.212121212121212"/>
      <point x="229.3030303030303" y="-4.212121212121212" type="curve" smooth="yes"/>
      <point x="320.06060606060606" y="-4.212121212121212"/>
      <point x="389.45454545454544" y="55.0"/>
      <point x="389.45454545454544" y="157.33333333333334" type="curve" smooth="yes"/>
      <point x="389.45454545454544" y="231.12121212121212"/>
      <point x="341.1818181818182" y="287.24242424242425"/>
      <point x="261.7878787878788" y="287.24242424242425" type="curve" smooth="yes"/>
      <point x="167.57575757575756" y="287.24242424242425"/>
      <point x="107.39393939393939" y="212.45454545454547"/>
      <point x="78.66666666666667" y="130.87878787878788" type="curve"/>
      <point x="92.84848484848484" y="105.45454545454545" type="line"/>
      <point x="125.45454545454545" y="187.15151515151516"/>
      <point x="172.15151515151516" y="253.33333333333334"/>
      <point x="249.9090909090909" y="253.33333333333334" type="curve" smooth="yes"/>
      <point x="316.5151515151515" y="253.33333333333334"/>
      <point x="346.6666666666667" y="210.03030303030303"/>
      <point x="346.6666666666667" y="153.21212121212122" type="curve" smooth="yes"/>
      <point x="346.6666666666667" y="76.24242424242425"/>
      <point x="295.4848484848485" y="26.93939393939394"/>
      <point x="228.54545454545456" y="26.93939393939394" type="curve" smooth="yes"/>
      <point x="143.72727272727272" y="26.93939393939394"/>
      <point x="83.93939393939394" y="92.45454545454545"/>
      <point x="83.93939393939394" y="213.27272727272728" type="curve" smooth="yes"/>
      <point x="83.93939393939394" y="370.4848484848485"/>
      <point x="227.21212121212122" y="522.3333333333334"/>
      <point x="411.1818181818182" y="522.3333333333334" type="curve" smooth="yes"/>
      <point x="544.7575757575758" y="522.3333333333334"/>
      <point x="669.030303030303" y="441.969696969697"/>
      <point x="669.030303030303" y="293.7878787878788" type="curve" smooth="yes"/>
      <point x="669.030303030303" y="170.5151515151515"/>
      <point x="597.969696969697" y="93.63636363636364"/>
      <point x="524.1212121212121" y="24.090909090909093" type="curve"/>
      <point x="530.5454545454545" y="0.0" type="line"/>
      <point x="824.5757575757576" y="0.0" type="line"/>
      <point x="911.3636363636364" y="405.42424242424244" type="line" smooth="yes"/>
      <point x="925.1515151515151" y="470.7878787878788"/>
      <point x="967.4545454545455" y="522.1212121212121"/>
      <point x="1034.7878787878788" y="522.1212121212121" type="curve" smooth="yes"/>
      <point x="1102.3636363636363" y="522.1212121212121"/>
      <point x="1140.2727272727273" y="465.3333333333333"/>
      <point x="1124.909090909091" y="392.09090909090907" type="curve" smooth="yes"/>
      <point x="1041.3333333333333" y="0.0" type="line"/>
      <point x="1083.121212121212" y="0.0" type="line"/>
      <point x="1166.6969696969697" y="391.09090909090907" type="line" smooth="yes"/>
      <point x="1183.4848484848485" y="468.030303030303"/>
      <point x="1242.2121212121212" y="522.3333333333334"/>
      <point x="1319.969696969697" y="522.3333333333334" type="curve" smooth="yes"/>
      <point x="1399.060606060606" y="522.3333333333334"/>
      <point x="1463.6363636363637" y="463.030303030303"/>
      <point x="1463.6363636363637" y="330.969696969697" type="curve" smooth="yes"/>
      <point x="1463.6363636363637" y="39.63636363636364"/>
      <point x="1265.6363636363637" y="-109.03030303030303"/>
      <point x="992.4848484848485" y="-109.03030303030303" type="curve" smooth="yes"/>
      <point x="137.7878787878788" y="-109.03030303030303" type="line" smooth="yes"/>
      <point x="69.33333333333334" y="-109.03030303030303"/>
      <point x="21.333333333333336" y="-135.45454545454544"/>
      <point x="21.333333333333336" y="-179.0909090909091" type="curve" smooth="yes"/>
      <point x="21.333333333333336" y="-205.12121212121212"/>
      <point x="36.303030303030305" y="-220.3939393939394"/>
    </contour>
  </outline>
</glyph>
<glyph name="aaMatra-tamil" format="2">
  <advance width="689.2121212121212"/>
  <unicode hex="0BBE"/>
  <note>
uni0BBE
</note>
  <anchor x="320.8181818181818" y="0.0" name="bottom"/>
  <anchor x="319.8181818181818" y="0.0" name="nukta"/>
  <anchor x="429.45454545454544" y="544.5454545454545" name="top"/>
  <anchor x="429.45454545454544" y="544.5454545454545" name="vedic"/>
  <outline>
    <contour>
      <point x="64.21212121212122" y="0.0" type="line"/>
      <point x="96.63636363636364" y="0.0" type="line"/>
      <point x="205.78787878787878" y="514.969696969697" type="line"/>
      <point x="478.6363636363636" y="514.969696969697" type="line"/>
      <point x="368.4848484848485" y="0.0" type="line"/>
      <point x="411.06060606060606" y="0.0" type="line"/>
      <point x="520.2121212121212" y="514.969696969697" type="line"/>
      <point x="716.6363636363636" y="514.969696969697" type="line"/>
      <point x="723.1212121212121" y="544.5454545454545" type="line"/>
      <point x="179.84848484848484" y="544.5454545454545" type="line"/>
    </contour>
  </outline>
</glyph>
<glyph name="iMatra-tamil" format="2">
  <advance width="228.57575757575756"/>
  <unicode hex="0BBF"/>
  <note>
uni0BBF
</note>
  <anchor x="-18.545454545454547" y="807.2121212121212" name="top"/>
  <outline>
    <contour>
      <point x="31.909090909090907" y="0.0" type="line"/>
      <point x="67.48484848484848" y="0.0" type="line"/>
      <point x="181.12121212121212" y="533.7575757575758" type="line" smooth="yes"/>
      <point x="217.12121212121212" y="701.3939393939394"/>
      <point x="133.1818181818182" y="807.2121212121212"/>
      <point x="-18.545454545454547" y="807.2121212121212" type="curve" smooth="yes"/>
      <point x="-143.45454545454547" y="807.2121212121212"/>
      <point x="-225.27272727272728" y="729.0909090909091"/>
      <point x="-225.27272727272728" y="634.060606060606" type="curve" smooth="yes"/>
      <point x="-225.27272727272728" y="563.6666666666666"/>
      <point x="-175.06060606060606" y="514.969696969697"/>
      <point x="-116.51515151515152" y="514.969696969697" type="curve" smooth="yes"/>
      <point x="-109.15151515151516" y="514.969696969697" type="line"/>
      <point x="-103.66666666666667" y="544.5454545454545" type="line"/>
      <point x="-107.87878787878788" y="544.5454545454545" type="line" smooth="yes"/>
      <point x="-156.1818181818182" y="544.5454545454545"/>
      <point x="-190.63636363636363" y="580.060606060606"/>
      <point x="-190.63636363636363" y="629.5757575757576" type="curve" smooth="yes"/>
      <point x="-190.63636363636363" y="707.8787878787879"/>
      <point x="-118.42424242424242" y="764.9090909090909"/>
      <point x="-22.96969696969697" y="764.9090909090909" type="curve" smooth="yes"/>
      <point x="108.27272727272728" y="764.9090909090909"/>
      <point x="175.6969696969697" y="676.5151515151515"/>
      <point x="144.12121212121212" y="527.6363636363636" type="curve" smooth="yes"/>
    </contour>
  </outline>
</glyph>
<glyph name="iiMatra-tamil" format="2">
  <unicode hex="0BC0"/>
  <note>
uni0BC0
</note>
  <anchor x="56.63636363636364" y="544.5454545454545" name="_imatra"/>
  <anchor x="122.36363636363636" y="874.1212121212121" name="top"/>
  <outline>
    <contour>
      <point x="36.15151515151515" y="517.6060606060606" type="curve" smooth="yes"/>
      <point x="51.36363636363636" y="517.6060606060606" type="line"/>
      <point x="56.63636363636364" y="544.5454545454545" type="line"/>
      <point x="42.21212121212121" y="544.5454545454545" type="line" smooth="yes"/>
      <point x="-31.606060606060606" y="544.5454545454545"/>
      <point x="-74.93939393939394" y="590.4242424242424"/>
      <point x="-74.93939393939394" y="668.2121212121212" type="curve" smooth="yes"/>
      <point x="-74.93939393939394" y="766.5151515151515"/>
      <point x="2.212121212121212" y="845.3333333333334"/>
      <point x="119.87878787878788" y="845.3333333333334" type="curve" smooth="yes"/>
      <point x="189.6060606060606" y="845.3333333333334"/>
      <point x="249.57575757575756" y="813.1818181818181"/>
      <point x="249.57575757575756" y="743.1515151515151" type="curve" smooth="yes"/>
      <point x="249.57575757575756" y="687.0"/>
      <point x="210.21212121212122" y="647.3333333333334"/>
      <point x="151.33333333333334" y="647.3333333333334" type="curve" smooth="yes"/>
      <point x="50.15151515151515" y="647.3333333333334"/>
      <point x="41.06060606060606" y="755.9090909090909"/>
      <point x="110.21212121212122" y="854.1515151515151" type="curve"/>
      <point x="85.75757575757575" y="858.1515151515151" type="line"/>
      <point x="-1.2121212121212146" y="744.1818181818181"/>
      <point x="21.909090909090907" y="617.7575757575758"/>
      <point x="151.45454545454544" y="617.7575757575758" type="curve" smooth="yes"/>
      <point x="231.84848484848484" y="617.7575757575758"/>
      <point x="289.030303030303" y="667.030303030303"/>
      <point x="289.030303030303" y="746.939393939394" type="curve" smooth="yes"/>
      <point x="289.030303030303" y="830.4242424242424"/>
      <point x="214.54545454545456" y="874.1212121212121"/>
      <point x="122.36363636363636" y="874.1212121212121" type="curve" smooth="yes"/>
      <point x="-15.121212121212121" y="874.1212121212121"/>
      <point x="-110.87878787878788" y="780.2727272727273"/>
      <point x="-110.87878787878788" y="666.1515151515151" type="curve" smooth="yes"/>
      <point x="-110.87878787878788" y="575.5454545454545"/>
      <point x="-52.06060606060606" y="517.6060606060606"/>
    </contour>
  </outline>
</glyph>
<glyph name="uuMatra-tamil" format="2">
  <advance width="862.9090909090909"/>
  <unicode hex="0BC2"/>
  <note>
uni0BC2
</note>
  <anchor x="550.5454545454545" y="780.2121212121212" name="top"/>
  <outline>
    <contour>
      <point x="383.27272727272725" y="0.7878787878787878" type="curve" smooth="yes"/>
      <point x="651.1818181818181" y="0.7878787878787878"/>
      <point x="844.9090909090909" y="204.9090909090909"/>
      <point x="844.9090909090909" y="467.8181818181818" type="curve" smooth="yes"/>
      <point x="844.9090909090909" y="679.7575757575758"/>
      <point x="720.6363636363636" y="780.0"/>
      <point x="550.7575757575758" y="780.0" type="curve" smooth="yes"/>
      <point x="362.6969696969697" y="780.0"/>
      <point x="264.8787878787879" y="658.5151515151515"/>
      <point x="236.87878787878788" y="527.7272727272727" type="curve" smooth="yes"/>
      <point x="214.24242424242425" y="422.1818181818182" type="line" smooth="yes"/>
      <point x="189.45454545454544" y="307.6666666666667"/>
      <point x="238.45454545454544" y="225.8181818181818"/>
      <point x="347.2121212121212" y="225.8181818181818" type="curve" smooth="yes"/>
      <point x="439.3333333333333" y="225.8181818181818"/>
      <point x="506.72727272727275" y="280.6060606060606"/>
      <point x="529.1515151515151" y="386.6060606060606" type="curve" smooth="yes"/>
      <point x="562.8484848484849" y="544.5454545454545" type="line"/>
      <point x="-181.87878787878788" y="544.5454545454545" type="line"/>
      <point x="-162.54545454545456" y="514.969696969697" type="line"/>
      <point x="514.7878787878788" y="514.969696969697" type="line"/>
      <point x="486.3636363636364" y="384.3333333333333" type="line" smooth="yes"/>
      <point x="469.2121212121212" y="306.7878787878788"/>
      <point x="419.1212121212121" y="257.75757575757575"/>
      <point x="346.5151515151515" y="257.75757575757575" type="curve" smooth="yes"/>
      <point x="261.969696969697" y="257.75757575757575"/>
      <point x="225.3030303030303" y="322.7878787878788"/>
      <point x="246.45454545454547" y="420.3333333333333" type="curve" smooth="yes"/>
      <point x="269.3030303030303" y="527.7272727272727" type="line" smooth="yes"/>
      <point x="293.8787878787879" y="642.6060606060606"/>
      <point x="382.45454545454544" y="749.8484848484849"/>
      <point x="545.8484848484849" y="749.8484848484849" type="curve" smooth="yes"/>
      <point x="700.7575757575758" y="749.8484848484849"/>
      <point x="803.969696969697" y="661.7272727272727"/>
      <point x="803.969696969697" y="469.42424242424244" type="curve" smooth="yes"/>
      <point x="803.969696969697" y="231.0"/>
      <point x="626.7272727272727" y="31.151515151515152"/>
      <point x="384.6969696969697" y="31.151515151515152" type="curve" smooth="yes"/>
      <point x="253.3030303030303" y="31.151515151515152"/>
      <point x="162.0909090909091" y="73.36363636363636"/>
      <point x="94.81818181818181" y="164.03030303030303" type="curve"/>
      <point x="66.36363636363636" y="143.27272727272728" type="line"/>
      <point x="138.06060606060606" y="49.333333333333336"/>
      <point x="232.33333333333334" y="0.7878787878787878"/>
    </contour>
  </outline>
</glyph>
<glyph name="eMatra-tamil" format="2">
  <advance width="808.7878787878788"/>
  <unicode hex="0BC6"/>
  <note>
uni0BC6
</note>
  <outline>
    <contour>
      <point x="264.8787878787879" y="-4.212121212121212" type="curve" smooth="yes"/>
      <point x="358.0" y="-4.212121212121212"/>
      <point x="429.3939393939394" y="57.0"/>
      <point x="429.3939393939394" y="157.75757575757575" type="curve" smooth="yes"/>
      <point x="429.3939393939394" y="232.3939393939394"/>
      <point x="379.54545454545456" y="293.8181818181818"/>
      <point x="294.6363636363636" y="293.8181818181818" type="curve" smooth="yes"/>
      <point x="200.42424242424244" y="293.8181818181818"/>
      <point x="141.03030303030303" y="219.03030303030303"/>
      <point x="112.30303030303031" y="137.45454545454544" type="curve"/>
      <point x="126.06060606060606" y="112.03030303030303" type="line"/>
      <point x="158.66666666666669" y="193.72727272727272"/>
      <point x="205.0" y="259.9090909090909"/>
      <point x="282.75757575757575" y="259.9090909090909" type="curve" smooth="yes"/>
      <point x="354.0909090909091" y="259.9090909090909"/>
      <point x="386.6060606060606" y="210.45454545454544"/>
      <point x="386.6060606060606" y="153.63636363636363" type="curve" smooth="yes"/>
      <point x="386.6060606060606" y="76.66666666666667"/>
      <point x="333.42424242424244" y="26.93939393939394"/>
      <point x="264.1212121212121" y="26.93939393939394" type="curve" smooth="yes"/>
      <point x="176.93939393939394" y="26.93939393939394"/>
      <point x="107.45454545454545" y="103.54545454545455"/>
      <point x="107.45454545454545" y="267.969696969697" type="curve" smooth="yes"/>
      <point x="107.45454545454545" y="518.0"/>
      <point x="262.6060606060606" y="763.4242424242424"/>
      <point x="501.0" y="763.4242424242424" type="curve" smooth="yes"/>
      <point x="661.1515151515151" y="763.4242424242424"/>
      <point x="753.2727272727273" y="656.3939393939394"/>
      <point x="714.060606060606" y="473.3333333333333" type="curve" smooth="yes"/>
      <point x="612.1212121212121" y="0.0" type="line"/>
      <point x="646.9090909090909" y="0.0" type="line"/>
      <point x="750.2121212121212" y="480.42424242424244" type="line" smooth="yes"/>
      <point x="792.9090909090909" y="679.1212121212121"/>
      <point x="687.8484848484849" y="806.1515151515151"/>
      <point x="505.6969696969697" y="806.1515151515151" type="curve" smooth="yes"/>
      <point x="238.8181818181818" y="806.1515151515151"/>
      <point x="73.87878787878788" y="540.060606060606"/>
      <point x="73.87878787878788" y="265.3333333333333" type="curve" smooth="yes"/>
      <point x="73.87878787878788" y="86.63636363636364"/>
      <point x="159.75757575757575" y="-4.212121212121212"/>
    </contour>
  </outline>
</glyph>
<glyph name="eeMatra-tamil" format="2">
  <advance width="592.6060606060606"/>
  <unicode hex="0BC7"/>
  <note>
uni0BC7
</note>
  <outline>
    <contour>
      <point x="335.0909090909091" y="-4.212121212121212" type="curve" smooth="yes"/>
      <point x="436.0" y="-4.212121212121212"/>
      <point x="510.0909090909091" y="54.72727272727273"/>
      <point x="510.0909090909091" y="159.6060606060606" type="curve" smooth="yes"/>
      <point x="510.0909090909091" y="240.45454545454547"/>
      <point x="454.54545454545456" y="288.93939393939394"/>
      <point x="381.8484848484849" y="288.93939393939394" type="curve" smooth="yes"/>
      <point x="275.6969696969697" y="288.93939393939394"/>
      <point x="208.15151515151516" y="202.78787878787878"/>
      <point x="176.72727272727272" y="82.60606060606061" type="curve"/>
      <point x="196.06060606060606" y="62.75757575757576" type="line"/>
      <point x="228.27272727272728" y="177.9090909090909"/>
      <point x="283.93939393939394" y="254.8181818181818"/>
      <point x="372.7878787878788" y="254.8181818181818" type="curve" smooth="yes"/>
      <point x="429.93939393939394" y="254.8181818181818"/>
      <point x="468.09090909090907" y="215.36363636363637"/>
      <point x="468.09090909090907" y="154.63636363636363" type="curve" smooth="yes"/>
      <point x="468.09090909090907" y="75.81818181818181"/>
      <point x="411.0" y="26.93939393939394"/>
      <point x="335.969696969697" y="26.93939393939394" type="curve" smooth="yes"/>
      <point x="212.42424242424244" y="26.93939393939394"/>
      <point x="113.57575757575758" y="154.66666666666666"/>
      <point x="113.57575757575758" y="329.5151515151515" type="curve" smooth="yes"/>
      <point x="113.57575757575758" y="530.4242424242424"/>
      <point x="270.8484848484849" y="775.0"/>
      <point x="461.3333333333333" y="775.0" type="curve" smooth="yes"/>
      <point x="536.060606060606" y="775.0"/>
      <point x="577.939393939394" y="736.5757575757576"/>
      <point x="577.939393939394" y="668.2424242424242" type="curve" smooth="yes"/>
      <point x="577.939393939394" y="591.6363636363636"/>
      <point x="527.6969696969697" y="547.1212121212121"/>
      <point x="461.969696969697" y="547.1212121212121" type="curve" smooth="yes"/>
      <point x="376.3030303030303" y="547.1212121212121"/>
      <point x="344.57575757575756" y="634.2121212121212"/>
      <point x="355.8181818181818" y="765.4848484848485" type="curve"/>
      <point x="331.06060606060606" y="750.5757575757576" type="line"/>
      <point x="315.969696969697" y="614.5454545454545"/>
      <point x="357.8181818181818" y="513.2121212121212"/>
      <point x="467.2121212121212" y="513.2121212121212" type="curve" smooth="yes"/>
      <point x="548.1818181818182" y="513.2121212121212"/>
      <point x="618.7272727272727" y="570.4848484848485"/>
      <point x="618.7272727272727" y="667.3333333333334" type="curve" smooth="yes"/>
      <point x="618.7272727272727" y="755.939393939394"/>
      <point x="561.6969696969697" y="806.1515151515151"/>
      <point x="467.45454545454544" y="806.1515151515151" type="curve" smooth="yes"/>
      <point x="250.93939393939394" y="806.1515151515151"/>
      <point x="79.21212121212122" y="550.0909090909091"/>
      <point x="79.21212121212122" y="326.0909090909091" type="curve" smooth="yes"/>
      <point x="79.21212121212122" y="139.0"/>
      <point x="190.8181818181818" y="-4.212121212121212"/>
    </contour>
  </outline>
</glyph>
<glyph name="aiMatra-tamil" format="2">
  <advance width="1216.7575757575758"/>
  <unicode hex="0BC8"/>
  <note>
uni0BC8
</note>
  <outline>
    <contour>
      <point x="955.6666666666666" y="-6.363636363636363" type="line"/>
      <point x="1078.8484848484848" y="67.72727272727272"/>
      <point x="1152.7272727272727" y="162.8181818181818"/>
      <point x="1152.7272727272727" y="299.5151515151515" type="curve" smooth="yes"/>
      <point x="1152.7272727272727" y="454.0"/>
      <point x="1045.5454545454545" y="552.6969696969697"/>
      <point x="874.7575757575758" y="552.6969696969697" type="curve" smooth="yes"/>
      <point x="650.8181818181819" y="552.6969696969697"/>
      <point x="480.5151515151515" y="342.27272727272725"/>
      <point x="480.5151515151515" y="163.24242424242425" type="curve" smooth="yes"/>
      <point x="480.5151515151515" y="65.30303030303031"/>
      <point x="521.0909090909091" y="-5.0"/>
      <point x="611.030303030303" y="-5.0" type="curve" smooth="yes"/>
      <point x="704.5757575757576" y="-5.0"/>
      <point x="804.3333333333334" y="76.21212121212122"/>
      <point x="804.3333333333334" y="229.87878787878788" type="curve" smooth="yes"/>
      <point x="804.3333333333334" y="433.06060606060606"/>
      <point x="666.5454545454545" y="552.6969696969697"/>
      <point x="453.93939393939394" y="552.6969696969697" type="curve" smooth="yes"/>
      <point x="216.84848484848484" y="552.6969696969697"/>
      <point x="49.57575757575758" y="379.3333333333333"/>
      <point x="49.57575757575758" y="211.42424242424244" type="curve" smooth="yes"/>
      <point x="49.57575757575758" y="70.6969696969697"/>
      <point x="119.54545454545455" y="-4.212121212121212"/>
      <point x="221.5151515151515" y="-4.212121212121212" type="curve" smooth="yes"/>
      <point x="312.27272727272725" y="-4.212121212121212"/>
      <point x="388.6666666666667" y="55.0"/>
      <point x="388.6666666666667" y="157.33333333333334" type="curve" smooth="yes"/>
      <point x="388.6666666666667" y="231.12121212121212"/>
      <point x="340.3939393939394" y="287.24242424242425"/>
      <point x="261.0" y="287.24242424242425" type="curve" smooth="yes"/>
      <point x="166.78787878787878" y="287.24242424242425"/>
      <point x="106.60606060606061" y="212.45454545454547"/>
      <point x="77.87878787878788" y="130.87878787878788" type="curve"/>
      <point x="92.06060606060606" y="105.45454545454545" type="line"/>
      <point x="124.66666666666667" y="187.15151515151516"/>
      <point x="171.36363636363637" y="253.33333333333334"/>
      <point x="249.12121212121212" y="253.33333333333334" type="curve" smooth="yes"/>
      <point x="315.72727272727275" y="253.33333333333334"/>
      <point x="345.8787878787879" y="210.03030303030303"/>
      <point x="345.8787878787879" y="153.21212121212122" type="curve" smooth="yes"/>
      <point x="345.8787878787879" y="76.24242424242425"/>
      <point x="287.6969696969697" y="26.93939393939394"/>
      <point x="220.75757575757575" y="26.93939393939394" type="curve" smooth="yes"/>
      <point x="136.72727272727272" y="26.93939393939394"/>
      <point x="83.15151515151516" y="88.45454545454545"/>
      <point x="83.15151515151516" y="214.06060606060606" type="curve" smooth="yes"/>
      <point x="83.15151515151516" y="364.5151515151515"/>
      <point x="240.6969696969697" y="522.3333333333334"/>
      <point x="451.45454545454544" y="522.3333333333334" type="curve" smooth="yes"/>
      <point x="645.6666666666666" y="522.3333333333334"/>
      <point x="761.5454545454545" y="409.57575757575756"/>
      <point x="761.5454545454545" y="228.63636363636363" type="curve" smooth="yes"/>
      <point x="761.5454545454545" y="97.57575757575758"/>
      <point x="677.9090909090909" y="27.575757575757578"/>
      <point x="608.6363636363636" y="27.575757575757578" type="curve" smooth="yes"/>
      <point x="543.1818181818182" y="27.575757575757578"/>
      <point x="513.6666666666666" y="82.93939393939394"/>
      <point x="513.6666666666666" y="170.1818181818182" type="curve" smooth="yes"/>
      <point x="513.6666666666666" y="327.3939393939394"/>
      <point x="670.4545454545455" y="522.3333333333334"/>
      <point x="872.060606060606" y="522.3333333333334" type="curve" smooth="yes"/>
      <point x="1017.5454545454545" y="522.3333333333334"/>
      <point x="1109.3030303030303" y="433.969696969697"/>
      <point x="1109.3030303030303" y="297.42424242424244" type="curve" smooth="yes"/>
      <point x="1109.3030303030303" y="180.9090909090909"/>
      <point x="1040.909090909091" y="85.45454545454545"/>
      <point x="938.8181818181819" y="18.81818181818182" type="curve"/>
    </contour>
  </outline>
</glyph>
<glyph name="halant-tamil" format="2">
  <unicode hex="0BCD"/>
  <note>
uni0BCD
</note>
  <anchor x="56.63636363636364" y="544.5454545454545" name="_top"/>
  <outline>
    <contour>
      <point x="86.06060606060606" y="635.4242424242424" type="curve" smooth="yes"/>
      <point x="109.81818181818181" y="635.4242424242424"/>
      <point x="128.93939393939394" y="654.7575757575758"/>
      <point x="128.93939393939394" y="677.3030303030303" type="curve" smooth="yes"/>
      <point x="128.93939393939394" y="699.8484848484849"/>
      <point x="109.81818181818181" y="719.1818181818182"/>
      <point x="86.06060606060606" y="719.1818181818182" type="curve" smooth="yes"/>
      <point x="62.303030303030305" y="719.1818181818182"/>
      <point x="43.18181818181818" y="699.8484848484849"/>
      <point x="43.18181818181818" y="677.3030303030303" type="curve" smooth="yes"/>
      <point x="43.18181818181818" y="654.7575757575758"/>
      <point x="62.303030303030305" y="635.4242424242424"/>
    </contour>
  </outline>
</glyph>
